<?xml version="1.0" encoding="utf-8"?>
<!-- Generator: Adobe Illustrator 25.2.1, SVG Export Plug-In . SVG Version: 6.00 Build 0)  -->
<svg version="1.1" id="Capa_1" xmlns="http://www.w3.org/2000/svg" xmlns:xlink="http://www.w3.org/1999/xlink" x="0px" y="0px"
	 viewBox="0 0 512 512" style="enable-background:new 0 0 512 512;" xml:space="preserve">
<style type="text/css">
	.st0{fill:#A6228E;}
</style>
<g>
	<path class="st0" d="M437,141.6c-48.4-48.4-112.6-75-181-75c-49.5,0-97.5,14.1-138.7,40.7c-3.5,2.2-4.5,6.9-2.2,10.4
		c2.2,3.5,6.9,4.5,10.4,2.2c38.8-25.1,83.9-38.3,130.5-38.3c64.4,0,124.9,25.1,170.4,70.6s70.6,106,70.6,170.4
		c0,39-9.4,77.6-27.3,111.7c-1.9,3.7-0.5,8.2,3.2,10.1c1.1,0.6,2.3,0.9,3.5,0.9c2.7,0,5.3-1.5,6.6-4c19-36.2,29-77.3,29-118.7
		C512,254.3,485.4,190,437,141.6L437,141.6z"/>
	<path class="st0" d="M15,322.7c0-64.4,25.1-124.9,70.6-170.4c4.7-4.7,9.7-9.3,15-13.7c3.2-2.7,3.5-7.4,0.9-10.6
		c-2.7-3.2-7.4-3.6-10.6-0.9c-5.6,4.7-10.9,9.6-15.9,14.6C26.6,190,0,254.3,0,322.7c0,41.4,10,82.4,29,118.7c1.3,2.6,3.9,4,6.6,4
		c1.2,0,2.4-0.3,3.5-0.9c3.7-1.9,5.1-6.5,3.2-10.1C24.4,400.3,15,361.6,15,322.7z"/>
	<path class="st0" d="M384.5,243.8l-92.6,37.9c-9.9-8.7-22.7-13.5-35.9-13.5c-8.4,0-16.4,1.9-23.9,5.5c-3.7,1.8-5.3,6.3-3.4,10
		c1.8,3.7,6.3,5.3,10,3.4c5.4-2.7,11.3-4,17.3-4c7,0,13.8,1.8,19.7,5.2l-22.8,9.4c-6.2,2.5-11,7.6-13.3,13.8
		c-2.3,6.3-1.8,13.2,1.3,19.1s8.6,10.2,15,11.9c1.9,0.5,3.9,0.7,5.9,0.7c4.6,0,9.1-1.3,13-3.9l20.6-13.5
		c-1.6,20.3-18.7,36.3-39.4,36.3c-21.8,0-39.5-17.7-39.5-39.5c0-5.6,1.2-11.1,3.5-16.2c1.7-3.8,0-8.2-3.8-9.9
		c-3.8-1.7-8.2,0-9.9,3.8c-3.2,7.1-4.8,14.6-4.8,22.3c0,30.1,24.5,54.5,54.5,54.5s54.5-24.5,54.5-54.5c0-2.2-0.1-4.3-0.4-6.5
		l14.3-9.4c3.5-2.3,4.4-6.9,2.1-10.4s-6.9-4.4-10.4-2.1l-49.6,32.6c-2.1,1.4-4.5,1.8-6.9,1.2c-2.4-0.6-4.4-2.2-5.5-4.4
		c-1.2-2.2-1.3-4.7-0.5-7s2.6-4.1,4.9-5.1l83.6-34.3c-2.8,2.4-3.5,6.6-1.4,9.8c2.3,3.5,6.9,4.4,10.4,2.1l42.6-28
		c4.3-2.8,5.7-8.4,3.3-12.9C394.7,243.8,389.3,241.8,384.5,243.8L384.5,243.8z"/>
	<path class="st0" d="M414.1,164.5C371.9,122.3,315.7,99,256,99s-115.9,23.3-158.1,65.5s-65.5,98.4-65.5,158.1
		c0,36,8.8,71.9,25.4,103.6c1.9,3.7,6.4,5.1,10.1,3.2l36-18.8c3.7-1.9,5.1-6.4,3.2-10.1s-6.4-5.1-10.1-3.2l-29.3,15.3
		c-6.7-14.1-11.9-29-15.3-44.3l14.8-2.7c4.1-0.7,6.8-4.6,6-8.7c-0.7-4.1-4.6-6.8-8.7-6l-14.9,2.7c-1.5-10.2-2.3-20.6-2.3-30.9
		c0-3,0.1-6,0.2-8.9l15.9,1.3c0.2,0,0.4,0,0.6,0c3.9,0,7.1-3,7.5-6.9c0.3-4.1-2.7-7.7-6.8-8.1l-15.9-1.3c1.5-13.5,4.4-26.5,8.3-39.1
		l14.8,5.3c0.8,0.3,1.7,0.4,2.5,0.4c3.1,0,6-1.9,7.1-5c1.4-3.9-0.6-8.2-4.5-9.6l-14.9-5.3c5-12.5,11.1-24.4,18.3-35.5l12.8,8.9
		c1.3,0.9,2.8,1.3,4.3,1.3c2.4,0,4.7-1.1,6.2-3.2c2.4-3.4,1.5-8.1-1.9-10.4L89,197.8c8-10.7,17-20.6,26.9-29.6l8.8,10.3
		c1.5,1.7,3.6,2.6,5.7,2.6c1.7,0,3.4-0.6,4.8-1.8c3.2-2.7,3.5-7.4,0.9-10.6l-8.7-10.3c10.5-8.2,21.7-15.4,33.6-21.6l6.9,14.5
		c1.3,2.7,4,4.3,6.8,4.3c1.1,0,2.2-0.2,3.2-0.7c3.7-1.8,5.3-6.2,3.6-10l-6.8-14.5c12.1-5.2,24.9-9.2,38-12l2.8,15.2
		c0.7,3.6,3.8,6.1,7.4,6.1c0.4,0,0.9,0,1.4-0.1c4.1-0.7,6.8-4.6,6-8.7l-2.8-15.1c9.4-1.3,18.9-2,28.7-2c9.7,0,19.3,0.7,28.7,2
		l-2.8,15.1c-0.7,4.1,2,8,6,8.7c0.5,0.1,0.9,0.1,1.4,0.1c3.5,0,6.7-2.5,7.4-6.1l2.8-15.2c13.2,2.8,25.9,6.8,38,12l-6.8,14.5
		c-1.8,3.7-0.2,8.2,3.6,10c1,0.5,2.1,0.7,3.2,0.7c2.8,0,5.5-1.6,6.8-4.3L351,137c11.9,6.1,23.2,13.4,33.6,21.6l-8.7,10.3
		c-2.7,3.2-2.3,7.9,0.9,10.6c1.4,1.2,3.1,1.8,4.8,1.8c2.1,0,4.2-0.9,5.7-2.6l8.8-10.3c9.9,9,18.9,18.9,26.9,29.6l-12.8,8.9
		c-3.4,2.4-4.2,7-1.9,10.4c1.5,2.1,3.8,3.2,6.2,3.2c1.5,0,3-0.4,4.3-1.3l12.8-8.9c7.2,11.2,13.3,23.1,18.3,35.5l-14.9,5.3
		c-3.9,1.4-5.9,5.7-4.5,9.6c1.1,3.1,4,5,7.1,5c0.8,0,1.7-0.1,2.5-0.4l14.8-5.3c4,12.6,6.8,25.6,8.3,39.1l-15.9,1.3
		c-4.1,0.3-7.2,4-6.8,8.1c0.3,3.9,3.6,6.9,7.5,6.9c0.2,0,0.4,0,0.6,0l15.9-1.3c0.1,3,0.2,5.9,0.2,8.9c0,10.4-0.8,20.7-2.3,30.9
		l-14.9-2.7c-4.1-0.7-8,2-8.7,6c-0.7,4.1,2,8,6,8.7l14.8,2.7c-3.4,15.3-8.5,30.2-15.3,44.3L415,397.3c-3.7-1.9-8.2-0.5-10.1,3.2
		s-0.5,8.2,3.2,10.1l36,18.8c1.1,0.6,2.3,0.9,3.5,0.9c2.7,0,5.3-1.5,6.6-4c16.6-31.7,25.4-67.6,25.4-103.6
		C479.6,262.9,456.4,206.8,414.1,164.5L414.1,164.5z"/>
</g>
</svg>
