<?xml version="1.0" encoding="utf-8"?>
<!-- Generator: Adobe Illustrator 25.2.1, SVG Export Plug-In . SVG Version: 6.00 Build 0)  -->
<svg version="1.1" id="Capa_1" xmlns="http://www.w3.org/2000/svg" xmlns:xlink="http://www.w3.org/1999/xlink" x="0px" y="0px"
	 viewBox="0 0 512 512" style="enable-background:new 0 0 512 512;" xml:space="preserve">
<style type="text/css">
	.st0{fill:#AA0E94;}
</style>
<g>
	<path class="st0" d="M283.9,153.1c-2.9-2.9-7.7-2.9-10.6,0l-8.2,8.2c-2.9,2.9-2.9,7.7,0,10.6c1.5,1.5,3.4,2.2,5.3,2.2
		c1.9,0,3.8-0.7,5.3-2.2l8.2-8.2C286.9,160.8,286.9,156,283.9,153.1z"/>
	<path class="st0" d="M290.8,194.6c1.9,0,3.8-0.7,5.3-2.2l8.2-8.2c2.9-2.9,2.9-7.7,0-10.6c-2.9-2.9-7.7-2.9-10.6,0l-8.2,8.2
		c-2.9,2.9-2.9,7.7,0,10.6C287,193.8,288.9,194.6,290.8,194.6z"/>
	<path class="st0" d="M314.2,194l-8.2,8.2c-2.9,2.9-2.9,7.7,0,10.6c1.5,1.5,3.4,2.2,5.3,2.2s3.8-0.7,5.3-2.2l8.2-8.2
		c2.9-2.9,2.9-7.7,0-10.6C321.9,191.1,317.2,191.1,314.2,194z"/>
	<path class="st0" d="M326.4,233.3c1.5,1.5,3.4,2.2,5.3,2.2s3.8-0.7,5.3-2.2l8.2-8.2c2.9-2.9,2.9-7.7,0-10.6
		c-2.9-2.9-7.7-2.9-10.6,0l-8.2,8.2C323.5,225.6,323.5,230.4,326.4,233.3L326.4,233.3z"/>
	<path class="st0" d="M61.9,425.9l-13.8,13.8c-2.9,2.9-2.9,7.7,0,10.6c2.9,2.9,7.7,2.9,10.6,0l13.8-13.8c2.9-2.9,2.9-7.7,0-10.6
		C69.6,422.9,64.8,422.9,61.9,425.9z"/>
	<path class="st0" d="M348.8,369.6L304,343.8c-5-2.9-11.3-2.9-16.3,0l-44.8,25.9c-5,2.9-8.1,8.3-8.1,14.1v51.7
		c0,5.8,3.1,11.2,8.1,14.1l44.8,25.9c2.5,1.4,5.3,2.2,8.1,2.2s5.6-0.7,8.1-2.2l44.8-25.9c5-2.9,8.1-8.3,8.1-14.1v-51.7
		C356.9,377.9,353.8,372.5,348.8,369.6z M341.9,435.5c0,0.5-0.2,0.9-0.6,1.1l-44.8,25.9c-0.4,0.2-0.9,0.2-1.3,0l-44.8-25.9
		c-0.4-0.2-0.6-0.6-0.6-1.1v-51.7c0-0.5,0.2-0.9,0.6-1.1l44.8-25.9c0.2-0.1,0.4-0.2,0.6-0.2s0.4,0.1,0.6,0.2l44.8,25.9
		c0.4,0.2,0.6,0.6,0.6,1.1L341.9,435.5L341.9,435.5z"/>
	<path class="st0" d="M295.8,381.9c-15.3,0-27.7,12.4-27.7,27.7c0,15.3,12.4,27.7,27.7,27.7c15.3,0,27.7-12.4,27.7-27.7
		C323.5,394.3,311.1,381.9,295.8,381.9z M295.8,422.3c-7,0-12.7-5.7-12.7-12.7c0-7,5.7-12.7,12.7-12.7c7,0,12.7,5.7,12.7,12.7
		C308.5,416.6,302.8,422.3,295.8,422.3z"/>
	<path class="st0" d="M423.2,349.1c0,15.3,12.4,27.7,27.7,27.7c15.3,0,27.7-12.4,27.7-27.7c0-15.3-12.4-27.7-27.7-27.7
		C435.7,321.4,423.2,333.8,423.2,349.1z M463.6,349.1c0,7-5.7,12.7-12.7,12.7s-12.7-5.7-12.7-12.7c0-7,5.7-12.7,12.7-12.7
		C457.9,336.4,463.6,342.1,463.6,349.1z"/>
	<path class="st0" d="M503.9,309.1l-44.8-25.9c-5-2.9-11.3-2.9-16.3,0L398,309.1c-5,2.9-8.1,8.3-8.1,14.1V375
		c0,5.8,3.1,11.2,8.1,14.1l44.8,25.9c2.5,1.4,5.3,2.2,8.1,2.2c2.8,0,5.6-0.7,8.1-2.2l16.1-9.3c3.6-2.1,4.8-6.7,2.7-10.2
		c-2.1-3.6-6.7-4.8-10.2-2.7l-16.1,9.3c-0.4,0.2-0.9,0.2-1.3,0l-44.8-25.9c-0.4-0.2-0.6-0.6-0.6-1.1v-51.7c0-0.5,0.2-0.9,0.6-1.1
		l44.8-25.9c0.4-0.2,0.9-0.2,1.3,0l44.8,25.9c0.4,0.2,0.6,0.6,0.6,1.1V375c0,0.5-0.2,0.9-0.6,1.1l-2.7,1.6
		c-3.6,2.1-4.8,6.7-2.7,10.2c2.1,3.6,6.7,4.8,10.2,2.7l2.7-1.6c5-2.9,8.1-8.3,8.1-14.1v-51.7C512,317.4,508.9,312,503.9,309.1
		L503.9,309.1z"/>
	<path class="st0" d="M322.6,280.1c44.4,9.2,90.3-4.3,122.6-36.6c38-38,48.7-93.4,31.3-141.3c-0.9-2.4-2.9-4.2-5.4-4.8
		c-2.5-0.6-5.1,0.2-6.9,2l-61.6,61.6l-51.4-13.8l-13.8-51.4l7.4-7.4c2.9-2.9,2.9-7.7,0-10.6c-2.9-2.9-7.7-2.9-10.6,0l-10.4,10.4
		c-1.9,1.9-2.6,4.7-1.9,7.2l16,59.8c0.7,2.6,2.7,4.6,5.3,5.3l59.8,16c2.6,0.7,5.4,0,7.2-1.9l55.9-55.9c10.2,40.5-1.5,84.1-31.3,114
		c-28.6,28.6-69.3,40.7-108.9,32.5c-21.8-4.5-44.4,2.9-59,19.4L107.3,465.1c0,0,0,0.1-0.1,0.1c-5,5.8-11,10.3-17.8,13.5
		c-3.8,1.7-5.4,6.2-3.7,9.9c1.7,3.8,6.2,5.4,9.9,3.7c8.8-4.1,16.5-9.9,22.9-17.3l159.3-180.2C288.9,282.3,306,276.7,322.6,280.1z"/>
	<path class="st0" d="M63.1,483.2c-12.4-1-24-6.4-32.8-15.2c-21.5-21.5-20.4-56.8,2.9-76.9c0,0,0.1,0,0.1-0.1l180.2-159.3
		c16.5-14.6,23.9-37.2,19.4-59c-8.2-39.6,3.9-80.4,32.5-108.9c29.9-29.9,73.5-41.6,114-31.3l-24.2,24.2c-2.9,2.9-2.9,7.7,0,10.6
		c2.9,2.9,7.7,2.9,10.6,0l33-33c1.8-1.8,2.6-4.4,2-6.9c-0.6-2.5-2.3-4.5-4.8-5.4c-47.9-17.5-103.3-6.7-141.3,31.3
		c-32.2,32.2-45.8,78-36.6,122.6c3.4,16.6-2.2,33.7-14.7,44.8L23.4,379.8c-29.7,25.6-31.4,71.1-3.7,98.8
		C31,489.9,46,496.9,61.9,498.2c4.1,0.3,7.7-2.7,8.1-6.9C70.4,487.2,67.3,483.5,63.1,483.2L63.1,483.2z"/>
</g>
</svg>
