<svg xmlns="http://www.w3.org/2000/svg" viewBox="0 0 71.49 61.98"><path d="M172.56,208.47c-3.55-6.21-7.08-12.43-10.66-18.62-3.86-6.7-7.62-13.45-11.56-20.1-2.47-4.15-4.79-8.39-7.13-12.62a2,2,0,0,0-2.14-1.3c-2.26.12-4.52,0-6.77,0-.34,0-.8-.17-1,.16s.18.65.35.94l25.57,43.62c.2.35.67.72.38,1.14s-.74.14-1.12.14q-16.39,0-32.79,0a1.45,1.45,0,0,0-1.51.87c-1,1.87-2.05,3.69-3.09,5.53-.69,1.21-.69,1.21.65,1.21h25v0H172C173.15,209.52,173.16,209.51,172.56,208.47Z" transform="translate(-101.46 -155.83)" fill="#fff"/><path d="M171.12,210.85c-17,.06-34,0-50.94.21-.65,0-1.61.36-1.89-.2s.45-1.26.78-1.87q2.1-3.92,4.24-7.81c1.63-2.9,3.28-5.8,4.91-8.71l7.07-12.76c.13-.24.37-.46.2-.78-1.08-2-2.15-4.09-3.29-6.26-.28.41-.47.66-.62.93q-3.27,5.79-6.54,11.58-3.66,6.49-7.29,13c-.14.2-.29.4-.42.61l-8,14-2.81,5h1.33c19.53,0,39.06,0,58.58.05,1.68,0,2.68-.39,3.37-2a55.42,55.42,0,0,1,2.75-5Z" transform="translate(-101.46 -155.83)" fill="#fff"/><path d="M118.52,193.79q3.39-6.07,6.85-12.12l6.14-10.82c.52-.92.63-.92,1.14,0q2.74,5,5.48,10,5.2,9.45,10.42,18.9c.23.43.39.9,1.07.86,1.43-.07,2.86,0,4.29-.13a16.49,16.49,0,0,0,3.25-.17c-8.38-14.58-16.7-29.06-25.08-43.66l-4.3,7.39q-4.17,7.2-8.32,14.42l-17.83,30.51a.78.78,0,0,0,0,.89c1.33,2.32,2.63,4.65,4,7.1.86-1.52,1.66-2.91,2.44-4.32Q113.25,203.17,118.52,193.79Z" transform="translate(-101.46 -155.83)" fill="#fff"/></svg>