<?xml version="1.0" encoding="utf-8"?>
<!-- Generator: Adobe Illustrator 25.2.1, SVG Export Plug-In . SVG Version: 6.00 Build 0)  -->
<svg version="1.1" id="Layer_1" xmlns="http://www.w3.org/2000/svg" xmlns:xlink="http://www.w3.org/1999/xlink" x="0px" y="0px"
	 viewBox="0 0 512 512" style="enable-background:new 0 0 512 512;" xml:space="preserve">
<style type="text/css">
	.st0{fill:#AA0E94;}
</style>
<g>
	<path class="st0" d="M476,184h-4v-76c0-15.5-12.5-28-28-28H68c-15.5,0-28,12.5-28,28v124h-4c-15.5,0-28,12.5-28,28v136
		c0,15.5,12.5,28,28,28h72c15.5,0,28-12.5,28-28v-28h69.8l-4,16H184c-4.4,0-8,3.6-8,8v24c0,4.4,3.6,8,8,8h144c4.4,0,8-3.6,8-8v-24
		c0-4.4-3.6-8-8-8h-17.8l-4-16H344v28c0,15.5,12.5,28,28,28h104c15.5,0,28-12.5,28-28V212C504,196.5,491.5,184,476,184z M120,396
		c0,6.6-5.4,12-12,12H36c-6.6,0-12-5.4-12-12V260c0-6.6,5.4-12,12-12h6.2l6.2,18.5c1.1,3.3,4.1,5.5,7.6,5.5h32
		c3.4,0,6.5-2.2,7.6-5.5l6.2-18.5h6.2c6.6,0,12,5.4,12,12V396z M59.1,248h25.8l-2.7,8H61.8L59.1,248z M320,400v8H192v-8H320z
		 M218.2,384l4-16h67.5l4,16H218.2z M344,352H136v-32h208V352z M344,212v92H136v-44c0-15.5-12.5-28-28-28H56V108c0-6.6,5.4-12,12-12
		h376c6.6,0,12,5.4,12,12v76h-84C356.5,184,344,196.5,344,212z M436.9,200l-2.7,8h-20.5l-2.7-8H436.9z M488,396c0,6.6-5.4,12-12,12
		H372c-6.6,0-12-5.4-12-12V212c0-6.6,5.4-12,12-12h22.2l6.2,18.5c1.1,3.3,4.1,5.5,7.6,5.5h32c3.4,0,6.5-2.2,7.6-5.5l6.2-18.5H476
		c6.6,0,12,5.4,12,12V396z"/>
	<path class="st0" d="M440,384h-32c-4.4,0-8,3.6-8,8s3.6,8,8,8h32c4.4,0,8-3.6,8-8S444.4,384,440,384z"/>
	<path class="st0" d="M88,384H56c-4.4,0-8,3.6-8,8s3.6,8,8,8h32c4.4,0,8-3.6,8-8S92.4,384,88,384z"/>
	<path class="st0" d="M264,328h-16c-4.4,0-8,3.6-8,8s3.6,8,8,8h16c4.4,0,8-3.6,8-8S268.4,328,264,328z"/>
</g>
</svg>
