<?xml version="1.0" encoding="UTF-8"?>
<svg id="Capa_1" data-name="Capa 1" xmlns="http://www.w3.org/2000/svg" version="1.1" viewBox="0 0 512 512">
  <defs>
    <style>
      .cls-1 {
        fill: #2d4739;
      }

      .cls-1, .cls-2 {
        stroke-width: 0px;
      }

      .cls-2 {
        fill: #b0cab0;
      }
    </style>
  </defs>
  <g>
    <path class="cls-2" d="M131.1,247.1l.2.2c.1.1.2.3.4.4,0-.1-.2-.3-.3-.4,0-.1-.2-.4-.2-.3,0,0,0,0,0,0,0,0,0,0,0,0,0,0,0,0,0,0Z"/>
    <path class="cls-2" d="M131.1,247.1s0,0,0,0c0,0,0,0,0,0Z"/>
    <path class="cls-2" d="M463.5,275.5c.2,0,.4,0,.6,0-.2,0-.4,0-.6,0Z"/>
    <path class="cls-2" d="M330.6,77.3c0,0-.2,0-.3,0,0,0,.2,0,.3,0Z"/>
    <path class="cls-2" d="M205.9,85.3c0,0,.2,0,.3,0,0,0-.2,0-.3,0Z"/>
    <path class="cls-2" d="M463.9,278c.1-.1.3-.2.4-.4-.2.2-.3.3-.4.4Z"/>
    <path class="cls-2" d="M35.5,221.6c-.3,2.4-.6,5,.2,3,1.2,8.3,1,17.1,1.6,25.8.6,8.6,2.3,17.1,6,23,1.2,0,7.3.1,15.7-.5,8.4-.6,19-2.2,29.2-5.3,10.3-2.9,20-7.1,27.4-11.1,7.4-3.9,12.4-7.3,13.6-8.2,0,0,0,0,0,0h0s0,0,0,0h0c.2.6.3,1,.5,1.3.3.8.5,1.4.4,1.8.4-.6.3-1.9,0-3.1-.3-.9,0-.5-.2-.6,0,0-.2,0-.4,0l-2.7,1.6c-1.4-.3,1.5-1.1,1-1.6,2.3-1,3-.9,3.3-.8,0-.5,1.7-1.4-.9-.3.4-.3,1.2-.6,1.9-.9.7-.3,1.4-.6,2-.8-.4.1-1.1.3-1.7.4-.5,0-.8,0,0-.2h.5c1.3-.3.3-.1-.7-.4-.5,0-1-.3-1.1-.4-.2-.1-.1-.3.6-.2l.8.3c.7.2.6,0,.5,0,0,0-.1-.2.6.1-.5-.3-2.2-1-2.4-1.4.8.3.9.2,1,.1,0,0,.3,0,1,.6-.6-.6-1.1-1.3-1.7-2,0,0,.2,0,.3-.2,0,0,0,0,0,0l.2-.2c.2-.2.5-.4.7-.7.3-.3.5-.5.8-.8.3-.3.6-.6.9-.9.6-.6,1.3-1.2,2-1.9.8-.7,1.5-1.4,2.4-2.2,1.9-1.7,3.8-3.5,5.9-5.3,8.4-7.6,17.3-15.6,25.2-21.4,4-3,7.7-5.4,11-7.3,3.4-1.9,6.2-3.3,8.9-4.3,5.5-2.1,11.8-3.1,15.7-3.5l-.6.5c5.8-.9,14.1-1.2,25.1-1.3,11.1,0,23.3,0,35.2,0,11.9,0,23.6.2,34.1.4,5.2.1,10.2.2,14.9.4,2.3,0,4.5,0,6.6.1,2,0,3.9,0,5.7,0,3.9,3.3,9.1,3.6,12.3,5.3-1.7-1.6-.7-3.3.8-2.9,2.6.8,3.7,1.1,4.4,1.1.7,0,.8-.2,1-.5.2-.3.4-.6,1.1-.7.4,0,.8,0,1.5,0,.6.1,1.5.3,2.5.6,2.4.4,5.7,2,8,4.2,1.1,1.2,2.5,2.6,3.6,4.7,1.1,2,2.3,4.5,3.2,7.3.9,2.9,1.6,6,2,9.2.3,3.2.5,6.4.4,9.4,0,1.5-.2,2.9-.3,4.2-.2,1.3-.3,2.5-.5,3.6-.2,1.1-.4,2-.6,2.9-.3,1-.5,1.8-.7,2.5.2.4.3.8.4,1.3,0,.4.2.9.2,1.3,0,.4,0,.9.1,1.3v.7s0,.3,0,.3v.2s0,.1,0,.3c-.5,2.3-1,4.7-1.5,7l-.4,1.8c-.1.6-.3,1.2-.5,1.8l-1.3,3.7-1.4,3.7c-.5,1.2-.9,2.5-1.5,3.7-1.1,2.5-2.3,5-3.3,7.4-.3.6-.5,1.2-.8,1.8-.3.6-.6,1.2-.9,1.8-.6,1.2-1.2,2.4-1.8,3.6-1.2,2.4-2.1,4.7-3.1,6.9v-1.7c-1.2,2.4-3.2,6.4-6,11.3-1.3,2.5-2.7,5.3-4.2,8.2-1.6,3-3,6.1-4.6,9.4-.8,1.6-1.6,3.4-2.4,5.1-.6,1.6-1.3,3.3-1.9,5-.6,1.7-1.3,3.4-2,5.1-.4,1.5-.8,3.1-1.2,4.7-.2.8-.4,1.6-.6,2.4l-.3,1.2v.6c-.1,0-.2.5-.2.5,0,1.3-.1,2.6-.2,4v2c0,.3-.2.7-.1,1l.2.8c.3,1,.5,2.1.8,3.1l.4,1.6c.2.4.5.8.7,1.1.5.7,1,1.5,1.5,2.2.4.8,1.1,1.2,1.7,1.7.6.5,1.2,1,1.8,1.5.3.3.6.4.9.6.3.2.6.3,1,.5.6.3,1.3.6,1.9.9h.2c0,.2,0,.4,0,.5v.8c.1.5.2,1,.2,1.5.2,1,.4,1.9.5,2.8.7,2.8,1.9,5,3.1,6.8l-13,17.5,67.7,15.7c7.5,1.7,15.9,2.7,24.3,1.9,4.2-.4,8.5-1.2,12.6-2.4,4.1-1.3,8.1-2.9,11.7-5,5.2.4,10.7.4,16.2-.3.6-.6,1.2-1.2,1.7-1.8,0,0-.7-5.6-2.7-13.8-.7-3-1.7-6.3-2.8-9.8,2.7-4.2,5.4-8.4,8.1-12.7l.6-1,.3-.5.5-.9.6-1.1c.8-1.5,1.6-3,2.3-4.5.7-1.5,1.3-2.9,2-4.4.6-1.5,1.2-3.1,1.8-4.6.6-1.6,1.1-3.3,1.6-5,1-3.7,1.9-7.4,2.6-12.5.2-1.3.3-2.5.4-3.8.1-1.5.2-3,.3-4.5v-2.2c0-.8,0-1.8,0-2.7,0-1.8-.1-3.6-.3-5.4l-.2-1.6-.2-1.7c-.1-1.1-.3-2.2-.5-3.3s-.4-2.2-.6-3.3c-.3-1.2-.6-2.6-1-3.8-.4-1.3-.7-2.6-1.2-3.8l-.6-1.9c-.2-.7-.4-1.2-.7-1.9-1.1-2.8-2.4-5.6-3.9-8.3-.4-.7-.7-1.3-1.1-2-.2-.4-.3-.5-.4-.6l-.3-.4-1.2-1.6-1.2-1.6-.4-.5c0,0,.1-.1.2-.2,0,0-.2.1-.2.2h0s0,0,0,0c0,0,0,0,0,0-.1,0-.2.2-.3.4,0,0-.1,0-.2.1-.5.3-1.1.6-1.6.9,1.2-1.1,3.1-2.5,4.4-3.5-.6.5-1.2.9-1.6,1.1-.4.2-.5.2-.6.1,0-.2.2-.7.5-.7l-4.6,1.6c.2-.4,1.5-.9,2.6-1.2,1.2-.4,2.2-.6,1.7-.7-3,.6-2.7.2-2.2-.1.6-.3,1.4-.4,0-.6.4,0,.6-.2,1.8,0-2.1-.3,0-.6-.6-1.3-.8-.4-.9,0-1.8,0l-.2-.4c0,0,0-.1,0-.2v-1.2c0,0,.4-4.7.4-4.7,1.5-3.4,3.4-4,3.1,0,.2-.8.3-1.6.5-2.5.2-1,.3-2,.5-3.1.2-1.1.4-2.3.6-3.6.2-1.3.4-2.6.6-4.2.8-6.1,1.5-13.4,1.6-21.5,0-2,0-4.1,0-6.2,0-2.1-.1-4.3-.2-6.5-.1-4.4-.6-9-1-13.7-1.1-9.4-2.9-19.2-5.6-28.9-2.8-9.8-6.3-19.5-10.8-28.6-4.5-9.1-9.6-17.6-15.3-24.7-5.5-7.2-11.4-13.2-16.7-17.7-1.3-1.2-2.6-2.2-3.8-3.1-1.2-.9-2.3-1.8-3.4-2.6-2.2-1.5-4.1-2.7-5.6-3.7,1,2.2,3.5,4.2,5.9,6.5,1.2,1.2,2.3,2.4,3.2,3.7.9,1.3,1.5,2.7,1.6,4.1-.9-.5-1.7-.9-2.4-1.4-.7-.4-1.4-.9-2-1.3-1.2-.9-2.2-1.8-3-2.6-1.7-1.6-3.1-2.7-5-2.6.2-3.5-3.2-6.1-6.8-8.6-1.8-1.2-3.7-2.5-5.3-3.9-1.6-1.4-2.9-2.9-3.6-5-1,.8-1.9,1.6-2.9,2.4l-2.5-3.3c-7.1-2-10.8-2.4-13.1-2.9-2.2-.3-2.8-.4-3.4-.6-.5-.2-1-.6-2.6-1.2-.8-.3-2-.8-3.6-1.3-1.6-.5-3.6-1.1-6.3-1.8-6.2-1-10.6-.3-14.2.2-1.8.3-3.4.5-4.9.5-1.4,0-2.7-.2-4.1-.7,1,.5,2.5,2.5,0,3-.2-3.1-7.2,1.4-8.3-1.8-2.6,0-10.9-1-8.4,3.4-1.3-2.2-8.6-3.6-4.1-5.1-2.5-.3-4.9-1.1-6.7-.3l3.1,1.4c-8.4,0-12.8-3.4-18.4,0l3,1.8c-5,0-9.1.1-10.8-4l5.1-1c-8.2-.3-13.1-.1-19.8,1.8l2.4.2c-4.3,1.9-17.6,3.5-30.5,5.3-6.4.9-13.1,1.8-19,3-5.8,1.1-10.6,2.5-12.8,3.9,1.4,1,2.8,2,4.1,3-2.5,1-5,2-7.5,3.1.8,0,2.9-8.7,3.9-9.5-4.2.3-12.7.9-24.2,3.2-5.8,1.2-12.5,2.9-19.4,5.4-6.9,2.4-13.8,5.6-20.2,9-6.4,3.4-12.5,7.2-17.9,10.9-5.4,3.7-10.3,7.3-14.6,10.6-8.5,6.5-14.6,11.5-17.7,13.4-5.3,2.3-3.4-3.4-3.6-3.8-4.8,5.5-.6,4.7-5.2,8.3-1.5.6-1-2.2-.6-3.2-.4.5-.9.9-1.4,1.3-.5.4-1,.7-1.4,1.1-.8.6-1.3,1.2-1,1.8,3.2-1.4,4.1,2.7,6.5,3.8l-3.1,2.5-3.2,2.7-1-2.2c-.7.6-.8,2.8-1.5,5.4-.3,1.3-.9,2.7-1.8,4.2-.2.4-.5.7-.8,1.1-.3.4-.7.8-1.1,1.3-.9.9-1.9,1.9-3,2.8-7.4,6.9-14.3,15.2-19.8,24.6-5.5,9.3-9.7,19.6-12.3,30-1.2-.7-.9-5.3-.2-10-.5,1.4-.9,3.2-1.5,4.9-.3.9-.5,1.7-.9,2.5-.3.8-.6,1.5-1,2.2,1.7-2.3,1.5,0,1.3,2.5ZM342.4,382.5c-.2,0-.4-.2-.6-.3-.3-.2-.3-.4.7-.5.3,0,.7,0,1.2,0,0,0,.1.1.2.2,0,0,0,0,0,0l-.8.8c-.3,0-.5-.1-.8-.2ZM349,388.6c0,.2-.3.4-.5.6-.2.2-.4.3-.6.5-.1.2-.6.3-1,.5,1.7-1.5,2.9-2.8,3.3-3.9-.2.5-.4,1.1-.8,1.7-.1.2-.2.4-.4.6ZM350.3,385.7c0,.2-.1.4-.2.6.2-.7.2-1.3-.1-1.8-.3-.5-.9-.9-1.5-1.3.5.2.8.4,1.1.7.4.3.5.6.6.9,0,.3.2.7,0,1Z"/>
  </g>
  <g>
    <path class="cls-1" d="M414.1,156.1c-42.3-42.3-98.3-65.5-158.1-65.5s-85.2,12.3-121.1,35.5c-3.1,1.9-3.9,6-1.9,9.1,1.9,3.1,6,3.9,9.1,1.9,33.9-21.9,73.3-33.5,114-33.5s109.1,21.9,148.8,61.7c39.7,39.7,61.7,92.6,61.7,148.8s-8.2,67.8-23.8,97.6c-1.7,3.2-.4,7.2,2.8,8.8,1,.5,2,.8,3.1.8,2.4,0,4.6-1.3,5.8-3.5,16.6-31.6,25.3-67.5,25.3-103.7,0-59.7-23.2-115.8-65.5-158.1h0Z"/>
    <path class="cls-1" d="M45.5,314.3c0-56.2,21.9-109.1,61.7-148.8s8.5-8.1,13.1-12c2.8-2.4,3.1-6.5.8-9.3-2.4-2.8-6.5-3.1-9.3-.8-4.9,4.1-9.5,8.4-13.9,12.8-42.3,42.2-65.5,98.3-65.5,158.1s8.7,72,25.3,103.7c1.1,2.3,3.4,3.5,5.8,3.5s2.1-.3,3.1-.8c3.2-1.7,4.5-5.7,2.8-8.8-15.6-29.8-23.8-63.6-23.8-97.6Z"/>
    <path class="cls-1" d="M368.2,245.3l-80.9,33.1c-8.6-7.6-19.8-11.8-31.4-11.8s-14.3,1.7-20.9,4.8c-3.2,1.6-4.6,5.5-3,8.7,1.6,3.2,5.5,4.6,8.7,3,4.7-2.4,9.9-3.5,15.1-3.5s12.1,1.6,17.2,4.5l-19.9,8.2c-5.4,2.2-9.6,6.6-11.6,12.1-2,5.5-1.6,11.5,1.1,16.7s7.5,8.9,13.1,10.4c1.7.4,3.4.6,5.2.6,4,0,7.9-1.1,11.4-3.4l18-11.8c-1.4,17.7-16.3,31.7-34.4,31.7s-34.5-15.5-34.5-34.5,1-9.7,3.1-14.1c1.5-3.3,0-7.2-3.3-8.6-3.3-1.5-7.2,0-8.6,3.3-2.8,6.2-4.2,12.8-4.2,19.5,0,26.3,21.4,47.6,47.6,47.6s47.6-21.4,47.6-47.6,0-3.8-.3-5.7l12.5-8.2c3.1-2,3.8-6,1.8-9.1s-6-3.8-9.1-1.8l-43.3,28.5c-1.8,1.2-3.9,1.6-6,1-2.1-.5-3.8-1.9-4.8-3.8-1-1.9-1.1-4.1-.4-6.1s2.3-3.6,4.3-4.5l73-30c-2.4,2.1-3.1,5.8-1.2,8.6,2,3.1,6,3.8,9.1,1.8l37.2-24.5c3.8-2.4,5-7.3,2.9-11.3-2-3.8-6.7-5.6-10.9-3.8h0Z"/>
    <path class="cls-1" d="M394.1,176.1c-36.9-36.9-85.9-57.2-138.1-57.2s-101.2,20.4-138.1,57.2-57.2,85.9-57.2,138.1,7.7,62.8,22.2,90.5c1.7,3.2,5.6,4.5,8.8,2.8l31.4-16.4c3.2-1.7,4.5-5.6,2.8-8.8s-5.6-4.5-8.8-2.8l-25.6,13.4c-5.9-12.3-10.4-25.3-13.4-38.7l12.9-2.4c3.6-.6,5.9-4,5.2-7.6-.6-3.6-4-5.9-7.6-5.2l-13,2.4c-1.3-8.9-2-18-2-27s0-5.2.2-7.8l13.9,1.1h.5c3.4,0,6.2-2.6,6.6-6,.3-3.6-2.4-6.7-5.9-7.1l-13.9-1.1c1.3-11.8,3.8-23.1,7.2-34.2l12.9,4.6c.7.3,1.5.3,2.2.3,2.7,0,5.2-1.7,6.2-4.4,1.2-3.4-.5-7.2-3.9-8.4l-13-4.6c4.4-10.9,9.7-21.3,16-31l11.2,7.8c1.1.8,2.4,1.1,3.8,1.1,2.1,0,4.1-1,5.4-2.8,2.1-3,1.3-7.1-1.7-9.1l-11.2-7.7c7-9.3,14.8-18,23.5-25.9l7.7,9c1.3,1.5,3.1,2.3,5,2.3s3-.5,4.2-1.6c2.8-2.4,3.1-6.5.8-9.3l-7.6-9c9.2-7.2,19-13.5,29.3-18.9l6,12.7c1.1,2.4,3.5,3.8,5.9,3.8s1.9-.2,2.8-.6c3.2-1.6,4.6-5.4,3.1-8.7l-5.9-12.7c10.6-4.5,21.7-8,33.2-10.5l2.4,13.3c.6,3.1,3.3,5.3,6.5,5.3s.8,0,1.2,0c3.6-.6,5.9-4,5.2-7.6l-2.4-13.2c8.2-1.1,16.5-1.7,25.1-1.7s16.9.6,25.1,1.7l-2.4,13.2c-.6,3.6,1.7,7,5.2,7.6.4,0,.8,0,1.2,0,3.1,0,5.9-2.2,6.5-5.3l2.4-13.3c11.5,2.4,22.6,5.9,33.2,10.5l-5.9,12.7c-1.6,3.2-.2,7.2,3.1,8.7.9.4,1.8.6,2.8.6,2.4,0,4.8-1.4,5.9-3.8l5.7-12.5c10.4,5.3,20.3,11.7,29.3,18.9l-7.6,9c-2.4,2.8-2,6.9.8,9.3,1.2,1,2.7,1.6,4.2,1.6s3.7-.8,5-2.3l7.7-9c8.6,7.9,16.5,16.5,23.5,25.9l-11.2,7.8c-3,2.1-3.7,6.1-1.7,9.1,1.3,1.8,3.3,2.8,5.4,2.8s2.6-.3,3.8-1.1l11.2-7.8c6.3,9.8,11.6,20.2,16,31l-13,4.6c-3.4,1.2-5.2,5-3.9,8.4,1,2.7,3.5,4.4,6.2,4.4s1.5,0,2.2-.3l12.9-4.6c3.5,11,5.9,22.4,7.2,34.2l-13.9,1.1c-3.6.3-6.3,3.5-5.9,7.1.3,3.4,3.1,6,6.6,6h.5l13.9-1.1c0,2.6.2,5.2.2,7.8,0,9.1-.7,18.1-2,27l-13-2.4c-3.6-.6-7,1.7-7.6,5.2-.6,3.6,1.7,7,5.2,7.6l12.9,2.4c-3,13.4-7.4,26.4-13.4,38.7l-25.6-13.6c-3.2-1.7-7.2-.4-8.8,2.8s-.4,7.2,2.8,8.8l31.4,16.4c1,.5,2,.8,3.1.8,2.4,0,4.6-1.3,5.8-3.5,14.5-27.7,22.2-59,22.2-90.5,0-52.2-20.3-101.2-57.2-138.2h0Z"/>
  </g>
</svg>