<?xml version="1.0" encoding="UTF-8"?>
<svg id="Capa_1" data-name="Capa 1" xmlns="http://www.w3.org/2000/svg" version="1.1" viewBox="0 0 512 512">
  <defs>
    <style>
      .cls-1 {
        fill: #2d4739;
      }

      .cls-1, .cls-2 {
        stroke-width: 0px;
      }

      .cls-2 {
        fill: #b0cab0;
      }
    </style>
  </defs>
  <g>
    <path class="cls-2" d="M376.4,320.5v-.2c-.2-.1-.3-.2-.5-.3,0,.1.2.2.2.3,0,0,.2.3.2.2,0,0,0,0,0,0,0,0,0,0,0,0,0,0,0,0,0,0Z"/>
    <path class="cls-2" d="M376.4,320.6s0,0,0,0c0,0,0,0,0,0Z"/>
    <path class="cls-2" d="M101,306.7c-.1,0-.3,0-.5,0,.2,0,.3,0,.5,0Z"/>
    <path class="cls-2" d="M215.2,445.5c0,0,.2,0,.2,0,0,0-.1,0-.2,0Z"/>
    <path class="cls-2" d="M318.1,437.4c0,0-.1,0-.2,0,0,0,.1,0,.2,0Z"/>
    <path class="cls-2" d="M100.5,304.9c0,0-.2.2-.3.3.1-.1.2-.2.3-.3Z"/>
    <path class="cls-2" d="M456,336.9c.2-1.7.4-3.6-.2-2.2-1.2-5.9-1.2-12.2-1.9-18.4-.7-6.1-2.3-12.1-5.5-16.3-1,0-6,0-13,.7-6.9.6-15.6,2-24.1,4.3-8.4,2.3-16.4,5.5-22.4,8.4-6,2.9-10.1,5.5-11.1,6.1,0,0,0,0,0,0h0s0,0,0,0h0c-.2-.4-.3-.7-.4-.9-.3-.5-.4-1-.4-1.3-.3.5-.2,1.4.1,2.2.3.6,0,.3.1.4,0,0,.1,0,.3,0l2.2-1.2c1.1.2-1.2.8-.8,1.2-1.9.8-2.4.7-2.7.7,0,.3-1.4,1,.7.2-.3.3-.9.5-1.5.7-.6.2-1.2.5-1.6.6.3-.1.9-.3,1.4-.3.4,0,.7,0,0,.1h-.4c-1.1.2-.3.1.6.3.4,0,.8.2,1,.3.2,0,0,.2-.5.1l-.7-.2c-.6,0-.5,0-.4,0,0,0,.1.2-.5,0,.4.2,1.8.7,2,.9-.7-.2-.7-.1-.8,0,0,0-.2,0-.9-.4.5.4,1,.9,1.4,1.4,0,0-.2,0-.2.1,0,0,0,0,0,0h-.1c-.2.3-.4.4-.6.6-.2.2-.4.4-.6.6-.2.2-.5.4-.7.6-.5.4-1.1.9-1.6,1.4-.6.5-1.2,1-1.9,1.6-1.5,1.2-3.1,2.5-4.7,3.9-6.8,5.6-14,11.4-20.4,15.8-3.2,2.2-6.2,4-8.9,5.4-2.7,1.4-5.1,2.4-7.3,3.2-4.5,1.6-9.7,2.4-12.9,2.8l.5-.4c-4.8.7-11.7,1.2-20.7,1.4-9.2.3-19.3.5-29.1.7-9.8.2-19.5.3-28.2.3-4.3,0-8.5,0-12.3,0-1.9,0-3.7,0-5.5,0-1.6,0-3.2,0-4.7,0-3.3-2.3-7.6-2.4-10.3-3.5,1.4,1.1.6,2.4-.6,2-2.2-.5-3.1-.7-3.7-.7-.6,0-.7.2-.8.4-.1.2-.3.5-.9.5-.3,0-.7,0-1.3,0-.5,0-1.2-.2-2-.4-2-.3-4.8-1.3-6.7-2.8-1-.9-2.1-1.8-3.1-3.3-1-1.4-2-3.1-2.8-5.2-.8-2-1.4-4.3-1.9-6.5-.3-2.3-.6-4.6-.5-6.7,0-1,.1-2.1.1-3,.1-.9.2-1.8.4-2.6.2-.8.3-1.5.5-2.1.2-.7.4-1.3.5-1.8-.1-.3-.3-.6-.4-.9,0-.3-.2-.6-.2-.9,0-.3-.1-.6-.1-.9v-.5s0-.2,0-.2h0c0-.2,0-.2,0-.3.3-1.7.7-3.4,1.1-5l.3-1.3c.1-.4.2-.8.4-1.3l1-2.7,1-2.7c.4-.9.7-1.8,1.1-2.7.9-1.8,1.8-3.6,2.6-5.3.2-.4.4-.9.6-1.3.2-.4.5-.9.7-1.3.5-.9.9-1.8,1.4-2.6.9-1.7,1.7-3.4,2.4-5v1.2c.9-1.8,2.6-4.6,4.7-8.2,1-1.8,2.1-3.8,3.3-6,1.3-2.2,2.4-4.4,3.6-6.8.6-1.2,1.3-2.4,1.8-3.7.5-1.2,1-2.4,1.5-3.6.5-1.2,1-2.5,1.5-3.7.3-1.1.6-2.2.9-3.3.1-.6.3-1.1.4-1.7l.2-.9v-.4c.1,0,.1-.4.1-.4,0-.9,0-1.9,0-2.8v-1.4c0-.2,0-.5,0-.7l-.2-.5c-.2-.7-.5-1.5-.7-2.2l-.4-1.1c-.2-.3-.4-.5-.6-.8-.4-.5-.8-1-1.3-1.6-.4-.6-.9-.9-1.5-1.2-.5-.3-1-.7-1.6-1-.3-.2-.5-.3-.8-.4-.3-.1-.5-.2-.8-.3-.5-.2-1.1-.4-1.6-.6h-.2c0-.1,0-.2,0-.3v-.5c-.1-.4-.2-.7-.2-1.1-.2-.7-.3-1.3-.5-2-.6-2-1.6-3.6-2.7-4.8l10.3-12.7-56.3-9.9c-6.2-1.1-13.2-1.6-20.1-.9-3.5.3-7,1-10.3,2-3.4,1-6.6,2.2-9.6,3.8-4.3-.2-8.8,0-13.4.5-.5.4-.9.9-1.4,1.3,0,0,.7,4,2.6,9.8.7,2.1,1.5,4.4,2.5,6.9-2.1,3.1-4.3,6.1-6.4,9.2l-.5.7-.2.4-.4.6-.5.8c-.7,1.1-1.2,2.2-1.8,3.2-.6,1.1-1,2.1-1.5,3.2-.5,1.1-.9,2.2-1.3,3.3-.4,1.2-.8,2.4-1.2,3.6-.8,2.6-1.4,5.3-1.9,8.9-.1.9-.2,1.8-.3,2.7,0,1.1-.1,2.1-.1,3.2v1.6c0,.6,0,1.3,0,1.9,0,1.3.2,2.6.4,3.9l.2,1.1.2,1.2c.1.8.3,1.6.5,2.3s.4,1.6.6,2.3c.2.9.6,1.8.9,2.7.3.9.7,1.8,1,2.7l.6,1.3c.2.5.4.8.6,1.4,1,2,2.1,4,3.4,5.8.3.5.6.9,1,1.4.2.3.2.3.3.4l.3.3,1,1.1,1,1.1.3.4c0,0-.1,0-.2.2,0,0,.1-.1.2-.2h0s0,0,0,0c0,0,0,0,0,0,.1,0,.2-.2.2-.3,0,0,.1,0,.2,0,.4-.2.9-.5,1.3-.7-1,.8-2.5,1.8-3.6,2.6.5-.4.9-.6,1.3-.8.3-.1.4-.2.5-.1,0,.1-.2.5-.4.5l3.8-1.3c-.1.3-1.2.6-2.1.9-1,.3-1.8.5-1.4.5,2.5-.5,2.3-.2,1.8,0-.5.2-1.2.3,0,.4-.3,0-.5.2-1.5,0,1.7.2,0,.5.5.9.6.3.7,0,1.5,0l.2.3c0,0,0,0,0,.2v.8s-.2,3.4-.2,3.4c-1.2,2.5-2.7,2.9-2.5,0-.1.5-.2,1.2-.4,1.8-.1.7-.2,1.4-.4,2.2-.1.8-.3,1.7-.4,2.6-.1.9-.3,1.9-.4,3-.5,4.4-.9,9.6-.8,15.4,0,1.4,0,2.9,0,4.4,0,1.5.2,3.1.3,4.6.2,3.1.7,6.4,1.2,9.7,1.2,6.7,2.8,13.6,5.3,20.5,2.5,6.9,5.6,13.8,9.6,20.2,3.9,6.4,8.3,12.3,13.2,17.3,4.7,5.1,9.7,9.2,14.2,12.3,1.1.8,2.2,1.5,3.2,2.1,1,.6,2,1.2,2.9,1.8,1.8,1,3.4,1.9,4.7,2.5-.9-1.6-3-2.9-5-4.6-1-.8-2-1.7-2.7-2.6-.8-.9-1.3-1.9-1.4-2.9.8.3,1.4.6,2,.9.6.3,1.2.6,1.7.9,1,.6,1.8,1.2,2.6,1.8,1.5,1.1,2.6,1.8,4.2,1.8,0,2.5,2.7,4.3,5.8,6,1.5.8,3.1,1.7,4.5,2.7,1.3.9,2.5,2,3.1,3.5.8-.6,1.6-1.2,2.3-1.8l2.1,2.3c5.9,1.3,9,1.5,10.9,1.8,1.8.2,2.3.2,2.8.4.4.1.8.4,2.2.8.7.2,1.6.5,3,.8,1.3.3,3,.7,5.3,1.1,5.1.6,8.7,0,11.8-.4,1.5-.2,2.8-.4,4.1-.5,1.2,0,2.3,0,3.4.4-.8-.3-2.1-1.7,0-2.1.2,2.2,6-1.1,6.9,1.1,2.2-.1,9,.5,6.9-2.6,1.1,1.5,7.2,2.4,3.5,3.5,2.1.2,4.1.7,5.6,0l-2.6-.9c7-.2,10.7,2.2,15.2-.4l-2.5-1.2c4.1,0,7.5-.3,9.1,2.7l-4.2.8c6.8,0,10.8-.1,16.4-1.7h-2c3.5-1.5,14.5-2.9,25.1-4.4,5.3-.8,10.8-1.5,15.6-2.5,4.8-.9,8.7-2,10.5-3-1.2-.7-2.3-1.4-3.5-2.1,2-.7,4.1-1.5,6.1-2.3-.7,0-2.2,6.3-3,6.9,3.5-.3,10.5-.9,19.9-2.8,4.8-1,10.3-2.3,15.9-4.2,5.7-1.9,11.3-4.2,16.5-6.8,5.2-2.6,10.2-5.4,14.6-8.1,4.4-2.7,8.4-5.4,11.8-7.8,6.9-4.8,11.8-8.5,14.3-9.9,4.3-1.8,2.8,2.3,3,2.7,3.8-4,.4-3.4,4.1-6,1.2-.4.9,1.6.5,2.2.4-.4.7-.7,1.1-.9.4-.3.8-.6,1.1-.8.6-.5,1-.9.8-1.3-2.6,1-3.5-1.9-5.5-2.6l2.5-1.9,2.6-2,.9,1.6c.6-.4.6-2,1.1-3.9.3-.9.7-2,1.4-3,.2-.3.4-.5.6-.8.3-.3.5-.6.9-.9.7-.7,1.5-1.4,2.4-2.1,6-5,11.5-11.1,15.8-17.9,4.4-6.8,7.6-14.2,9.5-21.6,1,.4.8,3.8.4,7.1.4-1,.7-2.3,1.1-3.6.2-.6.4-1.2.7-1.8.2-.6.5-1.1.7-1.6-1.3,1.7-1.3,0-1.1-1.7ZM198.7,228.1c.2,0,.4.1.5.2.2.1.2.3-.6.3-.2,0-.6,0-1,0,0,0-.1,0-.2-.1,0,0,0,0,0,0l.7-.6c.2,0,.4,0,.7.2ZM193.1,223.8c0-.2.2-.3.4-.4.2-.1.3-.3.5-.4.1-.1.5-.2.8-.4-1.4,1.1-2.3,2-2.6,2.8.1-.4.3-.8.6-1.2,0-.1.2-.3.3-.4ZM192,225.9c0-.1,0-.3.1-.4-.2.5-.1.9.2,1.3.3.3.7.6,1.2.9-.4-.1-.7-.3-.9-.4-.3-.2-.5-.4-.6-.6,0-.2-.2-.5,0-.7Z"/>
  </g>
  <path class="cls-1" d="M256,64.5c-59.1,0-107.3,48.1-107.3,107.3v52.5c0,3.6,2.9,6.5,6.5,6.5h36c3.6,0,6.5-2.9,6.5-6.5v-52.5c0-32.2,26.2-58.4,58.4-58.4s58.4,26.2,58.4,58.4v52.5c0,3.6,2.9,6.5,6.5,6.5h36c3.6,0,6.5-2.9,6.5-6.5v-52.5c-.1-59.2-48.3-107.3-107.4-107.3ZM350.3,217.8h-23v-46c0-39.3-31.9-71.3-71.3-71.3s-71.3,31.9-71.3,71.3v46h-23v-46c0-52,42.3-94.3,94.3-94.3s94.3,42.3,94.3,94.3v46h0Z"/>
  <path class="cls-1" d="M371.7,217.8h-231.4c-15.3,0-27.8,12.5-27.8,27.8v174.1c0,15.3,12.5,27.8,27.8,27.8h231.4c15.3,0,27.8-12.5,27.8-27.8v-174.1c0-15.3-12.6-27.8-27.9-27.8ZM386.6,419.7c0,8.2-6.7,14.9-14.9,14.9h-231.4c-8.2,0-14.9-6.7-14.9-14.9v-174.1c0-8.2,6.7-14.9,14.9-14.9h231.4c8.2,0,14.9,6.7,14.9,14.9v174.1h0Z"/>
  <path class="cls-1" d="M277.8,341.1c7.6-6.4,12-15.7,12-25.7,0-18.6-15.1-33.7-33.7-33.7s-33.7,15.1-33.7,33.7,4.4,19.3,12,25.7l-7.3,34.7c-.4,1.9,0,3.9,1.3,5.4,1.2,1.5,3.1,2.4,5,2.4h45.4c1.9,0,3.8-.9,5-2.4s1.7-3.5,1.3-5.4l-7.3-34.7ZM267.2,332.9c-2.2,1.4-3.4,4.2-2.8,6.8l6.5,31h-29.5l6.5-31c.5-2.6-.6-5.3-2.8-6.8-6.1-3.9-9.7-10.4-9.7-17.5,0-11.4,9.4-20.8,20.8-20.8s20.8,9.4,20.8,20.8c-.1,7.1-3.7,13.7-9.8,17.5Z"/>
</svg>