<?xml version="1.0" encoding="UTF-8"?>
<svg id="Layer_1" data-name="Layer 1" xmlns="http://www.w3.org/2000/svg" version="1.1" viewBox="0 0 512 512">
  <defs>
    <style>
      .cls-1 {
        fill: #2d4739;
      }

      .cls-1, .cls-2 {
        stroke-width: 0px;
      }

      .cls-2 {
        fill: #b0cab0;
      }
    </style>
  </defs>
  <g>
    <path class="cls-2" d="M363,197.1h-.2c-.1-.2-.2-.3-.3-.4,0,0,.2.2.3.3,0,0,.2.2.2.2,0,0,0,0,0,0,0,0,0,0,0,0,0,0,0,0,0,0Z"/>
    <path class="cls-2" d="M363,197.1s0,0,0,0c0,0,0,0,0,0Z"/>
    <path class="cls-2" d="M62.8,184.1c-.2,0-.3,0-.5,0,.2,0,.4,0,.5,0Z"/>
    <path class="cls-2" d="M187.3,314c0,0,.2,0,.2,0,0,0-.2,0-.2,0Z"/>
    <path class="cls-2" d="M299.5,306.4c0,0-.2,0-.2,0,0,0,.1,0,.2,0Z"/>
    <path class="cls-2" d="M62.3,182.4c-.1,0-.2.2-.4.3.2-.1.3-.2.4-.3Z"/>
    <path class="cls-2" d="M449.8,212.3c.2-1.6.4-3.3-.2-2-1.3-5.5-1.3-11.4-2.1-17.2-.8-5.7-2.5-11.4-6-15.2-1.1,0-6.6,0-14.1.6-7.5.6-17,1.8-26.2,4-9.2,2.1-17.9,5.1-24.4,7.9-6.5,2.7-11,5.1-12.1,5.7,0,0,0,0,0,0h0s0,0,0,0h0c-.2-.4-.3-.6-.5-.9-.3-.5-.5-.9-.4-1.2-.4.4-.2,1.3.2,2.1.3.6,0,.3.2.4,0,0,.1,0,.3,0l2.4-1.1c1.2.1-1.3.8-.9,1.1-2.1.7-2.7.7-3,.6,0,.3-1.5.9.8.2-.4.2-1,.4-1.7.6-.6.2-1.3.4-1.7.6.3,0,1-.3,1.5-.3.5,0,.7,0,0,.1h-.4c-1.2.2-.3.1.6.3.4,0,.9.2,1,.2.2,0,.1.2-.5.1l-.8-.2c-.7,0-.6,0-.5,0,0,0,.1.2-.5,0,.4.2,2,.7,2.2.9-.7-.2-.8-.1-.9,0,0,0-.2,0-.9-.4.6.4,1.1.8,1.5,1.3,0,0-.2,0-.2.1,0,0,0,0,0,0h-.2c-.2.3-.4.4-.6.6-.2.2-.5.3-.7.5-.3.2-.5.4-.8.6-.6.4-1.2.8-1.8,1.3-.7.5-1.4,1-2.1,1.5-1.6,1.2-3.4,2.4-5.2,3.7-7.4,5.2-15.2,10.7-22.2,14.8-3.5,2-6.8,3.8-9.7,5.1-3,1.3-5.5,2.3-7.9,3-4.9,1.5-10.6,2.3-14.1,2.6l.5-.3c-5.2.7-12.7,1.1-22.6,1.3-10,.2-21,.5-31.7.7-10.7.2-21.2.3-30.8.3-4.7,0-9.2,0-13.4,0-2.1,0-4.1,0-5.9,0-1.8,0-3.5,0-5.1,0-3.6-2.1-8.3-2.3-11.2-3.3,1.5,1,.7,2.2-.7,1.9-2.3-.5-3.4-.7-4-.7-.6,0-.7.2-.9.4-.1.2-.3.4-.9.5-.3,0-.7,0-1.4,0-.6,0-1.3-.1-2.2-.3-2.2-.2-5.2-1.2-7.3-2.7-1.1-.8-2.3-1.7-3.4-3.1-1.1-1.3-2.2-2.9-3.1-4.8-.9-1.9-1.6-4-2-6.1-.4-2.2-.6-4.3-.6-6.3,0-1,.1-1.9.1-2.8.2-.9.2-1.7.4-2.4.2-.7.3-1.4.5-1.9.2-.6.4-1.2.6-1.7-.2-.3-.3-.6-.4-.8,0-.3-.2-.6-.2-.9,0-.3-.1-.6-.1-.9v-.4s0-.2,0-.2h0c0-.1,0-.2,0-.3.4-1.6.8-3.1,1.2-4.7l.3-1.2c.1-.4.2-.8.4-1.2l1.1-2.5,1.1-2.5c.4-.8.7-1.7,1.2-2.5,1-1.7,1.9-3.4,2.8-5,.2-.4.4-.8.7-1.2.2-.4.5-.8.8-1.2.5-.8,1-1.6,1.5-2.4,1-1.6,1.8-3.1,2.6-4.7v1.1c1-1.6,2.8-4.3,5.1-7.7,1.1-1.7,2.3-3.6,3.6-5.6,1.4-2.1,2.6-4.1,3.9-6.4.6-1.1,1.4-2.3,2-3.4.5-1.1,1.1-2.2,1.6-3.3.5-1.1,1.1-2.3,1.6-3.5.3-1,.6-2.1.9-3.1.2-.5.3-1.1.5-1.6l.2-.8v-.4c.1,0,.1-.3.1-.3,0-.9,0-1.8,0-2.7v-1.3c0-.2,0-.5,0-.7l-.2-.5c-.3-.7-.5-1.4-.8-2.1l-.4-1c-.2-.3-.4-.5-.7-.8-.5-.5-.9-1-1.4-1.5-.4-.6-1-.8-1.6-1.1-.6-.3-1.1-.6-1.7-.9-.3-.2-.6-.3-.9-.4-.3,0-.6-.2-.9-.3-.6-.2-1.2-.4-1.7-.6h-.2c0-.1,0-.2,0-.3v-.5c-.1-.3-.2-.7-.3-1-.2-.6-.4-1.3-.6-1.9-.7-1.9-1.8-3.3-2.9-4.5l11.3-11.9-61.4-9.2c-6.8-1-14.4-1.5-22-.8-3.8.3-7.6,1-11.3,1.8-3.7.9-7.2,2.1-10.4,3.6-4.7-.2-9.6,0-14.6.5-.5.4-1,.8-1.5,1.3,0,0,.8,3.7,2.8,9.1.7,2,1.7,4.2,2.7,6.5-2.3,2.9-4.7,5.7-7,8.6l-.5.7-.3.3-.4.6-.5.8c-.7,1-1.3,2-1.9,3-.6,1-1.1,2-1.7,3-.5,1-1,2.1-1.5,3.1-.5,1.1-.9,2.2-1.3,3.4-.8,2.5-1.5,5-2,8.4-.1.8-.2,1.7-.3,2.5,0,1-.1,2-.1,3v1.5c0,.5,0,1.2,0,1.8,0,1.2.2,2.4.4,3.6l.2,1,.2,1.1c.2.7.3,1.5.5,2.2s.4,1.5.6,2.2c.3.8.6,1.7,1,2.6.4.9.7,1.7,1.1,2.5l.6,1.2c.2.4.4.8.7,1.3,1.1,1.9,2.3,3.7,3.7,5.5.3.4.7.9,1.1,1.3.2.3.3.3.4.4l.3.3,1.1,1.1,1.1,1.1.4.3c0,0-.1,0-.2.1,0,0,.1,0,.2-.1h0s0,0,0,0c0,0,0,0,0,0,.1,0,.2-.1.3-.3,0,0,.1,0,.2,0,.5-.2,1-.4,1.4-.6-1.1.7-2.7,1.7-3.9,2.4.6-.3,1-.6,1.5-.8.3-.1.5-.2.5-.1,0,.1-.2.4-.4.5l4.1-1.2c-.1.3-1.3.6-2.3.9-1,.3-1.9.5-1.5.5,2.7-.5,2.5-.2,2,0-.5.2-1.3.3,0,.4-.4,0-.6.1-1.6,0,1.9.2,0,.4.6.8.7.3.8,0,1.6,0l.2.3c0,0,0,0,0,.2v.8s-.2,3.2-.2,3.2c-1.3,2.3-3,2.7-2.8,0-.1.5-.3,1.1-.4,1.7-.1.6-.3,1.3-.4,2.1-.1.8-.3,1.6-.4,2.4-.2.9-.3,1.8-.4,2.8-.5,4.1-1,9-.9,14.4,0,1.4,0,2.7.1,4.2,0,1.4.2,2.9.4,4.3.2,2.9.8,6,1.3,9.1,1.3,6.2,3.1,12.7,5.8,19.2,2.8,6.5,6.1,12.9,10.4,18.9,4.3,6,9.1,11.5,14.4,16.2,5.1,4.7,10.6,8.6,15.5,11.5,1.2.8,2.4,1.4,3.5,2,1.1.6,2.2,1.2,3.1,1.7,2,1,3.7,1.7,5.2,2.4-1-1.5-3.3-2.7-5.5-4.3-1.1-.8-2.2-1.6-3-2.4-.8-.8-1.4-1.8-1.5-2.7.8.3,1.6.6,2.2.9.7.3,1.3.6,1.8.8,1.1.6,2,1.1,2.8,1.7,1.6,1,2.8,1.7,4.6,1.6,0,2.3,3,4,6.3,5.6,1.7.8,3.4,1.6,4.9,2.5,1.5.9,2.7,1.9,3.4,3.2.9-.5,1.7-1.1,2.6-1.7l2.3,2.2c6.5,1.2,9.8,1.4,11.9,1.7,2,.2,2.6.2,3.1.4.5.1.9.4,2.4.8.8.2,1.8.5,3.3.8,1.5.3,3.3.7,5.7,1.1,5.6.6,9.5,0,12.8-.4,1.6-.2,3.1-.4,4.4-.4,1.3,0,2.5,0,3.7.4-.9-.3-2.3-1.6,0-2,.3,2,6.5-1,7.5,1,2.4-.1,9.9.5,7.5-2.4,1.2,1.4,7.8,2.2,3.8,3.3,2.3.2,4.4.7,6.1,0l-2.8-.9c7.6-.2,11.6,2.1,16.5-.4l-2.7-1.1c4.5,0,8.2-.3,9.9,2.5l-4.6.8c7.4,0,11.8-.1,17.8-1.6h-2.2c3.9-1.4,15.8-2.7,27.3-4.1,5.7-.7,11.8-1.4,17-2.3,5.2-.9,9.5-1.9,11.5-2.8-1.3-.6-2.5-1.3-3.8-1.9,2.2-.7,4.4-1.4,6.6-2.2-.7,0-2.4,5.9-3.3,6.4,3.8-.3,11.4-.8,21.7-2.6,5.2-.9,11.2-2.2,17.4-4,6.2-1.8,12.3-4,18-6.4,5.7-2.4,11.1-5,15.9-7.6,4.8-2.6,9.1-5.1,12.9-7.3,7.5-4.5,12.9-7.9,15.6-9.2,4.7-1.7,3.1,2.2,3.3,2.5,4.2-3.8.4-3.1,4.5-5.6,1.3-.4,1,1.5.6,2.1.4-.3.8-.6,1.2-.9.4-.3.9-.5,1.2-.7.7-.4,1.1-.8.8-1.2-2.9,1-3.8-1.8-6-2.4l2.8-1.7,2.9-1.8,1,1.5c.6-.4.6-1.9,1.2-3.6.3-.9.7-1.8,1.5-2.8.2-.2.4-.5.7-.7.3-.3.6-.6,1-.9.8-.6,1.6-1.3,2.6-1.9,6.5-4.7,12.5-10.4,17.3-16.8,4.7-6.3,8.3-13.3,10.3-20.3,1.1.4.9,3.5.4,6.6.4-.9.8-2.2,1.2-3.3.2-.6.5-1.2.7-1.7.2-.5.5-1,.8-1.5-1.4,1.6-1.4,0-1.2-1.6ZM169.3,110.5c.2,0,.4.1.5.2.2.1.3.2-.6.3-.3,0-.6,0-1.1,0,0,0-.1,0-.2-.1,0,0,0,0,0,0l.7-.5c.3,0,.5,0,.7.1ZM163.2,106.5c0-.1.3-.3.5-.4.2-.1.4-.2.6-.4.1-.1.5-.2.9-.3-1.5,1.1-2.5,1.9-2.9,2.6.1-.4.3-.8.7-1.1,0-.1.2-.3.3-.4ZM162,108.5c0-.1,0-.3.1-.4-.2.4-.2.8.2,1.2.3.3.8.6,1.4.8-.4-.1-.7-.3-1-.4-.4-.2-.5-.4-.6-.6,0-.2-.2-.5,0-.7Z"/>
  </g>
  <g>
    <path class="cls-1" d="M476,184h-4v-76c0-15.5-12.5-28-28-28H68c-15.5,0-28,12.5-28,28v124h-4c-15.5,0-28,12.5-28,28v136c0,15.5,12.5,28,28,28h72c15.5,0,28-12.5,28-28v-28h69.8l-4,16h-17.8c-4.4,0-8,3.6-8,8v24c0,4.4,3.6,8,8,8h144c4.4,0,8-3.6,8-8v-24c0-4.4-3.6-8-8-8h-17.8l-4-16h37.8v28c0,15.5,12.5,28,28,28h104c15.5,0,28-12.5,28-28v-184c0-15.5-12.5-28-28-28ZM120,396c0,6.6-5.4,12-12,12H36c-6.6,0-12-5.4-12-12v-136c0-6.6,5.4-12,12-12h6.2l6.2,18.5c1.1,3.3,4.1,5.5,7.6,5.5h32c3.4,0,6.5-2.2,7.6-5.5l6.2-18.5h6.2c6.6,0,12,5.4,12,12,0,0,0,136,0,136ZM59.1,248h25.8l-2.7,8h-20.4l-2.7-8ZM320,400v8h-128v-8h128ZM218.2,384l4-16h67.5l4,16h-75.5ZM344,352h-208v-32h208v32ZM344,212v92h-208v-44c0-15.5-12.5-28-28-28h-52v-124c0-6.6,5.4-12,12-12h376c6.6,0,12,5.4,12,12v76h-84c-15.5,0-28,12.5-28,28ZM436.9,200l-2.7,8h-20.5l-2.7-8h25.9ZM488,396c0,6.6-5.4,12-12,12h-104c-6.6,0-12-5.4-12-12v-184c0-6.6,5.4-12,12-12h22.2l6.2,18.5c1.1,3.3,4.1,5.5,7.6,5.5h32c3.4,0,6.5-2.2,7.6-5.5l6.2-18.5h22.2c6.6,0,12,5.4,12,12v184Z"/>
    <path class="cls-1" d="M440,384h-32c-4.4,0-8,3.6-8,8s3.6,8,8,8h32c4.4,0,8-3.6,8-8s-3.6-8-8-8Z"/>
    <path class="cls-1" d="M88,384h-32c-4.4,0-8,3.6-8,8s3.6,8,8,8h32c4.4,0,8-3.6,8-8s-3.6-8-8-8Z"/>
    <path class="cls-1" d="M264,328h-16c-4.4,0-8,3.6-8,8s3.6,8,8,8h16c4.4,0,8-3.6,8-8s-3.6-8-8-8Z"/>
  </g>
</svg>