<?xml version="1.0" encoding="UTF-8"?>
<svg id="Layer_5" data-name="Layer 5" xmlns="http://www.w3.org/2000/svg" version="1.1" viewBox="0 0 512 512">
  <defs>
    <style>
      .cls-1 {
        fill: #2d4739;
      }

      .cls-1, .cls-2 {
        stroke-width: 0px;
      }

      .cls-2 {
        fill: #bad1ba;
      }
    </style>
  </defs>
  <g>
    <path class="cls-2" d="M147.3,178.8c-.1-.2-.3,0,0,0h0Z"/>
    <path class="cls-2" d="M96.1,295.4c0,0,0,0-.1,0-.1.6-.3,1.1-.4,1.5l.5-1.5Z"/>
    <path class="cls-2" d="M73.1,288.5c0,0,0-.1-.1-.2,0,.4-.2.7.1.2Z"/>
    <path class="cls-2" d="M153.2,277.6c.2-.1.3-.3.2-.5,0,.2-.1.4-.2.5Z"/>
    <path class="cls-2" d="M104.4,168.4s0,0,.1,0c0-.1-.1-.2-.2-.4v.4Z"/>
    <path class="cls-2" d="M105,167.4c.5.5-.3.8-.5.9.5.9,1,1,1.7.7.1-.9-1-.9-1.2-1.6Z"/>
    <path class="cls-2" d="M29.8,186.1v-.4c0,.1,0,.3,0,.4Z"/>
    <path class="cls-2" d="M127.8,239.8c0,0,0-.2,0-.3,0,0,0,.1,0,.3Z"/>
    <path class="cls-2" d="M41.1,181.3l-.5-1.4c.1.6.3,1,.5,1.4Z"/>
    <path class="cls-2" d="M95.5,296.9l-.2.6c0-.1.1-.3.2-.6Z"/>
    <path class="cls-2" d="M52.5,281.6c.1-.4.2-.8.3-1.1,0,0,0,0,0,0l-.2,1.1Z"/>
    <path class="cls-2" d="M24.7,195c0-.2-.2-.3-.3-.5,0,.4.1.7.2,1.1,0-.2.1-.4,0-.6Z"/>
    <path class="cls-2" d="M29.2,262.9c-.1.1-.3.2-.4.4.2.7,1.2,1.5,2.7,2.3l1-1.5c-1.1-.4-2.2-.7-3.3-1.2Z"/>
    <path class="cls-2" d="M43.9,219.6c-1,.8-1.9,1.7-2.8,2.5-.8-.7-1.3-1.6-1.5-2.6-.3-1-.4-2.1-.5-3.2-.2-2-.3-3.6-1.9-4.9h.8c.2,0-.2,0-.7-.2-.5-.1-1.1-.3-1.5-.6-.4-.3-.4-.7.3-.9.2,0,.4,0,.6,0h.2s.1,0,.1,0h0s0,0,0,0c-.2,0-.4-.1-.7-.2-.5-.2-.8-.2-1.2-.4-.2,0-.2,0-.4-.2-1.6-.8-3.2-1.5-4.9-2.3.1,0,.2.1.3.2.2.1.2.1.6.4l-.5-.3c0,0-.2-.1-.3-.2h-.2c0,0,4.8,2.2,4.8,2.2-1.6-.8-3.2-1.5-4.8-2.3h.1c0,0,.3.2.3.2.2,0,.3.2.5.3.3.2.6.4.9.6,0,0,.1.1.1.1.3.3.4.4.2.2,0,0-.1-.2-.2-.3-.1-.2-.2-.3-.3-.5,0-.2-.3-.5-.6-1.7.2.9-.3-1.2-.2-.9,0-.1,0-.4,0-.6,0-.3,0-.8,0-1.1,0-.1,0-.4,0-.5,0-.1,0-.2,0-.4,0,0,0-.1,0-.2,0,0,0-.2,0,0,0,0,0,0,0,0,0,0,0,0,0,0,0,0,0,.1,0,.2,0,0,0,.2,0,.2,0,.1,0,.2,0,.3v.2c0-.1,0-.3,0-.4,0-.3,0-.6-.1-.9-.1-.6-.3-1.2-.6-1.7-.1-.3-.3-.5-.5-.8-.2-.2-.4-.5-.5-.7-.4-.5-.7-.9-1.1-1.3,2,.4.4-.6-.4-1.5l.2.9c-1.4-.4-2.4-2.2-3.4-2.4,0,.2.2.3.3.5v-.3c.2.3.3.6.3.8.2.4.4.7,0,.8v-.2c-.2.3-.6.5-.9.7-.3.2-.7.3-1,.4l-1.1-1.4c.6,1.8-1.6,1.8-4.3,2.7-.7.2-1.4.5-2.1.8-.7.3-1.4.7-1.9,1-1.2.7-2,1.4-2.2,1.9-.7.3-1.1.8-1.3,1.3-.2.6-.2,1.2-.2,1.8,0,.6.1,1.3,0,1.9,0,.6,0,1.2-.4,1.8-.4,2-1,2.5-1.8,2.7-.8.3-1.7.3-2.4,1.4-1,2.7,2.1-.6,2.3.4-.8,1.1-1.5,2.2-2.2,3.3-.4-1.8-1.4-.7-2.1-.3,0,1.4-.6,3.3-.7,4.9-.1,1.6.2,2.8,2.1,2.7-.8,3.8-2.2,4.2-1.9,5.7.5-.7.8-1.8,1.5-2-1.1,1.8.6.5.7-.1,1,.8.2,3.8,0,6.9-.3,3,0,6,1.9,5.4l-.6.3c2.9-.8,5.1-2.8,7.2-2.2l-.7,1.5c.6.3,1.3.5,1.9.7-.3,1.4-1.2,1.4-1.5,1.6,1.3.8,2.1,2.1,2.9,3.6.8,1.5,1.5,3.1,2.5,4.4,1.2-2.7,2.5-5.2,4-7.7,0,1.5,0,3.6.5,5.2.4,1.6,1.1,2.7,2.2,1.8-.3,1-.5,2-.7,3,.2,3.6,1.3,3.7,2.3,3.1,1-.5,2-1.6,2.2-.5,0,1.2.1,2.5.2,3.8-.6-.5-1.3-.9-1.9-1.4,1.1,2.6,1.3,3.9,1.9,6.6,0,0,0,0,0,0,0-.2,0-.3,0-.5h.3c1-.9,2.6-1.2,3.9-.2,1.8,1.6,4.4.5,6.1,5l2.2-2.3,1.6,2.8-1.1,2.2c-2.4-1.3-7.4-3-10.5-4.8l-.6.9c1.8,1.1,4.5,1.4,5.6,2.3.3.8.8,3.8-1.2,4.6l2.3-1.5c3.2,1.5,4.9,2.2,6.5,3.2.8.5,1.5,1.1,2.5,1.9.9.8,2,1.8,3.5,3.1l-.2-1.4c1.7-.1,3.3-.2,3,1.7,4.1,1.9,8.1,4.8,10.2,8.5l1.4-2.5c.9.4,1.2,4.9,2.7,1.2l2.3-.7c1.2.5,2.3-.9,3.5,1h0s0,0,0,0c0,.1.1.2.2.4,0,0,0-.2,0-.2,2.6,1.8.5-2.5,3.5-.2.7,2.2,1.8-3.3,3.3-2.4l.9,4.3c1.3,1.4,2.2,1.1,3.4.5,1.1-.6,2.4-1.4,4.6-1.2,1.9,1.7,2.6,5.2.9,8.1,2.3-3.5,1.1-2.3,3.8-3.9.3,1.6,0,1.9-.7,3.2,2.2,2,1.5-1.3,3.2-1.1.7-2.9,1.5-7.4,2-7.6l-.6-.9c1.8-1.5,3.6-2.1,5.7-.6v1.4c.6-.2,1.4-.5,2.1-.7v1.9c1.2-.2,2.2-.4,3.3-.6l-.4-.5c.7-.3,3.1-1,4.6-.1v1c1.1.7,2.1,1,3,1,1,0,1.9-.3,2.9-.8,1.9-.9,3.8-2.3,6.1-2.9l-.3,2.2c2.1,1.7-.1-3.3,2-2.6l.6,2.5c1-3.7,2.4.2,4,1.1l-1.4-3.1c.8,0,1.6.1,2.5.1,2.8.4,2.8,3.6,2.8,5.5.4-1,.7-2.1,1.1-3.1l1.2,2.7c.3-3.8,1.5,0,3.3-2.5.6,1,.2,1.8,1.2,2,.8-1.8,1.6-3.6,2.3-5.5-.5.9-1,1.8-1.6,2.7l-1.3-4.2c.5-2,1.3-2.2,2.2-2.2.8,0,1.7.3,2.3-.6l-.6,1.7c1.1-1.1,1.9-1.3,2.7-1.2.8.1,1.5.5,2.5.5-.9-.5-2.1-1.2-1.3-2.2.7-.6,1.2,1.1,2.1,1.1-.6-1.3-.7-2.6-.3-3.5.4-.9,1.2-1.4,2.4-1.4.2.4.4.7.4,1,.2-.7,0-1.4,1.1-1.3l1.4,3c0-1.2-.2-2.3-.3-3.5.7,0,1.1-.7,1.4-1.2.3-.5.6-.8,1.2.1l-.2.9c1.3-.8,2.6-1.7,3.8-2.7l1.8-1.4c.6-.5,1.2-1,1.7-1.5l2,1.7c-1-1.6.2-2.2,1.1-3,.9-.7,1.6-1.4-.2-2.7.7,0,1.3-.3,1.8-.9.5-.5.8-1.3,1.2-1.8.7-1.2,1.5-1.9,3.2,0,1.9-2.5,2.2-5.2,2.6-7.9,0-.7.2-1.3.4-2,.1-.7.3-1.4.5-2.1.2-.7.6-1.4.9-2.1.4-.8.8-1.5,1.4-2.4,2.5-.6,3.9-3.1,4.8-6.1.4-1.5.7-3.2.9-4.9.2-1.7.3-3.3.4-4.8-.5-2.8-.9-5.4-1.7-7.7-.7-2.3-1.6-4.5-2.5-6.6-.4-1-1-2-1.5-3.1-.6-1-1.1-2-1.7-3-.6-1-1.3-2-2-3-.4-.5-.7-1-1.1-1.6-.4-.5-.8-1-1.2-1.6.2-1.1.2-2.1,0-3-.2-1-.6-1.9-1.1-2.7-1-1.6-2.5-2.9-4-4-3.1-2.2-6.4-3.7-7.5-6.8-.9.3-1.8.6-2.7.9-.3-2.6-2.3-3.8-4.3-5-2.1-1.1-4.3-2.2-5.4-4.9-1.5.4-2.2.4-2.4.3.1.2.2.7-.5,2.1-.6-1.5-3.5-1.6-2-4.1h.4c.8-1.4-.3-1.6-1.5-1.8-.6,0-1.3-.2-1.8-.5-.5-.2-.9-.6-1-1.4l-.6,3.2-2-1.5.8-.3c-3.2.6-5.4.3-7.4-.3-2-.5-3.6-1.5-5.2-2.5-1.6-1-3.3-1.9-5.2-2.3-1-.2-2-.3-3.1-.3-.6,0-1.2.1-1.8.3-.6.2-1.3.4-1.9.7,2-3.2-2.2,1.4-1.6-2.3-.8-2.6-2-2.6-3.2-1.7-1.2.8-2.5,2.4-3.6,3,0,.2,0,.4-.2.7l-3.3-.9c1.3-2.3.6-1.4-.2-.3-.7,1-1.5,2.1-.4.2-2.1-1.2-4.5-1.7-7.1-2-1.3-.1-2.6-.3-3.9-.3-1.3,0-2.7,0-4,.2-1.3,0-2.7.2-4.1.3-1.4.2-2.7.4-4.1.5-1.3.1-2.7.3-4,.3-1.3.1-2.7.2-4,.2l.6,1.2c-1.3,0-2.7.6-4.1.9-1.4.3-2.6.5-3.8-.2-1.2-.7-2.1.3-2.8,1.5-.7,1.2-1.1,2.7-1.4,2.9-1.5,2.7-4.5-.9-3.6-.9-1,.6-1.8,2.1-2.6,3.4-.9,1.2-1.9,2.3-3.7,1.9-1.2-1.7-2.9,0-4.5,1.6-1.5,1.6-2.9,3.3-3.9,1.2v.4c-1.1-.3-2.2-.1-3.1.3-.9.4-1.7,1.1-2.4,1.9-1.5,1.5-3,3.1-5.6,2.9,0,0-.1-.3-.1-.7-.2,5.6,0,11.1.5,16.3,3.6,3.8,7.1,7.6,10.5,11.5,2,1.2,3.9,2.4,5.7,3.7.9.6,1.8,1.3,2.7,1.9.9.7,1.8,1.4,2.7,2.1l2.6-2.2c.9-.7,1.8-1.3,2.8-2,1.8-1.4,3.9-2.6,5.9-3.9,1,0,2,.2,3,.3l3,.4c2,.3,3.9.8,5.8,1.2,8.3-2.2,17.2-2.9,25.9-2.2.8-1.1,1.6-2.1,2.4-3.1,1,1.8,2.3,2.7,3.6,3.2,1.3.6,2.8.9,4.3,1,2.9.5,6.2.9,7.8,4l1.3-2.7c1.5.5.7,2.1.8,2.7,1.6.7,3.2,1.5,4.9,2.1,1.6.7,3.1,1.4,4.4,2.1,1.3.7,2.4,1.4,3.4,2,.5.3.9.6,1.2.9l.9.7c.8.6,1.3,1.6,1.3,2.5,0,.1,0,.2,0,.4,0,.1,0,.2,0,.3,0,.1-.1.2-.2.3,0,.1,0,.2-.2.3,0,0-.2.2-.3.4,0,.1-.3.3-.4.4-.1.1-.2.3-.4.4l-.5.4c-.5,0-.8,0-1.1.2-.3.1-.4.4-.7.5-.2.2-.5.4-.7.5-.3,0-.7,0-1.2,0,1.1,1.7,1.1,3.3.5,4.4-.1.3-.3.5-.5.7-.2.2-.4.5-.6.6l-.6.5c-.3.2-.6.3-.9.5v-.3c-.3.4-.6.8-.9,1.2-.2-.2-.4-.5-.4-.7,0,.8-.2,1.3-.6,1.6-.4.3-.9.5-1.5.5-1.2,0-2.7-.4-3.8-.6v-.4c-5.9,1.7-13.5,3.6-22.1,3.9-8.6.4-17.4-.8-25.1-5.3-3.1-3.5-7.1-4.5-11.4-5.8-1-.3-2.1-.7-3.1-1.1-1-.4-2.1-.8-3-1.4-1.9-1.1-3.7-2.5-5-4.5,0-.8-.8-1.9-1.8-2.9-1.1-1-2.2-1.9-3-2.5-.4-.3-.7-.5-1-.6-.2,0-.5-.1-.8-.3-.6-.3-1.3-.9-1.7-1Z"/>
    <path class="cls-2" d="M31.8,208h0s0,0,0,0Z"/>
    <path class="cls-2" d="M18.2,249.4c0,0,0-.1-.1-.2l-.8,1.8.9-1.6Z"/>
    <path class="cls-2" d="M2.4,214.4c-.2,1.9.1,1.9.6,1.6,0-.6-.1-1.2-.6-1.6Z"/>
    <path class="cls-2" d="M30.6,204.2c0-.5,0-.3,0,0,0,.2,0,.5,0,.7,0,.2,0,.2,0,.2,0-.3-.1-.6-.1-.9Z"/>
    <path class="cls-2" d="M27.3,195.6l-.2-1c-.3.3-.1.7.2,1Z"/>
  </g>
  <g>
    <path class="cls-2" d="M92.8,179.6c-.3-.1-.4,0,0,0h0Z"/>
    <path class="cls-2" d="M213.5,120.2c0,0,0-.1,0-.2-.6,0-1.1,0-1.5-.1l1.6.3Z"/>
    <path class="cls-2" d="M210.8,89.7c0,0,0-.1.1-.2-.3.1-.7.2-.1.2Z"/>
    <path class="cls-2" d="M211.6,168.4c0,0,0,.1,0,.3,0-.1,0-.3,0-.3Z"/>
    <path class="cls-2" d="M61.3,169.2s0,0,0,0c0-.1.1-.2.3-.4l-.3.3Z"/>
    <path class="cls-2" d="M62.4,169.4c-.2.6-.9.2-1,0-.6.9-.4,1.4.2,1.8.9-.4.3-1.3.9-1.8Z"/>
    <path class="cls-2" d="M47.1,66.3l.4.3c0-.1-.2-.2-.4-.3Z"/>
    <path class="cls-2" d="M238.7,205.7c-.2.2-.5.5-.6.7.4-.2.6-.5.6-.7Z"/>
    <path class="cls-2" d="M46.2,83.1l1.5.2c-.6-.1-1.1-.2-1.5-.2Z"/>
    <path class="cls-2" d="M211.9,119.9h-.6c.1,0,.3,0,.6,0Z"/>
    <path class="cls-2" d="M203.9,66.5c.4-.2.7-.5.9-.7,0,0,0,0,0,0l-.9.7Z"/>
    <path class="cls-2" d="M72.8,43.6c0,.2.1.4.2.5l.4-1.2c-.3.2-.5.4-.6.6Z"/>
    <path class="cls-2" d="M185,54.5c0,.2-.1.3-.2.5.7.5,2.5.7,4.7.7l.2-1.8-4.8.6Z"/>
    <path class="cls-2" d="M139.1,11.7l4.7,3.6c-3.8.5-7,.6-10,.6-3,0-5.7-.1-8.4-.2-2.7,0-5.3,0-8,.2-2.7.3-5.6.8-8.9,1.8l.7-.8c-1-.4-1.6,1.5-4.7,2.5-1.5.5-3.7.7-6.9.5-3.2-.3-7.4-1.2-13.2-2.7v-.4c-.8.2-.7.9-2.3.2l4.1,1.6c-2.1,1.3-3.7,3.2-6.6,4-.7-.3-1-1-1.2-1.5l-3.6,1c-1.2.3-2.4.7-3.6,1l-2.7-1.8c-1,.9-.9,2.5-1.5,3.7-.5,1.2-1.6,1.9-4.9,1.4,3,2.7-2.4,2.8-1.2,4.3-.4-.3-1.2-.8-1.9-1.2-.8.3-1.9.7-2.9,1.2-1.1.5-2.2,1.1-3.2,1.7-2.1,1.2-3.9,2.5-4.4,3.5,0,0,3.9.7,8.2,1.7,2.2.5,4.5,1.2,6.5,1.9,2,.7,3.7,1.4,4.8,2.1-4.8.3-1.1.7,0,1.6v-.9c3,.2,3.5,2.3,5,2.6,0-.2-.1-.4-.2-.6v.3c-.3-.3-.3-.6-.2-.9-.1-.4,0-.8.7-.9v.3c1-.6,3-.7,3.9-.7l.4,1.8c.7-1.9,4.3-1.2,8.1-.1,3.8,1.2,7.6,2.8,8.9,2.7,3,2,5.9-1.3,9.4-.5,5.4,0,2.9,2.4,5.7,3.7,3.4.8-.8-2,.5-2.3,1.4.7,2.8,1.5,4.2,2.2-2.3.4-1,1.4-.5,2,1.7,0,4,.8,5.9,1.1,1.9.3,3.6.2,4-1.6,4.7,1.5,4.8,3,6.8,3.1-.7-.6-2-1.2-2.1-1.9,1.9,1.5.9-.4.1-.8,1.4-.8,5.2.7,8.6,2,3.4,1.3,6.6,2.3,6.9.3v.7c.7-3-.4-5.8,1.6-7.4l1.3,1.3,2-1.3c1.4,1,.7,1.7.7,2.1,3.3-1.3,7.9.3,11.9.8l-4.1-8.1c3.4,1.9,9.5,5.8,10.2,3.3l2,2.8c6.7,5.4,4.8-2.1,7.5-.5l3.4,3.1-3.4-.2c3.4,1.6,4.7,2.6,7.4,4.6,0,0,0,0,0,0-.2-.1-.3-.3-.3-.5h.5c.4-1.5,2.3-2.5,4.5-2.3,1.6.3,2.9,0,4.4,0,1.5,0,3.2.5,4.8,2.4.5-.9,1.1-1.8,1.6-2.7.9.8,1.6,1.7,2.2,2.5l-.8,2.3c-1-.5-2.8-.8-5-.9-2.2-.1-4.8-.1-7.1-.2v1.1c2.6.1,5.4-.6,6.8-.2.3.3.8,1.1.9,2.1.2.9,0,2-.6,2.6.5-.7,1.1-1.4,1.6-2.1.7.1,1.3.3,1.8.4.2,0,.4.1.7.2.2,0,.3.1.5.2.3,0,.5.2.7.4.2.1.4.3.5.5.1.2.3.4.4.6.1.3.2.5.3.8,0,.3.2.6.2,1.1,0,.2,0,.4,0,.6,0,.2,0,.5,0,.8.2-.3.5-.7.7-1,.5,0,1.1.3,1.4.6.3.3.2.8-.6,1.5.7,1.4,1.1,3.5,1.1,5.7,0,2.2-.4,4.6-1.4,6.7h2.9c0,.5-.8,1.5-1.1,2.3-.4.8-.3,1.4,1.7,1.2.6.7,1.3,1.5,1.9,2.3.3,1.8,2.1,2.5,1.1,4.9h0s0,0,0,0c0,.1-.1.3-.2.5,0,0,.2,0,.2,0-.2,4.2,2.4-.7,2,4.2-1.6,1.9,3.9.7,3.8,3l-3.4,3.1c-.7,2.2,0,3.2,1,4.4,1,1.2,2.3,2.5,2.9,5.3-.8,3-4.1,4.8-7.4,3.7,4.1,1.6,2.6.6,4.9,3.4-1.4.7-1.8.4-3.3,0-1.3,3,1.6,1.4,1.8,3.5,2.9.2,7.6.3,7.9.9l.8-.9c1.9,2.1,2.8,4.5,1.6,7.2h-1.5c.3.9.6,1.8.9,2.7l-1.8.3c.2,1.3.6,2.6.8,3.8l.5-.5c.1.4.4,1.4.4,2.4,0,1,0,2.2-.5,3h-1c-1.7,2.1-1.5,4.2-1.1,6.3.2,1.1.6,2.2.8,3.4.2,1.2.3,2.4.2,3.7l-2-1.1c-2.3,1.3,3.1,1.1,1.6,2.9l-2.5-.5c2.9,2.5-1.2,2.1-2.8,2.8,1.1.1,2.3.3,3.4.4-.4.7-.9,1.3-1.4,1.9-1.8,2-4.5,0-6.1-.9.7.8,1.4,1.6,2,2.4l-2.9-.8c2.8,2.2-1,.9.1,3.1-1.1-.4-1.5-1-2.1-.7,1.2.7,2.4,1.6,3.4,2.6-.4-.5-.9-1-1.4-1.4,1.3.7,2.5,1.5,3.8,2.2,1.2,1.2.9,1.5.5,1.5-.5,0-1.1-.2-.8.4-.2-.4-.5-.8-.7-1.2.2,1.5-1.2.2-2.1-.3.6.6,1.6,1.3,1.7,2,0,.4-1.1-1.1-1.6-1.4.9,1.2,1.4,2.2,1.5,2.9,0,.6-.3.9-1,.4-.2-.4-.4-.7-.4-1,0,.5.3,1.2-.3.7-.4-1-.8-2-1.2-3,.3,1,.6,2,.8,3-.3-.4-.4,0-.6.3-.1.2-.2.3-.5-.7,0-.2,0-.4,0-.7h-.3c0,0-.1,0-.1,0,0,0-.3,0-.4,0l-2.2.3-4.7.6-.6-2.5c-.2,3.7-5.3-.4-4.2,3.9-2.2-2-6.6,3-6.5-2.2-6.1.7-8.7,6-16.6,4.7-3.3-3.8-10.3-1.5-15.2-1.4-9.2,2.8-15.1,5-24.7,7-3.1-2.7-6.7-2-10.3-1-3.6,1-7.4,2.3-10.5.7l-1.7,2.4c-2.1-1.8-4.8-1.5-7.6-1.3-2.8.3-5.9.5-8.8-1.3-1.4,1-2.2,1.4-2.5,1.4.3.1.7.6.8,2.1-1.7-1-5.1.2-4.8-2.8l.4-.3c.1-1.5-1.1-1.2-2.7-.8-1.5.4-3.3.8-4.1-.5.3,1.1.5,2.2.8,3.2-1-.2-1.9-.4-2.8-.6l.8-.6c-3.1,1.7-5.4,2.1-7.2,2-1.7-.1-2.9-.9-3.7-1.6-.6-.7-.9-1.4-1.6-1.7-.1-.1-.3-.2-.5-.2-.2,0-.4-.1-.7-.1-.3,0-.6,0-1-.1-.4,0-.9-.1-1.5-.2,1.6-.7,1.1-.7.5-.8-.6-.1-1.2-.4.4-1.5,1.6-2,1.1-2.4-.2-2.7-.7-.1-1.5-.2-2.2-.4-.8-.2-1.5-.3-2-.7-.2,0-.4.1-.7.1-.3-1.1-.5-2.3-.8-3.6,2.6.3,1.5,0,.2-.3-1.2-.4-2.6-.7-.3-.3.1-2.6-.1-5.5-.6-8.6-.2-1.5-.5-3.3-.9-5-.4-1.7-.7-3.5-1.1-5.2-1.6-7-3.2-14.3-3.3-21.4l-1.1.8c-.1-1.8-.7-3.7-1-5.6-.3-1.9-.4-3.7.4-5.1,1.7-2.9-3.7-5.6-4-6.6-2.4-2.8,1.6-5.8,1.5-4.5-.8-3.1-5.4-5.8-3.8-10.4,2-.9.8-3.8-.2-6.6-1.1-2.8-2-5.5.3-5.6h-.4c1.5-2.9,1-5.6.3-8.4-.6-2.8-1.2-5.7.3-8.7,0,0,.3.1.6.3-2.3-2.1-4.6-4.3-6.8-6.4-2.2-2.2-4.5-4.4-6.7-6.6-5.2,1-10.3,2-15.5,3-4.3,3.7-8.6,7.4-12.8,11.3.8,10.7,1.9,21.3,3.4,31.9-1.1,8.6-2.1,17.2-2.7,25.9,1.4,10.3,3.2,20.6,5.4,30.8.5,2.6,1.1,5.1,1.7,7.6.5,2.5,1.2,5.3,1.9,8.1.8,2.9,1.6,5.8,2.6,8.8.2.8.5,1.5.8,2.3l.9,2.3c.7,1.6,1.3,3.2,2.1,4.8,1.8,1.4,3.8,2.8,5.8,4.1.7,4.5,3,9.3,6.7,13.7.9,1.1,2,2.2,3.1,3.3,1.1,1.1,2.3,2,3.5,3,1.2,1,2.5,1.8,3.9,2.6,1.3.8,2.7,1.6,4.1,2.3,2.8,1.3,5.9,2.5,8.6,3.3,2.8.8,5.4,1.4,7.9,1.9,5,1,9.3,1.7,13,3l.5-3c4.1,0,3.7,1.8,4.6,2.4,8.6,0,17.1-.3,25.7-.9,8.5-.6,17-1.4,25.4-2.2,8.4-.8,16.6-1.7,24.7-2.4,8.1-.7,16-1.2,23.7-1.4,3.2,1.5,11.9-1,14.6.6,2.3-1.3,4.7-2.4,7.1-3.4,2.4-1,4.9-1.7,7.3-2.5,1.2-.4,2.5-.7,3.7-1,1.3-.3,2.6-.6,3.9-.9,4.3-.9,8.6-2.1,12.6-3.8l-.5.6c2.4-1.3,4.7-2.7,6.9-4.4.4,0,.7.3.6.6,3.1-3.6,7.3-7.6,11.2-12.4,1.9-2.4,3.8-5,5.5-7.7.4-.6.8-1.2,1.1-1.8.3-.5.6-1,.9-1.5.6-.9,1.2-1.9,1.7-2.8v.6c4.9-11.3,7-23.1,7.3-34.1.3-11-.9-21.4-2.6-31.1-1.7-9.8-4-19-6.1-28.1-.5-2.2-1-4.5-1.6-6.8-.5-2.2-1-4.5-1.5-6.7-.9-4.4-1.8-9.3-3.2-14.9-.1-1.3-.4-2.8-.7-4.2-.4-1.5-.7-2.9-1.3-4.4-1-3-2.5-6.1-4.4-9.3-1.9-3.2-4.4-6.4-7.5-9.6-3.1-3.2-6.7-5.9-10.6-8.2-1-.6-2-1.1-3-1.6-1-.5-2-1-3.1-1.4-1-.5-2.1-.9-3.1-1.3-1-.4-2-.7-3-1-3.9-1.2-7.7-2-11.1-2.6-6.9-1.2-12.8-1.7-17.8-2.9-.9-.8-4-1.3-8.2-1.6-4.2-.3-9.6-.4-15-.4-10.9.1-21.9,1.1-23.7,1.8Z"/>
    <path class="cls-2" d="M78.5,20.9h.2c-.2-1.3-.4-.8-.2,0Z"/>
    <path class="cls-2" d="M162.2,50.2c0,0-.2,0-.2,0l.9,1.8-.7-1.8Z"/>
    <path class="cls-2" d="M112.1,52.3c2.2.2,2.3,0,2-.6-.8,0-1.5.1-2,.6Z"/>
    <path class="cls-2" d="M58.8,27.8c-1.3.2-.6.8.4,1.4,1.3-.5,2.2-.8,2.2-.8-.8,0-1.7-.5-2.5-.6Z"/>
    <path class="cls-2" d="M68.2,43v1.1c.5-.4.4-.8,0-1.1Z"/>
  </g>
  <g>
    <path class="cls-2" d="M405.5,62.9c-.2,0-.2.1,0,0h0Z"/>
    <path class="cls-2" d="M460.9,129.8s0,0-.1,0c0,.6.1,1.1.1,1.5v-1.6Z"/>
    <path class="cls-2" d="M441.4,130.1c0,0,0,0-.1-.1,0,.4.1.7.1.1Z"/>
    <path class="cls-2" d="M488,65.8c-.3-.3-.5-.3-.8-.3.3,0,.5,0,.8.3Z"/>
    <path class="cls-2" d="M374.5,69.9s0,0,0,0c0-.1-.1-.2-.2-.3l.2.4Z"/>
    <path class="cls-2" d="M374.7,68.8c.4.4,0,.9-.2,1,.5.8.9.8,1.3.3-.1-.9-.9-.7-1.2-1.3Z"/>
    <path class="cls-2" d="M317.8,79.3v-.4c0,.1,0,.2,0,.4Z"/>
    <path class="cls-2" d="M466.2,91.7h0s0,0,0,0Z"/>
    <path class="cls-2" d="M326.9,79.2v-1.5c0,.6,0,1.1,0,1.5Z"/>
    <path class="cls-2" d="M460.9,131.4v.6c0-.1,0-.3,0-.6Z"/>
    <path class="cls-2" d="M424,131.6c0-.4-.1-.8-.2-1.1,0,0,0,0,0,0l.3,1.1Z"/>
    <path class="cls-2" d="M344.1,96.7c0,.2-.2.3-.2.5l.8-.8c-.2,0-.4,0-.5.2Z"/>
    <path class="cls-2" d="M399.7,126.5c0,.2,0,.3,0,.5.4.5,1.5.6,2.9.6v-1.8c0,0-2.8.7-2.8.7Z"/>
    <path class="cls-2" d="M380.5,82.8c.4,1.3.8,2.6,1.3,3.9-.8.1-1.5.1-2.2,0-.7,0-1.3-.2-1.9-.3-1.2-.3-2.2-.6-3.2-1.1-2-.9-3.8-1.4-6.7-.8l.5-.7c-.2-.5-1,1.2-2.4,1.4-.7.2-1.6,0-2.5-1.1-.4-.5-.9-1.2-1.4-2.2-.5-1-.9-2.1-1.3-3.7v-.3c-.1,0-.4.6-.5-.5,0,.9.2,1.7.3,2.6-1.1.5-2.4,1.8-3.6,1.5,0-.5.2-1.2.4-1.7-.9-.2-1.8-.3-2.7-.6l.4-2.5c-1.3.8-3.4,5.2-4,1.8-1,3.4-2,1.3-2.7,2.9.1-.4.2-1.1.4-1.7-1.3-.4-4-1-5.6.1,0,0,.1,2.3.3,5,0,1.5.2,3,.2,4.4,0,1.4.1,2.7,0,3.7-1.5-1.9-.7,0-.9,1.3l.6-.7c.8,1.4-.2,3.3,0,4.2,0-.2.2-.3.2-.5l-.2.2c.1-.4.3-.6.5-.7.2-.4.4-.7.7-.4l-.2.2c.7,0,1.4.8,1.7,1.1l-.8,1.6c1.2-1.3,2.2.6,3.2,3,.5,1.2,1,2.5,1.4,3.5.5,1,.9,1.8,1.2,1.9.6,2.7,3.4.7,4.7,2.4,2.7,1.4.6,3,1.6,4.9,1.5,1.7.2-2.1,1-2,.5,1,1,2.1,1.5,3.1-1.4-.2-1,1.1-.9,1.8.5.2,1,.7,1.5,1.1.5.4,1,.9,1.5,1.2,1,.7,2,.8,2.7-.8,2.3,2.3,2,3.8,3.2,4.2-.3-.7-.9-1.5-.8-2.2.8,1.8.6-.3.2-.7,1-.6,2.8,1.4,4.6,3.1.9.8,1.8,1.6,2.5,1.9.7.3,1.3.1,1.5-.8v.7c.7-2.9.5-5.8,1.9-7.2l.6,1.4,1.3-1.1c.6,1.1.2,1.8.1,2.1,2-1.1,4.4.8,6.7,1.4-.6-2.7-1.1-5.5-1.6-8.2,1.6,2,4.7,6.1,5.3,3.5l1,2.8c3.6,5.3,2.7-2.1,4.2-.5.6,1,1.2,2,1.8,3-.6,0-1.3,0-1.9-.1,1.9,1.6,2.6,2.5,4.2,4.4,0,0,0,0,0,0-.1-.1-.2-.3-.2-.4h.3c.2-1.5,1.3-2.5,2.6-2.4,1.9.4,3.3-1.8,6.5,1.2l.6-3c.8.6,1.6,1.2,2.4,1.7v2.4c-1,0-2.6.2-4.3.5-1.7.3-3.5.6-5,.7v1.1c1.7,0,3.7-1.1,4.8-.9.6.5,2.1,2.9,1.1,4.6l1-2.4c2.9-.2,4.4-.5,5.9-.3,1.5.2,3.1.8,6.3,1.8l-.6-1.1c1.1-.8,2.2-1.6,2.8.3.9,0,1.9,0,2.8.2.9.1,1.8.3,2.7.6,1.8.6,3.5,1.5,4.9,2.8v-2.9c.9,0,2.7,4.1,2.5.1l1.4-1.5c1.1,0,1.4-1.6,2.9-.2h0s0,0,0,0c0,0,.2.2.3.3,0,0,0-.2,0-.2,2.5.8-.5-2.5,2.5-1.4,1.2,1.8.3-3.7,1.7-3.3l2.1,3.7c2.8,1.8,2.4-2.2,5.8-3,2,1,3.6,4.2,3.1,7.5.7-4,.2-2.5,1.8-4.7.7,1.4.5,1.8.4,3.2,2.3,1.3.8-1.6,2.2-1.9-.3-2.9-1-7.4-.6-7.7l-.7-.7c1-1.9,2.3-2.9,4.3-2l.3,1.4,1.5-1.2.6,1.7,2.3-1.3-.5-.4c.5-.4,2.2-1.6,3.6-1.1l.3,1c1,.5,1.9.6,2.7.3.4-.1.7-.3,1.1-.5.3-.2.6-.5,1-.8.8-.7,1.7-1.5,2.5-2.3,1-.9,2.1-1.7,3.6-2.7,0,.8.2,1.5.2,2.3,1.6.3,1.4-.5,1.1-1.4-.3-.9-.6-1.9,1-2.4l1.6,2c.2-1.2.4-1.8.8-2.2.4-.4.9-.6,1.6-.6,1.3-.1,2.8.3,4.3-.3-1.1-.4-2.2-.9-3.3-1.4.6-.5,1.3-1,1.9-1.5.6-.6,1.3-1.2,1.9-1.8,1.1-1,1.9-1.7,2.7-2.1.7-.3,1.4-.3,1.9,0,1.1.5,1.7,1.8,2.2,2.8,0-1.8,0-3.9-.3-5.7,1,0,2.1,0,3.2,0-1.1-2.4-.7-3.2-.1-4.4.3-.6.6-1.3.8-2.2.2-1,.2-2.2-.2-3.8,1.1-.5,1.8,1.2,2.3-1.1-.2-.5-.4-.9-.6-1.3-.2-.4-.4-.8-.6-1.2-.4-.8-.9-1.6-1.3-2.3-.9-1.4-2-2.7-3-3.8.5.7,1,1.5,1.5,2.3l.7,1.2c.2.4.4.9.7,1.3-1.5,0-2.9,0-4.4,0-2-2.2-2.4-3.6-2.4-5,0-1.4,0-2.8-1.2-3.9.7.4,1.4.9,2.1,1.5-1.5-2.2-2-3.4-2.2-4.5-.2-1.1,0-2.2-.5-3.6-.1,1.2-.4,3-2,1.7-1.1-1,.8-1.5.2-2.9-1.2.8-2.7.8-3.9.4-1.2-.5-2.4-1.4-3.1-2.9.3-.3.6-.6.9-.7-.9-.1-1.7.2-2.4-1.1.8-.7,1.7-1.5,2.5-2.2-1.4.3-2.7.6-4,1-.5-.9-1.8-1.1-2.6-1.3-.9-.2-1.4-.3-.8-1.3.2,0,.4,0,.5-.1h.6c-.6-.4-1-.6-1.4-.8l-1.4-.6c-.9-.4-1.8-.8-2.7-1.1-1.8-.7-3.6-1.1-5.3-1.5l.2-2.6c-.4.8-.9,1.1-1.5,1.2-.6,0-1.2-.2-1.8-.3-1.2-.3-2.1-.5-2,1.8-.8-1.2-2.5-.8-3.6-.7-1.2.1-2,0-1.7-2.6-2.6,0-4.2,1.2-5.7,2.3-1.5,1-2.8,1.8-5,.8-2-4-5.7-2.2-8.4-2.3-4.9,2.4-8,4.4-13,6.4-3.8-5.5-7.6,3-11.3,0l-.6,2.4c-2.7-3.4-5.5,1.5-9.1-1.7-.6,1.1-1,1.5-1.2,1.6.2,0,.4.5.7,2-1-.9-2.7.6-2.9-2.4l.2-.3c-.2-3-2.6,1.7-3.9-.7l.9,3.1-1.8-.3.4-.7c-6.5,7.9-11.1-1.7-17.2,5.6.5-3.6-1.1,2-1.7-1.8-2.3-4.6-3.1,1.4-4.4,2.9,0,.2,0,.4,0,.7h-2.6c.9-5.1-1.3,4-.4-.2-7-2.8-15,1.9-22.8,1.2l.5,1.2c-1.9,0-4.1,1.8-5.8,0-1.7-1.8-2.8,3.5-3.3,3.8-1.3,2.3-3.3-1.7-2.6-1.6-1.6.8-2.7,5.4-5.3,3.8-1.3-4-6,4.8-6.6.2v.4c-3.4-2.9-5.6,3-9.2.5,0,0,0-.3,0-.7l-4.9,14.7,3.7,15,7.3,11.7,15.3-4.6,13,3.3,30.1-5.3,1.7-3.7c6.7,5.3,13.5-2.6,20.4,1l-.2-3c1.8-.4,1.9,1.5,2.4,1.9,16.7-2.7,33.5-8.8,49.1-6.9.4.4,1,.7,1.7.8.3,0,.7,0,1,.1.3,0,.7,0,1,0,1.3,0,2.2.2,2.5,1.2.6-1,1.1-1.7,1.4-2.2.1-.2.3-.5.3-.6,0,0,0,0,0-.1,0,0,0,0,0-.2v-.3s0-.6,0-.6l.3-2.1c.4-2.5.9-4,1.2-4.9v-.3c.1,0,2.1-4.5,2.1-4.5,0,.2-.2.4-.3.6-.2.4-.4.6-.5.8h0c-.2.2-.3.3-.3.3h0s.2-.2.6-.4c.4-.2.9-.5,1.6-.8.7-.2,1.4-.4,2-.4.5,0,1,0,1,0h0s0,0,0,0h0s0,0,0,0h0s0,0,0,0h0s-.4-.2-.4-.2c0,0,0,0-.3-.2h-.2c-.1-.2-.2-.3-.3-.4l-.3-.3c-.1-.1-.2-.2-.4-.3-.2-.1-.3-.3-.4-.5l-.5-.5c-.2-.2-.3-.4-.5-.6-.2-.2-.4-.5-.6-.7-.3-.5-.8-1.2-1.2-1.8l-.7-1.1-.7-1.2c-.6-1-1-1.8-1.6-3.1-.3-.6-.6-1.2-.9-1.8-.4-.7-.7-1.5-1.1-2.2h0c0-.1,0-.1,0-.1h0s0,0,0,0c0,0,0,0,0,0h0c0,.1-.3.2-.5.4h-.2c0,.1-.3.3-.3.3l-.6.3c-3.4,1.6-6.8,3.2-10.5,4.6-3.7,1.4-7.5,2.5-11.6,3.2-2,.3-4.2.6-6.2.7-2.1,0-4.2,0-6.3-.2-2.1-1-4.1-1.2-6.1-1.1-2,0-4.1.6-6.2,1-1,.2-2.1.4-3.2.6-1.1.2-2.1.3-3.2.3-1.1,0-2.1,0-3.2-.2-1.1-.2-2.1-.6-3.2-1.1-.8-1.5-5.3-1.7-9.7-1.7-1.1,0-2.2,0-3.3,0-1,0-2,0-2.9.1-1.8.1-3.1.4-3.5.6Z"/>
    <path class="cls-2" d="M357.5,79.9h0c.5-1.1.3-.7,0,0Z"/>
    <polygon class="cls-2" points="386.9 122.2 386.8 122.2 387.2 124 386.9 122.2"/>
    <path class="cls-2" d="M358.1,118c1.2.8,1.3.5,1.3,0-.4-.2-.9-.2-1.3,0Z"/>
    <path class="cls-2" d="M349.7,78.5c-.4-.4-.6.4-.8,1.3.5.2.8.3.8.3,0-.4,0-1.1,0-1.5Z"/>
    <path class="cls-2" d="M343,94.3l-.7.8c.4,0,.6-.4.7-.8Z"/>
  </g>
  <g>
    <path class="cls-2" d="M424.2,120.7c-.2,0-.2.1,0,0h0Z"/>
    <path class="cls-2" d="M454.6,212.7c0,0,0,0-.1,0,0,.6,0,1.1,0,1.5l.2-1.6Z"/>
    <path class="cls-2" d="M432.4,210.9c0,0,0-.1-.1-.2,0,.4,0,.7.1.2Z"/>
    <path class="cls-2" d="M505.1,169.5c.1-.3,0-.6-.1-.8,0,.2.1.5.1.8Z"/>
    <path class="cls-2" d="M390.8,127.9s0,0,0,0c0-.1-.2-.2-.2-.3l.2.4Z"/>
    <path class="cls-2" d="M391.1,126.8c.4.4,0,.9-.2,1,.5.8,1,.8,1.4.4-.1-.9-.9-.7-1.2-1.4Z"/>
    <path class="cls-2" d="M331,133l.2-.4c0,0-.1.2-.2.4Z"/>
    <path class="cls-2" d="M466.9,159.6c0,0,.1,0,.2,0,0,0-.1,0-.2,0Z"/>
    <path class="cls-2" d="M340.3,134.1v-1.5c0,.6,0,1.1,0,1.5Z"/>
    <path class="cls-2" d="M454.4,214.3v.6c0-.1,0-.3,0-.6Z"/>
    <path class="cls-2" d="M414.3,210.2c0-.5,0-.8,0-1.1,0,0,0,0,0,0v1.1Z"/>
    <path class="cls-2" d="M329.5,177.4c-.1.1-.3.3-.4.4.3-.2.6-.3,1-.5-.2,0-.4,0-.6,0Z"/>
    <path class="cls-2" d="M389.9,203.4c0,.2,0,.3-.1.5.4.5,1.5.7,2.9.6v-1.8c.1,0-2.8.7-2.8.7Z"/>
    <path class="cls-2" d="M366.3,160l2.2,3.8c-8,1.1-11.4-2.8-18.4-.5l.4-.7c-.4-.5-1.1,1.3-2.6,1.9-.7.3-1.7.2-2.6-.6-.5-.4-.9-1-1.2-1.8-.3-.8-.4-1.8,0-3v-.3c.1,0,.1,0,.1,0,0,0,0,0,0,.1,0,0,0,.1,0,.2,0,.1,0,.2-.1.4,0,.3-.2.6-.5,1.3l.3-.9.2-.4c0-.1,0,0,0,0h0c-.1.5-.2.8-.3,1.2-.4.8-1.1,2.4-1.3,2.6h0c0,0,0,0,0,0h0c0,.1,0,.2,0,.2,0,0,0,0,0,.1l-.2.4v.2c-.1,0-.1,0-.1,0l-2.1,3.6h0s0,0,0,0h0s0,0,0,0h0s0,0,0,0c0-.1.2-.3.2-.4,0,0,.1-.2.1-.2h0s0,0-.1,0c-.1.1-.2.1-.3.3-.2.1-.3.3-1.3,1,.8-.5-1,.6-.8.4-.1,0-.4.2-.6.3-.7.3-1.7.6-2.2.6-.1,0-.3,0-.4,0,0,0-.1,0-.2,0,0,0,0,0,0,0,0,0,0,0,.1,0,.2,0,.5,0,1.2-.1,0,0,0,0,.1,0,0,0,.1,0,0,0-.1,0-.3,0-.4.1-.3,0-.6.2-.8.4-.6.3-1,.7-1.5,1.1-.9.9-1.6,1.9-2.1,2.7-.2-1.9-.6-.2-1.4.8l.8-.4c0,.7-.4,1.4-.8,2.1-.4.7-.8,1.3-.7,1.8.1-.1.3-.3.4-.4h-.3c.2-.2.5-.3.7-.4.3-.3.6-.5.8-.2h-.2c.6.3,1.1,1.2,1.4,1.5l-1.1,1.5c.8-.5,1.3-.3,1.7.4.5.7,1,1.8,1.6,3,1.2,2.5,3,5.2,3.9,5.4.6,1.3,1.7,1.4,2.7,1.3,1.1-.1,2.2-.4,3.1.3,3.2.9,1.4,2.8,2.8,4.5,1.9,1.3-.2-2.1.6-2.2l2.1,2.7c-1.4,0-.7,1.2-.6,2,2,.5,5,4.1,5.9.5,2.6,2,2.5,3.4,3.7,3.7-.3-.7-1.1-1.3-1-2.1,1,1.7.6-.4.1-.7,1.8-1.4,8.3,7.2,8.9,3.3v.7c.5-2.9.1-5.8,1.4-7.4l.7,1.4,1.3-1.2c.7,1,.3,1.8.3,2.1,2-1.2,4.6.5,6.9,1.1l-2-8.2c1.8,2,5.2,5.9,5.7,3.3l1.1,2.8c3.7,5.3,2.8-2.1,4.4-.5l1.9,3h-2c1.9,1.4,2.7,2.4,4.2,4.4,0,0,0,0,0,0-.1-.1-.2-.3-.2-.4h.3c.3-1.5,1.4-2.5,2.7-2.4,2,.5,3.6-1.7,6.7,1.5l.8-3,2.3,1.8v2.4c-2.4-.2-6.8.6-9.8.7v1.1c1.7,0,3.8-1,4.9-.7.6.5,2,3,.9,4.6l1.2-2.3c6-.2,6-.3,12.2,2.5l-.5-1.2c1.2-.7,2.5-1.4,2.8.6,3.8.4,7.6,1.9,10.1,4.9l.5-2.8c.8.1,2.1,4.4,2.4.4l1.7-1.3c1.1.2,1.8-1.4,3.1.1h0s0,0,0,0c0,0,.2.2.3.3,0,0,0-.2,0-.2,2.6,1.2-.1-2.5,2.9-1,1,2,.9-3.6,2.4-3.1l1.7,4c2.9,2.1,3.1-1.9,7-2.3,2.1,1.3,3.5,4.5,2.5,7.8,1.4-3.9.6-2.5,2.8-4.6.6,1.5.4,1.8,0,3.3,2.5,1.5,1.2-1.6,2.9-1.7,0-2.9-.1-7.5.3-7.8l-.8-.8c.7-.9,1.5-1.6,2.3-2,.9-.4,1.8-.4,3,.1l.2,1.4c.7-.4,1.3-.8,1.9-1.2l.6,1.8c1-.4,2-.9,2.9-1.3l-.6-.4c.7-.4,2.8-1.7,4.4-1.2l.3,1c1.1.5,2.4.4,3.5,0,1.1-.3,2-1,2.9-1.8,1.8-1.5,3.3-3.6,5.5-5l.4,2.2c2.7.8-1.2-3,1.2-3.3l1.5,2.1c0-2,.5-2.2,1.4-1.8.9.3,2.1,1.1,3.1,1.2-.9-.8-1.7-1.5-2.5-2.3.8-.3,1.7-.6,2.5-1,3-1.1,4.2,2,5,3.7,0-1.2,0-2.3,0-3.5.8.6,1.6,1.3,2.3,1.9-.5-1.9-.2-2,.5-2.2.7-.2,1.6-.3,2-2.1,1,.6.9,1.6,2,1.1,0-1.1.1-2.3.1-3.4,0-1.1,0-2.3,0-3.4-.1,1.2-.3,2.5-.5,3.7l-3.1-3.1c-.3-2.2.3-3,1.2-3.5.9-.5,1.9-.9,1.9-2.3,0,.7.2,1.4.2,2.1.6-1.9,1.2-2.7,2.1-3.2.8-.6,1.7-.8,2.6-1.7-1.1.4-2.6.8-2.4-.9.3-1.2,1.7,0,2.6-.9-1.3-.7-2-1.9-2.2-3.1-.2-1.2.2-2.5,1.1-3.7.4.1.8.3,1,.5-.3-.8-1-1.3,0-2.4,1,.4,2,.9,3,1.3-.8-1.1-1.7-2-2.6-3,.5-.8.2-1.8,0-2.6-.2-.8-.2-1.3.9-1.2l.6,1c0-.5.1-1.1.2-1.6v-1.6c0-1.1,0-2.1,0-3.2-.2-2.2-.4-4.4-1-6.5l2.4-.9c-1.9-.2-2.1-1.9-2.5-3.5-.4-1.6-.9-2.8-2.8-1.6.6-1.6-.9-3.4-2-4.9-1.1-1.4-1.7-2.6.7-3.5-2.3-3.4-5.3-4.8-8-6-2.8-1.3-5.4-2.6-8.4-5.6-.1-1.3-.7-2.4-1.7-3.4-1-1-2.3-1.8-3.7-2.5-1.4-.7-3.1-1.2-4.7-1.7-1.4-.4-2.8-.7-4-1.1-4.9,0-8.6.5-12,1.2-3.4.7-6.5,1.6-9.9,2.5-2.3-2.8-4.9-2-7.1-.9-2.2,1.1-4.2,2.5-6.3,1.1l-.7,2.5c-2.9-3.4-6.1,1.6-9.9-1.6-.7,1.1-1.1,1.5-1.3,1.6.2,0,.5.5.7,2-1.1-.9-2.9.6-3.1-2.3l.2-.3c-.2-3-2.8,1.8-4.2-.7l1,3.1-1.9-.3.4-.7c-7.1,8-11.9-1.6-18.5,5.7.6-3.6-1.3,2-1.8-1.8-2.4-4.5-3.3,1.4-4.7,2.8,0,.2,0,.4,0,.7l-2.7-.2c1.1-5-1.5,4.2-.5,0-7.3-2.9-16,1.5-24,.3l.4,1.2c-2-.1-4.5,1.5-6.1-.4-1.6-1.9-3.2,3.3-3.8,3.5-1.6,2.2-3.3-2-2.5-1.8-1.8.6-3.4,5.1-5.9,3.2-.4-2-2.1-1-3.7,0-1.6.9-3.1,1.8-3.1-.5v.4c-1.6-1.6-3.1-1.1-4.7-.5-1.6.6-3.2,1.2-4.8-.4,0,0,0-.3.2-.6-2.5,4.5-5.1,9.1-7.8,13.6.3,5.2.7,10.3,1.1,15.5,1.9,4.3,4,8.6,6.1,12.8,6.2-.7,12.4-1.5,18.4-2.5,4.9,1.6,9.8,3,14.7,4.4,11.7-1.1,23.3-2.7,34.6-4.4l2.1-3.7c7.3,5.3,15-2.7,22.6.7l-.2-3c2-.4,2.1,1.4,2.6,1.9,4.6-.8,9.2-1.7,13.7-2.7,2.3-.5,4.5-1,6.8-1.5,2.2-.5,4.2-.9,6.1-1.3,3.7-.7,6.6-.9,8.5-.5.3,0,.5,0,.7.2.2,0,.4.1.6.2.2,0,.3.2.5.3,0,0,.2,0,.2.1h0c.2.4.4.9.3,1.4-.2.4-.3.7-.4.9h0c0,.1,0,.2,0,.2,0,0,0,0,0-.1.1-.2.3-.4.5-.6.7-.9,1.7-1.8,2-2.1,1.6-1.5,3.7-2.5,4.4-2.6,0,0,.2,0,.3,0,0,0,0,0,0,0h0s0,0,0,0h0c.2,0-1.9.2-1,.1h0s0,0,0,0h0s0,0,0,0h.1c0,0,.2,0,.3,0h.2s0,0,0,0c0,0,0,0,0,0,.1,0-.4,0-.6-.1h0s-.2,0-.2,0h0s-.2,0-.2,0c-.3,0-.6-.2-.8-.3,0,0,0,0,0,0-.1,0-.2,0-.3-.1-.2,0-.4-.1-.5-.2-.4-.1-.7-.3-1-.5-.1,0-.4-.2-.6-.3-.2-.1-.5-.3-.7-.4-.5-.3-.9-.6-1.3-.9-.2-.1-.5-.3-.8-.4-.2,0-.3-.2-.5-.2-.2,0-.3-.1-.5-.2l-.2-.3c-.4.2-.9.8-1.6,1.3-.7.5-1.6,1.1-2.4,1.7-.2.1-.4.3-.6.4-.3.2-.7.3-1,.5-.7.3-1.5.7-2.3,1-1.6.6-3.3,1.2-5,1.7-7.2,2-16.1,2.6-26.1.7-4.6-2.4-9.5-1.9-14.6-1.4-5.1.5-10.4,1.1-15.5-1.2-.9-1.5-6.6-1.9-12.4-1.8-5.7,0-11.5.6-12.5,1.2Z"/>
    <path class="cls-2" d="M342.3,163.5h0c0,0,0,0,0,0Z"/>
    <polygon class="cls-2" points="376.8 199.2 376.6 199.1 377.1 200.9 376.8 199.2"/>
    <path class="cls-2" d="M347.3,198c1.3.5,1.4.2,1.2-.3-.5-.1-.9,0-1.2.3Z"/>
    <path class="cls-2" d="M337.2,169.2c-.5.2-.3.1,0,0,.3-.1.5-.2.6-.3.2,0,.2-.1.2-.1-.3.1-.5.3-.8.4Z"/>
    <path class="cls-2" d="M329.4,174.8l-.9.4c.4.1.7,0,.9-.4Z"/>
  </g>
  <g>
    <path class="cls-2" d="M481.9,269.6c.4-.3.3-.6,0,0h0Z"/>
    <path class="cls-2" d="M396.9,169.8c.1,0,.2,0,.4,0,.4-.5.7-1,1-1.4l-1.4,1.3Z"/>
    <path class="cls-2" d="M437.5,201.9c0,.1,0,.2,0,.3.3-.2.6-.3,0-.3Z"/>
    <path class="cls-2" d="M339.3,251.5c0,.3.2.5.5.5-.2-.1-.3-.3-.5-.5Z"/>
    <path class="cls-2" d="M463.7,190.2s.1,0,.2,0c0-.2-.1-.4-.2-.6v.5Z"/>
    <path class="cls-2" d="M465.1,190.1c.5,1-.8.4-1.2.2.3,1.4,1.1,2.2,2.2,2.7.7-.7-1-2.1-1-3Z"/>
    <path class="cls-2" d="M343,208.9v-.5c0,.2,0,.3,0,.5Z"/>
    <path class="cls-2" d="M382.5,237.2c.1,0,.2.2.3.3,0-.2-.1-.3-.3-.3Z"/>
    <path class="cls-2" d="M359,198.8l-.6-1.4c.2.6.4,1,.6,1.4Z"/>
    <path class="cls-2" d="M398.3,168.5l.5-.5c-.2.1-.4.3-.5.5Z"/>
    <path class="cls-2" d="M445.5,244.8c-.4,0-.8,0-1.1,0,0,0,0,0,0,.1l1.2-.2Z"/>
    <path class="cls-2" d="M326.6,225.4c-.2,0-.4-.1-.6-.2.2.3.5.6.7.9,0-.3,0-.5-.2-.8Z"/>
    <path class="cls-2" d="M403.3,284.8c0,.2-.1.3-.1.5,1.2.4,4.1.4,7.6-.3l-.4-1.8c-2.2.7-4.6,1.2-7,1.5Z"/>
    <path class="cls-2" d="M358.2,243.3c.4.6.9,1.3,1.4,1.9.5.6,1,1.3,1.6,1.9-2.1.2-3.8.2-5.2,0-1.4-.2-2.4-.5-3.2-.8-.8-.3-1.4-.7-1.7-1-.3-.2-.6-.4-.9-.6-.4-.2-1-.2-1.9-.3l.7-.4c0-.2-.2,0-.7.2-.5.2-1.2.3-1.7,0-.6-.2-1.1-.9-1-2.4,0-.7.3-1.6.8-2.5.5-1,1.2-2.1,2.4-3h.4c0-.2-.8-.2.1-.6-.7.3-1.4.7-2.1,1.3-.5-.3-1.2-.6-1.8-.9-.6-.3-1.1-.7-1.2-1.1.4-.2,1.1-.2,1.7-.1-.2-.5-.3-.9-.4-1.1l.6.2h.3c0,.1.3.2.2.1l-.5-.2c-.1,0-.2,0-.3-.1-.9-.4-1.7-.8-2.5-1.2,0,0,.2,0,.3.1.2,0,.6.4.4.2,0,0,0,0,0,0h0s0,0,0,0c0,0-.1-.1-.2-.1-.2-.2-.4-.3-.6-.5-.3-.2-.4-.4-.5-.5-.2-.2-.2-.4-.8-1,.3.3.8.7,1.2,1.2,0,0,0-.1-.1-.2-.1-.2-.3-.4-.4-.7-.3-.5-.6-1-.8-1.6,0-.2-.2-.5-.2-.7,0,0,0-.2,0-.3,0,0,0-.1,0-.2,0-.1,0-.2,0-.3,0,0,0,0,0-.1h0s0,0,0,0h0s0,0,0,0h0s0,0,0,0h0s0,0,0,0c0,.6,0-1.4,0,1.4v-1.4q0,0,0,0h0s0,0,0,0h0s0,0,0,0c0,0,0,0,0,.1,0,0,0,0,0,.1,0,0,0,0,0,.1,0,0,0-.1,0-.2-.2-.7-.7-1.7-1.7-2.4-1-.8-2.5-1.3-4-1.4-1.5-.2-3-.1-4.2-.1.7-.5,1.1-.8,1.2-1,.1-.2,0-.3-.2-.3-.2,0-.6,0-1,0-.4,0-.8.1-1.2,0l.5.7c-1.9,1.3-3.8.4-4.9,1.3.2,0,.4.1.6.2l-.2-.3c.4,0,.6.2.8.4.4.2.7.4.3,1l-.2-.2c-.1,1-.9,2.6-1.3,3.3l-1.8-.4c1.4,1.3-.4,4-2.1,7.7-1.7,3.5-3,7.9-2.7,9.4-.7,1.7,0,3.4.8,5,.9,1.6,2.1,3.1,2.5,5.1.6,1.4.9,2.4,1,3.1,0,.7,0,1.2-.2,1.5-.4.8-1.2,1.3-.7,3.2.9,2.1,1.2,1.6,1.4.7.2-.9.3-2.1.9-1.4.4,1.9,1,3.7,1.7,5.6-2.4-2-2-.1-2,.8,1.4,1.5,2.9,3.7,4.7,5.5,2.4,2.4,5.2,4,6.9,2.5,2.7,2.2,3.9,3.3,4.9,4.3.9.9,1.5,1.5,2.8,1.9-.7-.9-2.3-1.9-2.1-2.6,2,2.2,1.2,0,.4-.7,1-.1,2.6.5,4.4,1.4,1.8.9,3.9,2,5.9,2.9,4,1.8,7.6,2.9,8,1v.7c.8-2.9-.3-5.8,1.9-7.4l1.4,1.3c.7-.4,1.4-.8,2.1-1.3,1.4,1,.7,1.7.7,2.1,3.3-1.4,7.9.1,11.8.4l-4.3-8c3.3,1.8,9.4,5.4,10,2.8l2.1,2.7c6.8,5,4.6-2.3,7.3-.8l1.7,1.4.9.7c.3.2.7.5,1.1.7h-3.6c.9.4,1.6.7,2.2,1,.2,0,.3.2.5.2.2,0,.4.2.6.2.4.2.8.3,1.2.5,1.6.6,3.1,1.3,5.3,2.2,0,0,0,0,0,0-.3-.1-.5-.2-.6-.4h.7c.4-1.6,2.6-2.7,5.9-3.1,1.8-.1,3.2-.7,4.7-1.3,1.5-.6,3.1-1.4,5.1-2.2,1.4-.6,3.1-1.2,5.1-1.9-.2-1.2-.4-2.4-.7-3.6,1.6-.9,3.1-1.9,4.6-3.1l1.8,1.6c-.9,1.4-2.1,3.1-3.6,4.8-1.5,1.7-3.4,3.5-5.5,4.9-3.2,2.1-6.8,3.4-10,4.1l.2,1.1c1.9-.4,3.9-1.1,5.6-1.9,1.7-.8,3.3-1.9,4.5-2.7.5-.3.9-.6,1.3-.8.7-.2,2.2-.4,3.4-.2,1.2.2,2,.8,1.4,2.4.3-1.3.6-2.5.7-3.8,2.7-2.8,4.3-5.4,5.6-7.5.7-1.1,1.2-2.1,1.7-3,.3-.5.5-.9.8-1.4.2-.5.5-.9.7-1.4,1-1.8,2-3.7,3.2-6.1.6-1.2,1.3-2.6,2-4.2.3-.8.7-1.7,1.1-2.6.2-.5.4-.9.6-1.4,0-.2.2-.5.3-.7,0-.2.2-.4.3-.6l-.7.5-.7.6c0-.9,0-1.5,0-2.2,0-.7,0-1.3,0-1.9.2-1.1.6-2,1.6-2.3.7-4.3,1.3-8.7,1.9-13,.5-4.3,1-8.4,1.8-11.8-1-.2-2.1-.5-3.1-.7-.2-1,.6-2.5.8-3.8.2-1.3,0-2.3-2.1-2.1-.9-1.2-1.8-2.5-2.8-3.6-.5-1.3-1.3-2.2-1.9-3.1-.7-.9-1.3-2-1.3-3.8h0s0,0,0,0c0-.2,0-.4,0-.7,0,0-.1,0-.2.2-1.1-3-1.7-2.6-2.2-2.4-.6.2-1.1.4-2.5-2.9,0-1.5-1-1.5-2.3-1.4-1.3,0-2.8.3-3.7-1.2.3-1.7.4-3.5.5-5.3-.7-1.5-1.6-2.5-2.5-3.2-.9-.7-1.9-1.1-3.1-1.5-.6-.2-1.1-.4-1.8-.6-.6-.2-1.3-.4-2.1-.7-1.4-.6-3.1-1.2-5.2-2.4-1.7-1.6-2.7-3.5-2.9-5.1-.2-1.6.6-3.1,2.8-3.8-2.9.8-3.6,1.2-4.4,1.3-.8,0-1.7-.1-4.8-.1-.5-1.7.2-1.9,1.9-2.8-1.2-.9-2.1-1.2-2.7-1.3-.7-.1-1.1,0-1.5.2-.8.4-1.4,1-3.6.6-1.8,2.7-3.6,7-4.8,7.1.4.3.9.7,1.3,1-4.1,1.1-7.8,1.8-12.3.8v-1.5c-1.5.5-3.1.9-4.5,1.5l-.7-1.7c-2.2.7-4.3,1.5-6.4,2.5.3,0,.7,0,1,.2-.7.4-2.2,1.2-3.9,2-1.7.9-3.5,1.6-5,2l-.4-.9c-2.3.4-4.2,1.3-6.1,2.6-1.8,1.3-3.3,2.9-4.6,4.7-2.6,3.6-4.6,7.7-6.9,12.3-.4-.7-.8-1.5-1.1-2.2-1.9,1.1-1.2,1.7-.5,2.4.7.7,1.4,1.6,0,3.2l-2.4-.8c.8,2.5.2,3.4-.8,4.3-1.1.8-2.6,1.3-3.6,2.4,1.2,0,2.4-.2,3.6-.2-.7,1.4-1.2,2.9-1.8,4.4-1,2.4-2.2,3-3.3,2.9-1.1-.1-2.3-1-3.1-1.5.7,1.4,1.4,2.7,2.2,3.9l-3,.4c1.6,1.5,1.5,2,1.1,2.9-.4.9-1,2,0,4.1-1.1.4-1.8-.7-2.3.8.7,1.2,1.5,2.3,2.3,3.4.8,1.1,1.6,2.1,2.4,3.1-.7-1.2-1.5-2.5-2.2-3.8l4.4.2c1.8,1.9,1.8,3.1,1.6,4.3-.2,1.2-.7,2.3,0,3.5-.5-.5-1.1-1.1-1.6-1.6,1.7,4.2,0,4.7-.5,7.3.6-.9,1.6-2.3,2.5-.7.5,1.2-1.4,1-1.6,2.2,2.9-.3,5.1,2.1,4.4,4.9-.4,0-.8.1-1.1,0,.6.5,1.4.6,1.1,1.9l-3.3.3,3.6,1.3c-.4,1.7,2.6,3.2.4,3.7l-.9-.6c1,3.9,2.4,8.1,4.5,12.4l-2.2,1.4c1,0,1.6.3,2.1,1,.3.3.5.7.7,1.2.2.5.5,1,.7,1.4,1,1.9,1.9,3.4,3.5,1.8,0,2,2.3,4.2,4.2,5.9.9.9,1.7,1.6,2,2.3.3.7,0,1.4-1.2,2,1,1,2.2,1.8,3.3,2.5,1.1.7,2.3,1.3,3.4,1.8,1.1.5,2.3.9,3.4,1.2,1.1.3,2.3.6,3.4.9,1.1.3,2.3.5,3.5.8,1.2.3,2.4.5,3.7.9.7.2,1.3.3,2,.5.6.2,1.2.3,1.9.5,1.2.4,2.6.8,3.9,1.3,1.7,2.4,5.4,3.6,9.1,3.9,3.7.4,7.4,0,10.1.2,2.6-.5,4.7-1,6.8-1.5,2.2-.5,4.3-1,6.3-1.5,4.3-1,8.7-2.1,14.3-3.5,3.8,2.5,8.3,1.2,12.7-.7l.8-.4.9-.4c.6-.3,1.2-.5,1.8-.8,1.2-.5,2.3-1.1,3.5-1.6,2.3-1,4.5-1.7,6.9-1.9.4-1,.8-2.1,1.2-3.2,3.5.5,6.8-1.6,10.2-4.3,1.7-1.3,3.4-2.8,5.4-4.3,1-.8,2.1-1.6,3.2-2.4,1.1-.8,2.2-1.6,3.4-2.3.9-2.6,1.3-3.9,1.6-4.4-.4.3-1.2.6-2.5,0,1.3-.8,2.4-2.7,3.5-4.1,1.1-1.4,2-2.5,3.3-1.6v.8c.5.4,1,.1,1.5-.7.2-.4.4-.9.6-1.5.2-.6.4-1.2.5-1.9.8-2.7,1.1-5.9,2.8-7.3h0s0,0,0,0c-1.2.3-2.4.7-3.5.9l.6-1.6c.4-1.2.8-2.4,1.1-3.6l.4,1.6c-.7-6.3-1.6-11.2-2.3-15.8-.3-2.1-.7-4.1-1-6-.3-1.8-.6-3.5-.9-5.2-.6-3.3-1.4-6.4-2.8-9.4-1.4-3-3.6-6.1-7.2-8.9,2.1,0,1.3-.4.3-1.2-1-.8-2.1-1.8-.6-3,.7-3.2-.9-4.9-3-5.9-2.1-1-4.8-1.3-6.6-2.2-.1.1-.3.3-.7.3-1.5-1.7-3.1-3.3-4.8-4.9,3.2-.6,1.5-.6-.2-.5-1.7,0-3.5.3-.7-.3-3.2-3.5-7.5-6.4-12.2-8.5-4.8-2.1-9.9-3.2-14.9-3.8-5-.5-9.9-.5-14.6-.2-4.7.3-9.1.8-13.4,1.2l1,1.1c-2.1.3-4.4,1.1-6.5,1.7-2.1.6-4.1,1-5.9.5-1.8-.5-3.2.7-4.3,2.2-1.1,1.5-1.8,3.1-2.3,3.4-1.2,1.6-2.9,1.6-4.1,1.2-1.2-.4-2-1.1-1.2-1.3-1.6,1-2.8,2.7-4.1,4.4-1.4,1.6-3,3-5.6,3.2-.8-.7-1.9-.5-3.1.2-1.2.7-2.4,1.9-3.6,3.1-2.3,2.4-4.4,4.6-5.6,2.7l.2.4c-3.6.3-5.9,2.5-8.1,4.8-2.2,2.3-4.4,4.7-7.9,5.7,0,0-.1-.3-.1-.7-.7,6.6-.9,13-.7,19.3,4.5,2.8,8.8,5.7,13.1,8.8,2.6.4,5.2,1,7.6,1.5,2.5.6,4.9,1.3,7.4,2.1,5.5-5.5,11.9-10.4,18.7-14.6,6.5-1.1,12.9-1.8,19.1-1.6.9-.2,1.8-.5,2.6-.7.8-.2,1.7-.4,2.5-.6,1.6-.4,3.2-.7,4.7-.9,3-.4,5.8-.6,8.1-.4,2.2.2,4,.5,5.2,1,.2,0,.3.1.5.2.1,0,.3.1.4.2.1,0,.3.1.4.2.1,0,.3.1.4.2.6.3,1.2.8,1.9,1.5,1.2-.4,2.5-.6,3.9-.8-.3,2.1,0,3.8.7,5.6.3.9.8,1.8,1.2,2.7.5.9,1,1.9,1.5,2.8.5.9.9,1.8,1.2,2.5.2.4.3.8.4,1.1.1.3.2.7.2.9,0,.5-.3,1-1.5,1.1l3,.5c0,.2-.2.3-.4.4-.6,0-1.6-.2-1.9-.2,0,.5-.2,1-.4,1.5,0,.1-.1.2-.2.4,0,0,0,.1-.1.2l-.3.4c-.2.3-.6.5-.9.8-.3.3-.7.6-1.1.9-1.6,1.1-3.6,2.3-5.7,3.2-2,.9-4.9,1.7-7.9,2.3-6,1.3-12.8,1.8-20.1,2-.9,0-1.8,0-2.8,0-.9,0-1.8,0-2.6,0-1.7,0-3.2-.1-4.6-.2-2.8-.3-5.1-.8-6.5-1.6,0-.3-.2-.5-.4-.7,0,0-.2-.2-.2-.3,0,0-.2-.2-.1-.2,0,0,0-.2,0-.3,0,0,0-.2-.1-.2-.2-.3-.3-.6.3-1.5-.6.7-1.3,1-1.9,1.1-.1,0-.3,0-.4,0-.1,0-.2,0-.4,0h-.2c0,0-.2-.1-.2-.2l-.5-.5c-1.3-1.7-2.4-4.8-3.2-8.4l.4.2c-.5-1-1-2.1-1.4-3.1.2-.2.5-.3.8-.2-1.7-1.5-2.2-3.7-2-5.8.2-2.1,1.1-4,1.7-5l.3.2c0-.2,0-.4,0-.6v-.5c.1-.3.2-.6.2-.8,0-.2.1-.5,0-.5,0,0,0,0,0-.1,0,0,0-.1,0-.2,0-.2.1-.4.2-.6,0,0,0,0,0-.2,0,0,0,0,0,0,0,0,0,0,0,0,0,0,0-.1,0-.2,0,0,0,0,.1-.1,0-.2.1-.2.3-.4.2-.1.3-.3.5-.5,0,0,.2-.1.3-.2,0,0,.2-.1.3-.2.2-.2.5-.3.7-.4,1-.5,2.1-.8,3-.9.4,0,.9,0,1.5,0,.6,0,1.2.3,1.9.6,1.3.6,2.7,1.5,3.9,2.9,1.2,1.3,2.1,2.9,2.6,4.6.5,1.5.6,3.5.4,5.5-.8,1.5-1.2,3-1.6,4.5-.2.8-.3,1.6-.4,2.4,0,.2,0,.4-.1.6v.3c0,0,0,0,0,.1,0,.1,0,.1,0,.2,0,.3.2.6.3,1,0,.4,0,.8-.4,1-.4.1-1-.3-1.4-1.2,0-.2,0-.4-.1-.5,0-.1-.2-.3-.3-.4,0,0,0-.1-.1-.2h0c-.2,0-.4,0-.6-.1-.8,0-1.8-.1-2.7-.1-3.9-.1-8.9,0-13.8.3-2.5.1-4.9.3-7.3.5-2.2.2-4.4.4-6.2.6-.8,0-1.6.2-2.3.2-.6,0-1.3.1-1.7.2-.5,0-.9.1-1.2.2-.3,0-.5.1-.7.2Z"/>
    <path class="cls-2" d="M345.6,235.1h0c1.3.1.8,0,0,0Z"/>
    <path class="cls-2" d="M378.3,281.7c0,0-.2,0-.2,0l1,1.8-.7-1.7Z"/>
    <path class="cls-2" d="M322.1,267.8c1.9,2.6,2.3,2.5,2.3,1.8-.8-.9-1.5-1.5-2.3-1.8Z"/>
    <path class="cls-2" d="M342.8,232.4c-.2-.2-.2-.3-.2-.2,0,0,0,0,0,0,0,0,0,0,0,0,0,0-.1-.2-.2-.2,0,.1.1.2.1.2.1,0,.3.3.4.4l-.3-.3Z"/>
    <path class="cls-2" d="M329.8,223.1l-.6-.9c-.2.6.2.8.6.9Z"/>
  </g>
  <path class="cls-1" d="M352,72c-10.4,0-19.2,6.7-22.5,16h-9.5c-22.1,0-40,17.9-40,40v168h-16v-168c0-22.1-17.9-40-40-40h-8v-56c0-13.2-10.8-24-24-24H32c-13.2,0-24,10.8-24,24v112c0,13.2,10.8,24,24,24h160c13.2,0,24-10.8,24-24v-40h8c13.2,0,24,10.8,24,24v168h-16v-40c0-22.1-17.9-40-40-40h-24.8c-3.7-18.2-19.9-32-39.2-32h-64c-22.1,0-40,17.9-40,40s17.9,40,40,40h104v-32h24c13.2,0,24,10.8,24,24v40H51.1l-40,80h36.9v128h416v-128h36.9l-40-80h-132.9v-24c0-13.2,10.8-24,24-24h8.8c3.7,18.2,19.9,32,39.2,32s40-17.9,40-40-17.9-40-40-40-35.5,13.8-39.2,32h-8.8c-22.1,0-40,17.9-40,40v24h-16v-168c0-13.2,10.8-24,24-24h9.5c3.3,9.3,12.1,16,22.5,16v16c-13.2,0-24,10.8-24,24s10.8,24,24,24h128c13.2,0,24-10.8,24-24s-10.8-24-24-24v-16c13.2,0,24-10.8,24-24s-10.8-24-24-24M200,144c0,4.4-3.6,8-8,8H32c-4.4,0-8-3.6-8-8V32c0-4.4,3.6-8,8-8h160c4.4,0,8,3.6,8,8v112ZM152,248h-88c-13.2,0-24-10.8-24-24s10.8-24,24-24h64c13.2,0,24,10.8,24,24v24ZM400,216c13.2,0,24,10.8,24,24s-10.8,24-24,24-24-10.8-24-24,10.8-24,24-24ZM60.9,312h118.1l-24,48H36.9l24-48ZM64,376h100.9l27.1-54.1v166.1H64v-112ZM448,488h-240v-166.1l27.1,54.1h212.9v112ZM475.1,360h-230.2l-24-48h230.1l24.1,48ZM464,72h-96M344,96c0-4.4,3.6-8,8-8h128c4.4,0,8,3.6,8,8s-3.6,8-8,8h-128c-4.4,0-8-3.6-8-8ZM488,160c0,4.4-3.6,8-8,8h-128c-4.4,0-8-3.6-8-8s3.6-8,8-8h128c4.4,0,8,3.6,8,8ZM464,136h-96v-16h96v16Z"/>
  <path class="cls-1" d="M136,56h-32v16h-32v16h-32v48h144V40h-48v16ZM104,88v32h-16v-32h16ZM56,104h16v16h-16v-16ZM120,120v-48h16v48h-16ZM152,56h16v64h-16V56Z"/>
</svg>