<?xml version="1.0" encoding="utf-8"?>
<!-- Generator: Adobe Illustrator 25.2.1, SVG Export Plug-In . SVG Version: 6.00 Build 0)  -->
<svg version="1.1" id="Capa_1" xmlns="http://www.w3.org/2000/svg" xmlns:xlink="http://www.w3.org/1999/xlink" x="0px" y="0px"
	 viewBox="0 0 512 512" style="enable-background:new 0 0 512 512;" xml:space="preserve">
<style type="text/css">
	.st0{fill:#AA0E94;}
</style>
<g>
	<g>
		<path class="st0" d="M256,0c-79,0-143.4,64.3-143.4,143.4v70.2c0,4.8,3.9,8.7,8.7,8.7h48.1c4.8,0,8.7-3.9,8.7-8.7v-70.2
			c0-43,35-78,78-78s78,35,78,78v70.2c0,4.8,3.9,8.7,8.7,8.7h48.1c4.8,0,8.7-3.9,8.7-8.7v-70.2C399.4,64.3,335,0,256,0z M382,204.9
			h-30.7v-61.5c0-52.5-42.7-95.3-95.3-95.3s-95.3,42.7-95.3,95.3v61.5H130v-61.5c0-69.5,56.5-126,126-126c69.5,0,126,56.5,126,126
			L382,204.9L382,204.9z"/>
	</g>
</g>
<g>
	<g>
		<path class="st0" d="M410.6,204.9H101.4c-20.5,0-37.2,16.7-37.2,37.2v232.7c0,20.5,16.7,37.2,37.2,37.2h309.3
			c20.5,0,37.2-16.7,37.2-37.2V242.1C447.8,221.6,431.1,204.9,410.6,204.9z M430.5,474.8c0,11-8.9,19.9-19.9,19.9H101.4
			c-11,0-19.9-8.9-19.9-19.9V242.1c0-11,8.9-19.9,19.9-19.9h309.3c11,0,19.9,8.9,19.9,19.9V474.8z"/>
	</g>
</g>
<g>
	<g>
		<path class="st0" d="M285.1,369.8c10.1-8.5,16-21,16-34.4c0-24.9-20.2-45.1-45.1-45.1c-24.9,0-45.1,20.2-45.1,45.1
			c0,13.4,5.9,25.8,16,34.4l-9.7,46.4c-0.5,2.6,0.1,5.2,1.8,7.2c1.6,2,4.1,3.2,6.7,3.2h60.7c2.6,0,5.1-1.2,6.7-3.2
			c1.6-2,2.3-4.7,1.8-7.2L285.1,369.8z M270.9,358.8c-3,1.9-4.6,5.6-3.8,9.1l8.7,41.4h-39.4l8.7-41.4c0.7-3.5-0.8-7.1-3.8-9.1
			c-8.1-5.2-12.9-13.9-12.9-23.4c0-15.3,12.5-27.8,27.8-27.8c15.3,0,27.8,12.5,27.8,27.8C283.8,344.9,279,353.7,270.9,358.8z"/>
	</g>
</g>
</svg>
