<?xml version="1.0" encoding="utf-8"?>
<!-- Generator: Adobe Illustrator 25.2.1, SVG Export Plug-In . SVG Version: 6.00 Build 0)  -->
<svg version="1.1" id="Capa_1" xmlns="http://www.w3.org/2000/svg" xmlns:xlink="http://www.w3.org/1999/xlink" x="0px" y="0px"
	 viewBox="0 0 512 512"  xml:space="preserve">

<g>
	<path d="M408,340.5v-35.6c0-4.1-3.4-7.5-7.5-7.5s-7.5,3.4-7.5,7.5v35.6c0,1.4-1.1,2.5-2.5,2.5h-99.8
		c-3.1-35,17.2-69.1,51.2-82.3c6.8-2.6,10.4-10.1,8.2-17l-9.7-31.2c-1.1-3.6-3.7-6.6-7.1-8.3c-3.4-1.7-7.4-1.9-11-0.6
		c-33.9,12.5-61.5,37.2-77.6,69.8c-16.2,32.7-19.1,69.8-8.3,104.5c11.8,37.7,38.7,68.6,74.4,85.4c-0.9,3.7,0,7.6,2.6,10.5
		c3,3.4,7.7,4.6,12,3.3l45-14c3.2-1,5.8-3.4,7.2-6.5s1.2-6.6-0.3-9.6l-20.9-42.2c-2-4.1-6.1-6.5-10.6-6.4c-4.5,0.1-8.5,2.8-10.3,7
		l-1,2.4c-19.3-9.8-33.9-27-40.4-47.8c-0.2-0.6-0.4-1.3-0.5-1.9h97C400.2,358,408,350.2,408,340.5L408,340.5z M333.6,423.8
		c4.8,2.1,10.4-0.2,12.5-5l0.3-0.7l15.7,31.8l-34.7,10.8c0-1.3-0.2-2.6-0.7-3.9c-1-2.3-2.8-4.2-5.1-5.2
		c-34.1-14.6-59.9-43.1-70.8-78.3c-19.9-63.8,13.3-131.7,75.7-155.3l9,29c-46.1,18.4-70.6,69.7-55.7,117.2
		C288.1,391.1,307.7,412.8,333.6,423.8L333.6,423.8z"/>
	<circle cx="55.5" cy="91.1" r="14.6"/>
	<circle cx="100" cy="91.1" r="14.6"/>
	<circle cx="144.5" cy="91.1" r="14.6"/>
	<path d="M505.6,294c-12.1-38.7-39.9-70-76.9-86.6l0-0.1c1.8-4.2,1-8.9-2-12.2c-3-3.4-7.6-4.6-12-3.3l-6.7,2.1v-142
		c0-9.7-7.9-17.5-17.5-17.5H93.9c-4.1,0-7.5,3.4-7.5,7.5s3.4,7.5,7.5,7.5h296.7c1.4,0,2.5,1.1,2.5,2.5v81.5H15V51.9
		c0-1.4,1.1-2.5,2.5-2.5h38.2c4.1,0,7.5-3.4,7.5-7.5s-3.4-7.5-7.5-7.5H17.5C7.9,34.4,0,42.3,0,51.9v288.6c0,9.7,7.9,17.5,17.5,17.5
		H198c4.1,0,7.5-3.4,7.5-7.5s-3.4-7.5-7.5-7.5H17.5c-1.4,0-2.5-1.1-2.5-2.5V148.5h378v50.1l-23.3,7.3c-3.2,1-5.8,3.4-7.2,6.5
		c-1.3,3.1-1.2,6.6,0.3,9.6l20.9,42.2c2,4.1,6.1,6.5,10.6,6.4c4.5-0.1,8.5-2.8,10.3-7l0.3-0.7c20.7,9.6,36.2,27.2,43,49
		c12.6,40.4-8.4,83.9-47.9,99.1c-6.8,2.6-10.4,10.1-8.2,17l9.7,31.2c2.1,7.4,10.9,11.7,18,8.9c33.9-12.5,61.5-37.2,77.6-69.8
		C513.5,365.8,516.4,328.7,505.6,294L505.6,294z M415.6,453.7l-9.1-29c46.1-18.4,70.6-69.7,55.7-117.2c-8.7-27.9-29.4-50-56.8-60.7
		c-4.4-1.7-9.2,0-11.6,4L378.1,219l34.1-10.6c-0.4,1.9-0.2,3.8,0.5,5.6c1,2.4,2.9,4.2,5.2,5.2c35.3,14.2,62,43.1,73.3,79.3
		C511.1,362.2,477.9,430.2,415.6,453.7L415.6,453.7z"/>
	<path d="M55.2,166.7c-12.1,0-21.9,9.8-21.9,21.9V260c0,12.1,9.8,21.9,21.9,21.9h71.4c12.1,0,21.9-9.8,21.9-21.9v-70.7
		c0-12.4-10.1-22.5-22.5-22.5H55.2z M133.4,189.2V260c0,3.8-3.1,6.8-6.8,6.8H55.2c-3.8,0-6.8-3.1-6.8-6.8v-71.4
		c0-3.8,3.1-6.8,6.8-6.8h70.7C130.1,181.7,133.4,185.1,133.4,189.2z"/>
	<path d="M176.4,186.8h55.2c4.1,0,7.5-3.4,7.5-7.5s-3.4-7.5-7.5-7.5h-55.2c-4.1,0-7.5,3.4-7.5,7.5
		S172.3,186.8,176.4,186.8L176.4,186.8z"/>
	<path d="M176.4,221.5h55.2c4.1,0,7.5-3.4,7.5-7.5s-3.4-7.5-7.5-7.5h-55.2c-4.1,0-7.5,3.4-7.5,7.5
		S172.3,221.5,176.4,221.5L176.4,221.5z"/>
</g>
</svg>
