<?xml version="1.0" encoding="UTF-8"?>
<svg id="Layer_1" data-name="Layer 1" xmlns="http://www.w3.org/2000/svg" version="1.1" viewBox="0 0 424 424">
  <defs>
    <style>
      .cls-1 {
        fill: #000;
      }

      .cls-1, .cls-2 {
        stroke-width: 0px;
      }

      .cls-2 {
        fill: #bad1ba;
      }
    </style>
  </defs>
  <g>
    <path class="cls-2" d="M98.8,72.4c0-.2-.2-.1,0,0h0Z"/>
    <path class="cls-2" d="M65.2,136.1s0,0,0,0c0,.4-.2.7-.2,1l.3-1Z"/>
    <path class="cls-2" d="M53.9,132.2s0,0,0-.1c0,.2,0,.5,0,.1Z"/>
    <path class="cls-2" d="M98.3,128.9c.1,0,.1-.2.1-.3,0,.1,0,.2-.1.3Z"/>
    <path class="cls-2" d="M71.2,64.6s0,0,0,0c0,0,0-.1-.1-.2v.3Z"/>
    <path class="cls-2" d="M71.4,63.9c.3.3,0,.6-.2.6.3.5.6.5.9.3,0-.6-.6-.5-.8-.9Z"/>
    <path class="cls-2" d="M34.1,75.5v-.3c0,0,0,.2,0,.3Z"/>
    <path class="cls-2" d="M78.2,103h0c0-.2,0,0,0,0Z"/>
    <path class="cls-2" d="M40.2,73.3l-.3-.9c0,.4.2.7.3.9Z"/>
    <path class="cls-2" d="M64.9,137.1v.4c0,0,0-.2,0-.4Z"/>
    <path class="cls-2" d="M41.5,128.4c.1-.3.2-.5.2-.7,0,0,0,0,0,0l-.2.7Z"/>
    <path class="cls-2" d="M42.2,75.4c-.1,0-.2-.1-.3-.2l.5.5c0-.1,0-.2-.2-.3Z"/>
    <path class="cls-2" d="M28.9,113.3c-.1,0-.2,0-.3.1-.2.5.1,1.3.7,2.2l1-.6c-.5-.6-1-1.1-1.4-1.7Z"/>
    <path class="cls-2" d="M54.4,94.8c-.8.3-1.6.7-2.4,1.1-.5-1.9-.1-3.2.2-4.3.3-1.2.5-2.2-.2-3.6l.5.2c.3-.2-.9-.5-1.2-1.2-.2-.3-.1-.8.4-1.2.3-.2.7-.5,1.2-.7.6-.2,1.3-.3,2.1-.4h.2s-.4-.2.2-.1c-.5,0-1,0-1.5,0-.5-.5-1.4-1.1-1.4-1.6.3,0,.7.2,1.1.3,0-.4,0-.7,0-1,.5.2,1,.3,1.5.5-.6-.6-3.4-2.1-1.5-1.9-2-1-.9-1.1-1.9-1.6.2.1.6.3,1,.5,0-.6.2-1.6-.5-2.6,0,0-1.2-.4-2.8-.8-1.6-.3-3.7-.6-4.9-.8,1.1-.7,0-.4-.8-.6l.4.4c-.8.3-2.1-.4-2.6-.2,0,0,.2.1.4.2h-.1c.2,0,.4,0,.5.2.3.1.5.3.3.4h-.1c0,.3-.4.7-.6.9l-1.1-.5c.4.4.4.7,0,1-.4.3-1,.6-1.8.9-1.5.6-3.2,1.3-3.4,1.7-1.7.5-.2,2.1-1.2,3-.7,1.7-1.9.6-3,1.3-.9,1.1,1.4,0,1.4.5-.6.4-1.2.7-1.8,1.1,0-.8-.8-.5-1.3-.4-.4,1.2-2.7,3-.4,3.6-1.3,1.5-2.2,1.5-2.4,2.2.4-.2.9-.7,1.3-.6-1.1.6.2.3.5,0,.5.5-.7,1.8-1.6,2.9-.9,1.2-1.6,2.3-.3,2.4h-.5c1.9.2,3.8-.1,4.9.6l-.9.4.8.7c-.6.4-1.1.2-1.4.2.2.3.3.6.4.9,0,.4,0,.8-.1,1.2-.2.9-.5,1.8-.6,2.7,1.7-.9,3.5-1.7,5.2-2.3-.6.6-1.5,1.6-2,2.5-.5.9-.7,1.6.2,1.5-.6.4-1.1.8-1.7,1.3-1.5,1.9-1,2.3-.4,2.3.7,0,1.6-.3,1.2.4-.5.7-1,1.4-1.5,2.1-.1-.5-.2-.9-.3-1.4-.6,1.8-1,2.6-1.7,4.4,0,0,0,0,0,0,0-.1,0-.2.2-.3v.2c1-.3,1.9,0,2.3,1,.3.7.8,1.1,1.4,1.7.5.6.9,1.3,1.1,2.8.6-.3,1.3-.6,1.9-1,.1.6.3,1.3.5,1.9l-1.1,1.2c-.7-.5-1.8-1.3-2.9-2.2-1.1-.9-2.1-2-2.7-3l-.6.4c.7,1.3,2.3,2.1,2.8,2.9,0,.5-.3,2.5-1.7,2.6.6-.1,1.2-.2,1.8-.4,1.9,1.6,3,2.1,4,2.9,1,.8,1.9,1.7,4,3.5v-.9c1.2,0,2.4-.2,2.1,1.1.8.3,1.5.7,2.3,1.1.7.4,1.4.8,2.1,1.2.3.2.7.5,1,.7.3.2.7.5.8.8.4.5.7,1,.9,1.6l.7-1.7c.4.2.5,3.1,1.3.6l1.2-.6c.6.3,1.2-.7,1.7.5h0s0,0,0,0c0,0,0,.1,0,.2,0,0,0-.1,0-.2,1.3,1.1.3-1.6,1.7-.3.3,1.4,1-2.2,1.7-1.7l.4,2.7c1.3,1.7,1.9-.9,4-.6.9,1.1,1.2,3.3.3,5.3,1.2-2.3.6-1.5,2-2.6.1,1,0,1.2-.4,2.1,1,1.3.8-.8,1.6-.7.4-1.9.9-4.8,1.2-4.9l-.3-.6c.9-.9,1.9-1.3,2.8-.3v.9c0,0,1-.4,1-.4v1.2c.5-.1,1.1-.2,1.6-.3l-.2-.3c.4-.2,1.5-.5,2.2,0v.7c.9,1.1,1.8.9,2.7.4.2-.1.4-.2.7-.4.3-.1.7-.3,1-.4.7-.3,1.4-.5,2.1-.6l-.3,1.4c1.3,1.3,0-2.1,1.4-1.5l.3,1.7c.8-2.3,1.6.3,2.7,1.1l-.9-2.1,1.7.3c1.9.5,1.9,2.6,1.9,3.8.3-.6.5-1.2.7-1.9l.9,1.9c.1-2.3,1.1.2,2.2-1.2.4.7.2,1.2.9,1.3.5-1.1.9-2.2,1.3-3.2-.3.5-.6,1-.9,1.5l-1.1-2.7c.2-1.2.7-1.2,1.3-1.1.5.1,1.2.4,1.4,0,0,.3-.2.6-.3,1,1.3-1.1,2,0,3.3.1-.6-.3-1.4-.9-1-1.4.4-.3.8.8,1.4.8-1-1.7-.6-2.9.9-2.7.2.2.3.4.4.6,0-.4-.1-.8.5-.7l1.1,1.8c-.2-.7-.3-1.4-.5-2.1.9.1.6-1.6,1.5-.5v.5c1.4-.8,2.7-1.8,3.8-3l1.3,1c-1.4-1.8,2.3-1.7-.2-3.3.9,0,1.1-.9,1.3-1.5.2-.7.6-1.1,1.9,0,.8-1.4.5-3,.3-4.6-.2-1.6-.3-3.1.6-4.9,1.4-.3,2-1.7,2.2-3.3.2-1.6.1-3.5.3-4.9-.3-1.5-.6-2.7-1-4-.2-.6-.3-1.2-.5-1.7-.2-.5-.3-.8-.5-1.3-.7-1.7-1.4-3.3-2.3-5.4,1.6-1.7.8-3.5-.3-5-1.1-1.6-2.5-2.9-2.2-4.8-.6,0-1.2,0-1.8,0,.6-1.5-.2-2.6-1.2-3.8-1-1.2-2.1-2.5-2.3-4.5-1-.2-1.5-.3-1.7-.4,0,.2,0,.5-.7,1.3-.1-1.2-2-1.8-.7-3.1h.3c.7-.7,0-1-.8-1.4-.8-.4-1.8-.7-1.8-1.7-.2.7-.5,1.4-.8,2-.4-.4-.8-.9-1.2-1.3h.6c-.7-.1-1.3-.2-1.8-.2-1.8-.2-3-.6-4.2-1.1-1.2-.5-2.2-1.2-3.3-1.8-1.1-.6-2.3-1.1-3.5-1.2-1.2-.1-2.5.1-3.9,1,.5-1.1.2-.8-.2-.6-.4.2-.9.5-.9-.8-.7-1.6-1.4-1.5-2-.8-.7.6-1.2,1.8-1.7,2.2,0,.1,0,.3,0,.5l-1.8-.2c.5-1.6.2-.9-.1-.2-.3.7-.6,1.5-.2.2-5-2.1-9.8,1-15,.9l.4.8c-1.3,0-2.6,1.4-3.9.3-1.3-1-1.6,2.5-1.9,2.7-.7,1.6-2.4-.8-1.9-.8-.5.3-.8,1.3-1.2,2.1-.4.8-.9,1.3-1.9,1-.7-1.2-1.5-.2-2.3.8-.8.9-1.4,1.8-2,.5v.2c-1.3-.6-2.1.2-2.9,1-.8.8-1.5,1.7-3,1.4,0,0,0-.2,0-.4,0,1.7.1,3.4.3,5.1.2,1.7.4,3.4.7,5,2.2,2.6,4.3,5.2,6.3,7.9,2.2,1.8,4.3,3.8,6.2,5.8,1.5-1.4,3.2-2.8,5.3-4.1,2.1.4,4.2,1,6.3,1.6,2.2-.7,4.6-1.3,7.2-1.8,2.6-.5,4.9-.9,6.6-1.1.3-.8.5-1.5.8-2.3.5,1,.8,1.5,1.2,1.7.3.2.7.2.8.1.3-.2.9-.5.5.5,0,.1,0,.2-.1.3l1.1-1.6c.3,0-.5,1-.7,1.3h.5c0,.2.2.2.3.2.1,0,.2,0,.4.2.6.5,1.3,1.4,1.8,2.4.2.6.5,1.2.6,2,0,.4.1.7.2,1.1v.3s0,0,0,0v.2c0,.5-.4.9-1,1.1-.6-.2-.8-.1-.9-.1-.1,0-.3,0-1-.4,1.2.8,1.7,1.4,1.8,1.8.1.4-.2.5-.5.4v-.2c-.1.1,0,.3,0,.4-.1-.1-.3-.4-.4-.5.5.8.2.9-.1.6-.3-.3-.8-.8-1-1.2v-.2c-.2,0-.3,0-.4,0-.1,0-.3,0-.4.1h-.1s-.4,0-.4,0h-.8c-2.2.4-4.4.6-6.7.7-2.2,0-4.5,0-6.7-.4-2.2-.4-4.4-1.1-6.4-2.3,0-.8,0-1.2,0-1.3,0,0-.2,0-.4.2-.2.1-.5.2-.6.1,0,0,0-.4.6-.8.9-.6,1.1-.5.8-.5,0,0-.1,0-.2,0,0,0,0,0,0-.1,0-.2,0-.3,0-.5,0-.3-.1-.6-.2-.9-.2-1-.5-1.8-.7-2Z"/>
    <path class="cls-2" d="M53.6,83.3h0c.8.3.5.2,0,0Z"/>
    <polygon class="cls-2" points="29.4 102.6 29.4 102.5 28.3 103.1 29.4 102.6"/>
    <path class="cls-2" d="M29.4,84.5c-.4.8-.2.8.2.8,0-.3,0-.5-.2-.8Z"/>
    <path class="cls-2" d="M53.5,80.3c.1,0-.3-.3-.8-.6,0,.2,0,.3,0,.3.2,0,.6.2.8.3Z"/>
    <path class="cls-2" d="M43.7,74.8l-.5-.5c0,.3.2.4.5.5Z"/>
  </g>
  <g>
    <path class="cls-2" d="M155.1,73.3c0-.1-.2,0,0,0h0Z"/>
    <path class="cls-2" d="M143.6,131.4s0,0,0,0c0,.4.2.7.2,1v-1Z"/>
    <path class="cls-2" d="M130.3,131.2s0,0,0-.1c0,.2,0,.5,0,.1Z"/>
    <path class="cls-2" d="M165.5,115c0,0,0-.2,0-.2,0,0,0,.2,0,.2Z"/>
    <path class="cls-2" d="M132.7,66.7s0,0,0,0c0,0,0-.1-.1-.2v.3Z"/>
    <path class="cls-2" d="M133.1,66.1c.2.3-.1.5-.3.6.2.6.5.6.9.4,0-.6-.5-.6-.6-1Z"/>
    <path class="cls-2" d="M104.8,69.4v-.3c0,0,0,.2,0,.3Z"/>
    <path class="cls-2" d="M132.4,99.3c0,0-.1,0-.2-.1,0,0,0,0,.2.1Z"/>
    <path class="cls-2" d="M109.1,69.6v-1c0,.4,0,.7,0,1Z"/>
    <path class="cls-2" d="M143.7,132.4v.4c0,0,0-.2,0-.4Z"/>
    <path class="cls-2" d="M121.5,130.7c0-.3,0-.5,0-.7,0,0,0,0,0,0v.7Z"/>
    <path class="cls-2" d="M96.5,98.8c-.1,0-.2,0-.4,0l.7.2c0,0-.2-.1-.3-.2Z"/>
    <path class="cls-2" d="M110.4,125.1c0,.1,0,.2-.1.3.1.4.6.5,1.3.6l.3-1.1c-.5,0-1,.1-1.5.2Z"/>
    <path class="cls-2" d="M112.2,96.8c-.4.7-.7,1.4-1,2.1-.7.2-.8-.3-.8-.5,0,0,0-.1,0-.2h0s0,0,0,0h0s0,0,0,0h0s0,0,0,0c-2.2,2.1-.6.6-1.1,1h0s0,0,0,0l.2-.2c0,0,.2-.2.3-.3h.1c0-.1,0-.1,0-.1h-.1c0,0,.2,0,.2,0h0s0,0,0,0c0,0,0,0,0,0-.3.2-.6.4-.8.5-.2,0-.3,0,0-.2,0,0,.2-.1.4-.2,0,0,.2,0,.3-.1h-.1c-.2.1-.4.2-.7.3,0,0,0,0-.3,0,.2,0,.3,0,.4-.1-.2,0-.5.1-.9.2,0,0,0,0-.1,0-.3,0-.7,0-1,0-.1,0-.2,0-.3,0-.1,0-.2,0-.3,0,0,0-.3,0-.6,0,.3,0-.4,0-.2,0,0,0,0,0-.1,0,0,0-.2,0-.3,0,0,0-.1,0-.2,0,0,0,0,0-.1,0,0,0,0,0,0,0-.4-.2-1.1-.5-1.8-.6-.7-.2-1.5-.2-2.4-.2-.8,0-1.6.1-2.2.2.7-.6-.2-.3-1-.2h.5c-.6.5-2,.5-2.4.8.1,0,.3,0,.4,0h-.2c.3,0,.4,0,.6,0,.3,0,.5,0,.4.2h-.1c.2.2,0,.6-.1.8h-1.2c1.1.2.3,1-.6,2-1,1-2,2.5-1.9,2.9-.6.6-.3,1,0,1.4.4.4.8.7.7,1.3.5,1.6-1.1,1.6-1.5,2.9,0,1.4,1-1,1.3-.6-.2.7-.4,1.3-.6,2-.6-.6-.9.2-1.2.6.5,1.1.5,4.2,2.4,2.7.4,1.9-.1,2.7.3,3.2,0-.5,0-1.1.3-1.5-.2,1.2.4,0,.4-.3.7,0,1,1.5,1.5,3,.5,1.4,1.2,2.6,1.9,1.5l-.2.4c1.1-1.6,1.8-3.4,2.8-4v.9c0,0,.9-.5.9-.5,0,.7-.3,1.1-.4,1.3,1.3-.4,2.1,1.2,3.1,1.8.2-1.8.5-3.6.9-5.3.3,1.5,1.1,4.3,1.8,2.8v1.8c.8,3.8,1.6-1,2,.1.1.7.3,1.4.4,2.1l-.9-.3c.7,1.2.9,1.9,1.4,3.3h0c0-.1,0-.2,0-.3h.1c.3-.9.9-1.5,1.6-1.3.9.4,1.8-.8,2.9,1.4l.6-1.9.9,1.3-.2,1.6c-.5-.1-1.3,0-2.2,0-.8,0-1.7,0-2.4,0l-.2.7c.8.2,1.9-.4,2.4-.1.2.4.7,2.1,0,3l.8-1.4c1.4.1,2.2.1,2.9.4.7.2,1.4.8,2.9,1.7l-.2-.8c.6-.4,1.2-.8,1.3.4,1.8.3,3.7,1.3,5,3.3l.2-1.9c.4,0,1.1,2.9,1.2.3.3-.3.5-.6.8-.9.5.1.8-1,1.5,0h0s0,0,0,0c0,0,0,.1.1.2,0,0,0-.1,0-.2,1.3.7-.1-1.6,1.3-.7.6,1.3.2-2.4,1-2,.4.8.8,1.7,1.2,2.5,1,.6,1.5.3,2-.3.5-.6,1-1.3,2.2-1.5,1.4.7,2.7,2.7,2.5,4.8.4-2.6,0-1.6,1.2-3.1.6.9.5,1.1.5,2.1,1.8.8.5-1,1.6-1.2-.4-1.8-1.4-4.7-1.2-4.9l-.6-.5c.5-1.2,1.2-1.8,2.6-1.3l.4.9.8-.8.7,1,1.4-.9-.4-.2c.1-.1.4-.4.8-.6.4-.2.9-.3,1.4-.2l.4.6c1.6.5,2.5,0,3-.8.6-.8.9-1.8,1.8-2.3l.8,1.1c1.8.7-1.5-1.6-.1-1.6l1.4,1.2c-1.1-2,1.3-.2,2.5,0l-2.1-1.4,1.3-.2c1.6-.1,3,1.4,3.8,2.3-.3-.6-.6-1.1-.9-1.6l1.8,1.1c-1.5-1.8.8-.2.5-1.6.7.4.9.8,1.4.8-.4-.9-.8-1.8-1.2-2.7.1.5.3.9.4,1.4l-2.5-1.7c-1.2-1.9,1.2-.7,1-1.6l.4.8c.1-1.2,1.3-.6,2.3-.8-.6,0-1.5-.3-1.6-.8,0-.3,1,.3,1.5.2-.8-.5-1.4-1-1.5-1.4-.2-.4,0-.7.6-.8.2.1.5.3.6.4-.2-.3-.6-.6,0-.7l1.8,1.1-1.5-1.4c.8-.1-.4-1.3.9-.7l.3.4c.7-.9,1.3-2,1.7-3l1.6.5c-2.1-1,1.3-1.6-1.5-2.3,1.7-.2-.7-2.8,2.5-1.7.3-1.2-.5-2.2-1-3.2-.5-1-1-2.1-.3-3.4,1.4-.4,1.7-1.4,1.8-2.5,0-1.1-.4-2.3-.4-3.2-1-1.8-2-3.2-3.1-4.5-.5-.7-1-1.3-1.6-2-.6-.7-1.1-1.4-1.8-2.1,1.3-1.6.3-2.8-1-3.8-1.3-1-2.8-1.8-2.6-3.3-.6,0-1.2.2-1.8.3.5-1.2-.3-2-1.2-2.7-.9-.7-1.9-1.4-1.9-3-1,0-1.3,0-1.5,0,0,.1,0,.4-.8,1.1,0-.9-1.6-1.1-.2-2.4h.3c.7-.7.1-.9-.6-1-.7-.2-1.5-.4-1.3-1.2l-1,1.8c-.3-.3-.5-.7-.8-1h.5c-1.9,0-3.2-.2-4.2-.5-1-.4-1.7-1-2.5-1.6-.8-.6-1.6-1.2-2.6-1.5-1-.3-2.3-.2-3.8.6,1.3-2.1-1.3.9-.7-1.5-.3-1.6-1-1.6-1.7-1-.7.6-1.5,1.6-2,2,0,.1,0,.3-.1.4-.6-.2-1.2-.3-1.8-.5.7-1.5.3-.9-.1-.2-.4.7-.8,1.4-.2.1-.3-.2-.6-.3-.8-.4-.2-.1-.5-.2-.7-.3-.5-.2-1-.3-1.4-.4-1-.1-2,0-2.9,0-2,.2-3.8.6-5.6.1l.2.8c-.9-.1-2,.9-2.7-.3-.8-1.3-1.4,2.1-1.6,2.3-.7,1.4-1.5-1.3-1.2-1.2-.8.4-1.3,3.4-2.5,2.2-.6-2.6-2.8,2.9-3.1-.1v.3c-1.6-2-2.6,1.7-4.3,0,0,0,0-.2,0-.4-.7,3.1-1.4,6.3-2,9.4l2,9.9c1.1,2.6,2.2,5.2,3.3,7.8,2.1-.8,4.2-1.6,6.3-2.3,1.8.9,3.6,1.9,5.3,2.9l3.1-.4,3-.3c1.7-.2,3.9-.3,3.6-.5.2-.7.4-1.5.6-2.2-.2,2-.1,1.8.2,1.6.3-.2.9-.5,0,.8l1.3-1.7c.2,0-.6,1-.9,1.3.5,0,1.7-.1,2.6.3.9.4,1.3,1.4-.3,1.8-1.7,0-.7.3-2.6,0,1.7.4,2.5.8,2.8,1.1.3.3.1.5-.2.5h-.3c.1,0,.2,0,.3.1h0c-.2,0-.5-.2-.7-.3,1,.6.9.7.4.6-.5-.1-1.2-.5-1.7-.8l-.2-.2c-.3,0-.3.2-.3.5,0,.3,0,.7-.3,1-.2.3-.5.6-.9.6-1.4.1-3-.1-4.5-.7-1.4-1.6-2.8-1.3-4.3-1.1-.8.1-1.5.2-2.3,0-.7-.2-1.5-.5-2-1.3,0-1-1.4-1.4-2.3-1.6-1-.1-1.5.2-1.8.5Z"/>
    <path class="cls-2" d="M108.2,99.2h0s0,0,0,0Z"/>
    <polygon class="cls-2" points="104.7 121 104.7 120.9 104.5 122.1 104.7 121"/>
    <path class="cls-2" d="M91.2,111.8c.3.8.5.7.7.4-.1-.3-.3-.4-.7-.4Z"/>
    <path class="cls-2" d="M105.5,99.1c-.1,0,0,0,0,0,.1,0,.2,0,.2,0,0,0-.1,0-.2,0Z"/>
    <path class="cls-2" d="M97.6,98.1l-.6-.2c.1.2.4.2.6.2Z"/>
  </g>
  <g>
    <path class="cls-2" d="M248.6,67.2c0-.2-.2-.1,0,0h0Z"/>
    <path class="cls-2" d="M232.3,155.3s0,0,0,0c0,.4,0,.7-.1,1l.2-1Z"/>
    <path class="cls-2" d="M216.7,153.2s0,0,0-.1c0,.2,0,.5,0,.1Z"/>
    <path class="cls-2" d="M274,134.4c0-.2,0-.3,0-.4,0,.1,0,.3,0,.4Z"/>
    <path class="cls-2" d="M216.5,54.1s0,0,0,0c0,0-.1-.1-.2-.3v.3Z"/>
    <path class="cls-2" d="M216.9,53.5c.4.3-.2.5-.4.6.4.6.8.7,1.2.5,0-.6-.7-.6-.9-1.1Z"/>
    <path class="cls-2" d="M165.2,59.2v-.3c0,0,0,.2,0,.3Z"/>
    <path class="cls-2" d="M243.7,119.9s-.1,0-.1-.1c0,0,0,0,.1.1Z"/>
    <path class="cls-2" d="M173,58.8v-1c0,.4,0,.7,0,1Z"/>
    <path class="cls-2" d="M232,156.3v.4c0,0,0-.2,0-.4Z"/>
    <path class="cls-2" d="M202.4,152.3c0-.3,0-.5,0-.7,0,0,0,0,0,0v.7Z"/>
    <path class="cls-2" d="M168.3,95.1c-.1,0-.2,0-.4-.1l.5.5c0-.2,0-.3-.2-.4Z"/>
    <path class="cls-2" d="M181.7,144.4c0,0-.1.2-.2.3.3.5,1.2.8,2.5,1.2l.4-1.1c-.9-.1-1.8-.2-2.7-.4Z"/>
    <path class="cls-2" d="M184.3,113.7c-.5.6-1,1.3-1.5,2-1.3-.8-1.5-2.2-1.7-3.2,0-.6-.2-1.1-.4-1.7-.1-.6-.6-1.1-1.1-1.8h.5c.2-.2-.9-.1-1.5-.9-.2-.4-.3-.9.1-1.6.2-.4.6-.8,1.1-1.2.5-.4,1.2-.8,2.1-1.2h.2c0-.1-.5-.2.2-.3-.5.1-1,.3-1.5.5-.5-.5-1.6-1.2-1.6-1.8.3,0,.8,0,1.1,0,0-.3,0-.5,0-.8v-.7c.6,0,1.1,0,1.6.1-.3-.4-1.2-.8-1.8-1.2-.6-.4-.7-.8.3-1-1.1-.3-1.3-.6-1.4-.9,0-.3,0-.5-.5-.7.3,0,.7.2,1.1.3.1-.8.6-2.3,0-3.4,0,0-1.4-.1-3.3-.1-.9,0-1.9.2-2.9.3-1,0-1.9.3-2.6.3,1.3-1.3,0-.6-.9-.6l.4.4c-1,.7-2.3.2-2.9.6.1,0,.2,0,.4.1h-.1c.3,0,.4,0,.5.1.3.1.5.2.3.5h-.1c0,.4-.5,1.1-.7,1.4l-1.1-.4c.9.8-.3,1.9-1.8,3.2-.7.7-1.5,1.4-2.1,2-.6.6-1.1,1.2-1.1,1.5-.8.6-.7,1.4-.6,2.2.1.8.5,1.6.1,2.5-.2,1.4-.5,1.7-1,1.9-.5.2-1.1.3-1.5,1.1-.5,1.9,1.3-.5,1.5.2-.4.8-.9,1.6-1.3,2.4-.4-1.2-1-.4-1.4-.1.1,1-.2,2.3-.2,3.5,0,1.1.4,2.1,1.6,2,0,.7-.2,1.3-.3,1.8,0,.5-.2.8-.3,1.1-.2.6-.3,1-.1,1.6.2-.5.3-1.4.7-1.6-.5,1.4.4.4.5-.1.4.3.6,1,.6,2,0,1,.2,2.1.3,3.2,0,.6.1,1.1.2,1.6.1.5.3.9.5,1.3.3.7.8,1.1,1.4.8l-.4.3c1.8-.8,3-2.4,4.4-2.2,0,.4-.2.7-.2,1.1l1.4.3c0,1-.6,1-.8,1.2.5.2.9.5,1.3.9.4.4.8.8,1.1,1.3.7.9,1.4,2,2.3,2.8.2-.9.4-1.9.7-2.8.3-.9.6-1.8.9-2.7.2,1,.6,2.4,1.1,3.5.5,1.1,1.2,1.7,1.8,1.1,0,.7,0,1.4,0,2.1.7,2.3,1.5,2.3,2.1,1.9.6-.4,1.1-1.3,1.5-.5.3.8.5,1.7.9,2.5l-1.6-.8c1.3,1.7,1.7,2.5,2.7,4.2,0,0,0,0,0,0,0-.1-.1-.2,0-.3h.3c.5-.8,1.7-1.1,2.8-.6,1.7.8,3.3-.2,5.6,2.3.4-.6.7-1.2,1-1.8l1.8,1.5-.2,1.5c-2-.4-6-.6-8.7-1.4l-.3.7c1.6.5,3.6.3,4.6.7.4.4,1.4,2.3.3,3.1.4-.4.9-.8,1.3-1.3,2.7.4,4,.5,5.3.9,1.3.3,2.6.9,5.2,2l-.4-.8c1.1-.4,2.1-.8,2.3.5,3.1.4,6.2,1.5,8.1,3.5l.4-1.8c.6.1,1.5,2.9,1.8.3l1.3-.8c.8.1,1.4-.9,2.3.2h0s0,0,0,0c0,0,.1.1.2.2,0,0,0-.1,0-.2,1.9.8,0-1.7,2.2-.6.7,1.3.8-2.3,1.8-1.9l1.1,2.6c2,1.5,2.3-1.2,5.1-1.3,1.4.9,2.2,3.1,1.3,5.2,1.2-2.5.5-1.6,2.2-2.8.3,1,.1,1.2-.2,2.1,1.6,1.1.9-.9,2.1-1,.2-1.9.4-4.9.8-5l-.5-.6c1.1-1.1,2.4-1.6,3.8-.8v.9s1.5-.6,1.5-.6l.2,1.2,2.1-.6-.3-.3c.5-.2,2.1-.8,3.1-.3v.7c.8.4,1.5.6,2.1.5.2,0,.3,0,.5,0,.2,0,.5-.1.7-.2.5-.1.9-.3,1.4-.5,1.8-.7,3.6-1.9,5.8-2.5,0,.5,0,.9,0,1.4,2.2.9-.4-2.1,1.7-1.9l.9,1.5c.3-1.2.9-1.3,1.6-.9.7.3,1.6,1,2.4,1.2-.6-.6-1.1-1.2-1.7-1.8.8,0,1.5-.2,2.3-.3,2.6-.2,3.1,1.8,3.5,2.9.2-.7.4-1.4.5-2.1l1.6,1.4c-.2-1.2.1-1.3.6-1.3.5,0,1.2,0,1.7-1.1.7.4.5,1.1,1.4.9.3-1.4.5-2.7.6-4.1-.2.7-.4,1.4-.6,2.1l-1.9-2.1c0-1.4.5-1.7,1.2-2,.6-.3,1.4-.4,1.5-1.2,0,.4,0,.8,0,1.3,1.1-2.2,2-1.7,3.4-2.5-.7,0-1.7.2-1.5-.8.2-.7,1.1.2,1.7-.3-.8-.6-1.2-1.3-1.2-2.1,0-.8.2-1.5.8-2,.2.1.5.3.6.4-.2-.5-.6-.9,0-1.3l1.9,1.3c-.5-.7-1-1.4-1.6-2.1.8-.6-.6-2.4.8-1.8l.3.6c.2-1.1.4-2.1.5-3.3.1-1.1,0-2.3,0-3.5l1.7.2c-1.2-.6-1-1.5-1.1-2.4,0-.9,0-1.7-1.5-1.6.3-.3.4-.8.3-1.4-.1-.6-.3-1.2-.5-1.7-.3-1.1-.4-1.9,1.4-1.7-.2-1.3-.7-2.4-1.2-3.4-.5-1-1.1-1.9-1.7-2.9-.1-.2-.3-.5-.4-.7-.1-.1-.2-.3-.3-.4-.2-.3-.4-.6-.5-1-.3-.7-.5-1.6-.4-2.6,2.2-2.3-.1-5.7-.9-8.2-3.1-4.2-5.5-6.6-8.8-10.5.9-2.3-.4-3.8-1.9-5.2-1.5-1.4-3.3-2.6-3.4-4.6l-1.8.2c.3-1.6-.7-2.7-1.9-3.9-1.2-1.1-2.4-2.3-2.8-4.4-1.1-.1-1.5-.3-1.7-.4,0,.2,0,.5-.6,1.3-.2-1.2-2.3-1.9-.9-3.2h.3c.7-.6,0-1-.9-1.4-.9-.4-1.9-.9-1.9-1.9l-.8,2-1.3-1.5h.7c-4.7-.7-7.1-2.5-9.6-4.4-.6-.5-1.3-.9-1.9-1.3-.7-.4-1.4-.8-2.1-1-.8-.2-1.6-.4-2.5-.5-.9,0-1.9,0-2.9.3.8-1,.3-.8-.2-.7-.6.1-1.2.2-1-1-.6-1.7-1.5-1.8-2.5-1.3-1,.5-1.9,1.5-2.7,1.8,0,.1,0,.3-.2.4l-2.5-.6c1-1.5.4-.9-.1-.2-.6.6-1.1,1.4-.3.1-3.2-1.5-7-1.7-10.8-1.4-3.8.2-7.4.8-10.9.6l.4.8c-1.7,0-3.8,1.2-5.1,0-1.4-1.1-2.5,2.4-3,2.6-1.2,1.6-2.8-1-2.2-1-1.4.6-2.4,3.6-4.6,2.6-1-2.6-5.2,3.3-5.6.3v.3c-2.8-1.8-4.8,2.1-7.8.6,0,0,0-.2,0-.4l-4.4,9.8,3,9.7,5.9,7.5,12.7-3.4,10.6,1.8c7.9-1.2,15.1-1.9,20.9-1.3.5-.7,1.1-1.4,1.7-2,1.3,2.3,2.9,2.6,4.6,3,1.6.4,3.3.9,3.8,2.9l1.2-1.5c.8.5,0,1.4,0,1.8,3.5,2.5,7.6,6.5,11,11.5,3.4,4.9,5.9,10.4,6.5,15.9-.4.7-.2,1.7,0,2.7-.1.1-.2.3-.9.4,1.2,0,1.9.3,2.3.7.4.4.4.8.2,1h-.2c.1,0,.2.2.3.4-.2,0-.4-.2-.6-.3.9.7.7,1,.2.9-.5,0-1.2-.5-1.6-.8v-.2c-.4,0-.5,0-.7.2,0,0-.2.1-.2.2l-.4.2c-3.2.7-6.5,1.4-10,1.9-3.4.5-7,.8-10.6.7-1.8,0-3.7,0-5.5-.3-1.9-.2-3.8-.4-5.6-.8-3.4-1.7-6.7-1.5-10-1.5-1.6,0-3.2,0-4.6-.4-1.4-.3-2.7-.9-3.5-1.9,0-.5-.6-1-1.3-1.5-.4-.2-.7-.5-1.2-.7-.4-.2-.8-.4-1.2-.7-.2-.1-.4-.2-.5-.3-.1,0-.3-.1-.4-.2-.2,0-.3-.2-.4-.2-.1,0-.3-.2-.4-.2-.3-.1-.5-.3-.7-.4-.2-.1-.4-.1-.6-.2Z"/>
    <path class="cls-2" d="M180.3,102.4h0c.8.2.5.1,0,0Z"/>
    <polygon class="cls-2" points="171.6 136.3 171.5 136.2 171.3 137.4 171.6 136.3"/>
    <path class="cls-2" d="M157.1,112.4c-.1,1.3.1,1.3.4,1.1,0-.5-.1-.8-.4-1.1Z"/>
    <path class="cls-2" d="M180.5,98c.2-.2-.3-.4-.8-.5,0,.3-.1.5-.1.5.3,0,.7,0,1,0Z"/>
    <path class="cls-2" d="M170,93.9l-.5-.4c0,.3.2.4.5.4Z"/>
  </g>
  <g>
    <path class="cls-2" d="M239,358.8c-.4,0-.6,0,0,0h0Z"/>
    <path class="cls-2" d="M367.3,204.4c0-.1,0-.2,0-.3-.4-.2-.7-.4-1-.6l1,.9Z"/>
    <path class="cls-2" d="M369.5,157.3s0,0,.1,0c-.2,0-.5,0-.1,0Z"/>
    <path class="cls-2" d="M371.4,316.2c0,.4,0,.6.2.8,0-.2-.2-.5-.2-.8Z"/>
    <path class="cls-2" d="M149.6,356.7s.1,0,.2,0c-.2,0-.3-.1-.5-.3l.3.3Z"/>
    <path class="cls-2" d="M150.7,356.1c1.1.3-.3.5-.8.6,1.2.6,2.4.6,3.6.4,0-.6-2.3-.6-2.8-1.1Z"/>
    <path class="cls-2" d="M42.3,298.1l.3.5c0-.2-.2-.3-.3-.5Z"/>
    <path class="cls-2" d="M401.2,311.7c0,.2,0,.5.1.7,0-.4,0-.6-.1-.7Z"/>
    <path class="cls-2" d="M44.7,321.4h1c-.4-.1-.7,0-1,0Z"/>
    <path class="cls-2" d="M366.3,203.5l-.4-.3c0,.1.2.2.4.3Z"/>
    <path class="cls-2" d="M351.5,151.7c0-.3,0-.5-.2-.7,0,0,0,0-.1,0l.3.8Z"/>
    <path class="cls-2" d="M126.5,127.7c0,.1,0,.2.2.4l.8-.8c-.5.1-.8.2-1,.4Z"/>
    <path class="cls-2" d="M290.6,142.3c0,.1-.2.2-.2.3,1,.4,3.8.7,7.3.9l.3-1.2h-7.4Z"/>
    <path class="cls-2" d="M224.9,110.7l6.5,2.7c-10.6,0-18.4-.7-25.9-1.1-7.4-.5-14.5-.8-23.8,0l1-.5c-1.3-.3-2.4.9-6.8,1.3-4.4.5-12.1,0-27.2-2.6v-.2c-1,0-1,.6-3.1,0,1.7.4,3.5.8,5.2,1.2-3.1.7-5.7,2-9.8,2.4-.9-.2-1.2-.7-1.3-1.1-3.4.4-6.7.7-10.1,1.1l-3.2-1.3c-3,1.1-1.3,4.1-9.7,3.2,3.3,1.9-3.9,1.8-2.8,2.8-.4-.2-1.4-.5-2.2-.8-2.4.5-5.9,1.1-9.1,1.9-3.1.8-5.9,1.7-7,2.4,0,0,1.2.1,3.2.3,1.9.2,4.6.4,7.3.8,2.8.4,5.7.8,8.3,1.3,2.6.5,4.8,1,6.1,1.5-6.8.1-1.7.5-.3,1.1l.4-.6c4.1.1,4.2,1.6,6.3,1.8,0-.1,0-.2-.2-.4l-.2.2c-.2-.2-.1-.4,0-.6,0-.3,0-.6,1.2-.6l-.2.2c1.7-.3,4.6-.4,5.9-.4v1.2c1.5-1.2,6.6-.8,11.8.2,5.2.9,10.5,2.2,12.5,2.1,4,1.4,9-.6,14,.2,8,.3,4,1.7,8,2.7,5,.8-1-1.4,1-1.5,2,.6,4,1.1,6,1.7-3.5,0-1.6.8-1,1.3,2.6.2,5.9.8,8.8,1.1,2.9.4,5.3.4,6.1-.8,6.9,1.4,6.9,2.3,9.9,2.5-1-.5-3-.9-3-1.4,2.8,1.1,1.3-.2.2-.5,4.3-.9,21.9,5.3,23,2.8v.5c1.1-1.9-.4-3.8,2.6-4.7l1.9,1,3-.7c2,.7,1,1.2.9,1.4,4.9-.6,11.7.8,17.6,1.5l-6-5.6c4.9,1.5,13.8,4.5,14.9,2.9l2.9,2c9.8,4,7.1-1,11,.3l4.9,2.3-5-.4c4.9,1.3,6.9,2.1,10.8,3.6,0,0,0,0,0,0-.3-.1-.4-.2-.5-.3h.7c.7-.9,3.3-1.4,6.9-1,5,.7,9-.5,16.8,2.2l2.2-1.8,5.9,1.7v1.6c-6-.6-17.1-.9-24.6-1.4l-.2.7c4.5.3,9.6,0,12.6.5,1.4.4,5,2.4,2.2,3.2l2.9-1.3c14.9,1.1,15,1,30.4,4.2l-1.3-.9c3.1-.2,6.2-.3,7,1,4.7.6,9.4,1.4,13.7,2.3l.8.2h.2c0,0,0,0,0,0h0c.1.1.2.2.3.3.2.2.3.4.4.6.2.4.2.8,0,1.3.4-.6.9-1.1,1.5-1.7.2,0-.1.8-.4,1.2-.2.4-.2.5,1.1-.4.4,0,.6.2.9.4,0,.4.2.5.3.8.1.2.1.6-.4,1.1h0s0,0,0,0c0,0-.1.1-.2.2,0,0,0,0,.2,0-.1.2-.2.3-.2.4,0,0,0,0,0,.1,0,.1,0,.3,0,.4.1.4.3.4.5.5.4,0,.7.3.2,3.8-1.3,2.3,2.4,2.5,2,5.9l-2.6,3.5c-1.5,6.2,1.2,7.3,1.2,16.3-.9,4.3-3.2,6.4-5.2,3.6,2.4,3.9,1.6,1.8,2.8,7-1,.8-1.2.3-2.1-.9-1.1,4.6.9,2.9.9,6.3,1.9,1,4.9,2.1,5,3.3l.6-1.4c1,3.7,1.5,7.7.6,12l-.9-.2.5,4.6-1.2.3.4,6.5.3-.9c.2,1.5.6,6.6,0,9.5h-.7c-2.1,8,.7,14.7,1,24.3l-1.4-1.2c-1.3,3.2,2.1.9,1.5,4.8l-1.7.2c2.2,3.4-.4,4.4-1.3,6.7l2.2-1.1-.4,4.4c-.7,4.9-2.8,3-3.9,2.3l1.8,3.3-1.9.6c2.3,2.4-.4,2.4.9,6.7-.7.3-1.2-.7-1.5.7l2.8,7-1.2-4.2,2.8.5c2.2,4.4-.3,6,.5,9.1l-.9-2.2c.7,5.1-.5,5.4-1.1,8.3.5-.9,1.3-2.3,1.7-.2.2,1.5-1,.8-1.3,2.2,1.9.4,2.9,4,1.9,7.3-.3,0-.5-.1-.7-.3.3.8.8,1.3.3,2.7l-2.1-.9,1.9,2.8c-.6,1.8.8,4.5-.6,4.2l-.4-1c-.3,4.6-.8,9-1.4,13.3h-1.7c1.1.7.7,2.5.3,4-.4,1.5-.7,2.7.8,2.8-1,1-1.1,3.5-1.4,5-.3,1.6-.8,2.5-2.2,1.5-.2.7-.4,1.3-.6,1.8-.1.5-.3,1-.2,1.2,0,.4.2.8,0,1.3,0,.5-.3.9-.7,1.2-.2.1-.5.2-.7.2-.6,0-1.4,0-2.4,0-.8-.6-2-.9-3.7-1.1-1.7-.2-3.7-.2-5.7-.1-2.1,0-4.2.2-6.3.4-1,0-2.1.1-3.1.2-1,0-2,0-2.9,0-7,.9-12.8,1.8-18.6,2.4-2.9.3-5.9.6-9,1-3.1.3-6.4.5-10,.8-4.4-1.9-9.8-1.6-15.3-1.1-5.5.5-11.2,1.1-15.9-.1l-2.6,1.5c-3.1-1.3-7.1-1.3-11.4-1.3-4.3,0-8.9,0-13.3-1.4-2.2.6-3.3.7-3.8.8.4,0,1,.4,1.1,1.4-2.5-.8-7.6-.2-7.2-2.1l.7-.2c.5-1.9-7.7.5-10.5-1.3l1.4,2.2-4.8-.6,1.3-.3c-21.1,3.6-30.2-3.6-50.1-.2,2.7-2.2-3.9,1-4.1-1.5-4.9-3.3-9.3.3-13.4,1,0,.1,0,.3-.3.4l-7.1-.5c4.4-3-5.2,2.4-1.2-.1-2.3-.4-4.7-.7-7.2-.9-2.5-.2-5.1-.4-7.7-.5-2.6-.1-5.3-.2-8-.2-2.7,0-5.5,0-8.3,0-2.8,0-5.6,0-8.4.1-2.8,0-5.5,0-8.2,0-5.3,0-10.3-.3-14.8-1.2.2.3.4.6.7.9-2.3-.4-4.9-.6-7.1-1.1-1.2-.2-2.2-.6-3.1-1-.9-.4-1.7-.9-2.3-1.5-.6-.6-1.3-.9-2-1.2-.7-.2-1.6-.3-2.3-.4-.8,0-1.5,0-2.2-.1-.6,0-1.1-.1-1.4-.3-.9-.2-1.6-.7-2.2-1.2-.5-.5-.9-1.2-1.1-1.7-.4-1.1-.2-1.9.2-1.3-1.4-1.1-3.2-2-5-3.3-1.7-1.3-3.4-3.1-4.3-5.9.7-1.5-1.6-4.6-3.5-7.9-1.9-3.3-3.3-6.7-1.9-7.2h-.3c.1-4-.9-7.5-1.8-11.4-.9-3.8-1.6-7.9-.8-12.4,0,0,.2.2.4.4-3.3-5.8-6.3-12.1-9.4-18.4l-10.1,5.4c-2.7,5.5-5.4,11.2-7.8,17.2.7,8,2,16.3,4.3,24.7,2.4,8.5,5.8,16.7,10.9,24.5,3.4,6.5,7.9,13,13.9,18.5,3,2.7,6.4,5.3,9.9,7.3,1.7,1.1,3.5,1.9,5.4,2.9,1.8.8,3.6,1.7,5.5,2.3,9.1,2.7,17.8,3.4,25.7,3.6,4,.1,7.8,0,11.5,0h10.7c14-.3,28.2,0,42.4.3l6.2-2c16.6,4.6,38.3,1.2,56.4,5l.5-1.9c5.1.1,4.7,1.3,6,1.7,23.9.9,48.4,1.2,72.4.9,6-.2,12-.2,17.9-.4,3,0,5.9-.2,8.8-.2,1.5,0,2.9,0,4.4-.1,1.5,0,2.9-.1,4.4-.2,5.8-.2,11.6-.3,17.3-.6,2.8-.1,5.7-.2,8.5-.3,1.4,0,2.7,0,4.4-.2,1.6,0,3.3-.2,5.3-.5.8,0,1.7,0,2.9-.2,1.5-.2,3-.6,4.6-1.1,3.2-1.1,6.8-2.9,9.8-5.3,3-2.4,5.5-5.3,7.4-8,.5-.7.9-1.3,1.3-1.9.4-.6.7-1.2,1.1-1.7.6-1,1.1-1.7,1.5-2.2,1.6-5.3,2.2-10,2.6-14.1.4-4.1.8-8.1,1.1-12,.6-7.9.9-15.5,1.1-22.7l.2.5-.3-6.7c.2-.3.4-.3.5-.1-1.7-7.5,0-19.1.6-28.3l.2.5c0-26.5-.9-52.1-1.6-77.7-.3-12.8-.6-25.5-.6-38.4,0-3.2,0-6.4,0-9.7,0-2.7,0-5.3,0-8,0-1.5,0-2.9,0-4.4,0-1.5-.2-2.9-.4-4.3-.5-2.8-1.2-5.1-2.4-7.3-1.1-2.2-3.1-4.5-5.1-5.9-.5-.4-1-.7-1.5-1l-.8-.5h-.2c0-.1-.3-.2-.3-.2h-.5c0-.1-4.1-1.1-4.1-1.1-2.8-.7-5.6-1.4-8.4-2-.7-.2-1.3-.4-2-.5l-2.1-.4-2.2-.3h-.5c0,0-.4-.2-.4-.2h-.6c-1.5-.4-3.1-.7-4.7-.9-3.2-.5-6.4-.9-9.6-1.3-6.5-.7-13.3-1.2-20.2-1.6-13.7-.8-27.9-1.6-41.9-3.9-2.5-1.2-18-2.4-33.6-3.1-15.5-.7-31.1-.9-33.6-.6Z"/>
    <path class="cls-2" d="M139.7,112.9h.2c0-.8-.4-.5-.2,0Z"/>
    <path class="cls-2" d="M257.2,137.6c-.1,0-.2,0-.4,0l1.3,1.2-.9-1.2Z"/>
    <path class="cls-2" d="M182.6,135.1c3.3.3,3.5.1,3-.2-1.2,0-2.3,0-3,.2Z"/>
    <path class="cls-2" d="M111.6,117c-1.8.2-1.1.6,0,1,1.8-.3,3.1-.5,3.1-.5-1,0-2.1-.4-3.2-.5Z"/>
    <path class="cls-2" d="M120.2,127.3l-.5.7c1-.3,1-.5.5-.7Z"/>
  </g>
  <g>
    <path class="cls-1" d="M177.6,208.9c-2.2-2.6-6-2.9-8.6-.7l-39.6,33.7c-1.4,1.2-2.1,2.9-2.1,4.7s.8,3.5,2.1,4.7l39.6,33.7c1.1,1,2.6,1.5,4,1.5s3.4-.7,4.7-2.2c2.2-2.6,1.9-6.4-.7-8.6l-34.1-29,34.1-29c2.6-2.2,2.9-6,.7-8.6Z"/>
    <path class="cls-1" d="M294.6,241.9l-39.6-33.7c-2.6-2.2-6.4-1.9-8.6.7-2.2,2.6-1.9,6.4.7,8.6l34.1,29-34.1,29c-2.6,2.2-2.9,6-.7,8.6,1.2,1.4,2.9,2.2,4.7,2.2s2.8-.5,4-1.5l39.6-33.7c1.4-1.2,2.1-2.9,2.1-4.7s-.8-3.5-2.1-4.7Z"/>
    <path class="cls-1" d="M223.9,182.5c-3.3-.7-6.5,1.4-7.2,4.7l-24.7,117.1c-.7,3.3,1.4,6.5,4.7,7.2.4,0,.8.1,1.3.1,2.8,0,5.4-2,6-4.9l24.7-117.1c.7-3.3-1.4-6.5-4.7-7.2Z"/>
    <path class="cls-1" d="M356.1,48.7H67.9c-22.6,0-41.1,18.4-41.1,41.1v244.6c0,22.6,18.4,41.1,41.1,41.1h288.2c22.6,0,41.1-18.4,41.1-41.1V89.7c0-22.6-18.4-41.1-41.1-41.1ZM67.9,60.9h288.2c15.9,0,28.8,12.9,28.8,28.8v44.6H39.1v-44.6c0-15.9,12.9-28.8,28.8-28.8ZM356.1,363.2H67.9c-15.9,0-28.8-12.9-28.8-28.8v-187.8h345.9v187.8c0,15.9-12.9,28.8-28.8,28.8Z"/>
    <path class="cls-1" d="M131.3,117.3c10.7,0,19.3-8.7,19.3-19.3s-8.7-19.3-19.3-19.3-19.3,8.7-19.3,19.3,8.7,19.3,19.3,19.3ZM131.3,90.9c3.9,0,7.1,3.2,7.1,7.1s-3.2,7.1-7.1,7.1-7.1-3.2-7.1-7.1,3.2-7.1,7.1-7.1Z"/>
    <path class="cls-1" d="M71.9,117.1c10.7,0,19.3-8.7,19.3-19.3s-8.7-19.3-19.3-19.3-19.3,8.7-19.3,19.3,8.7,19.3,19.3,19.3ZM71.9,90.7c3.9,0,7.1,3.2,7.1,7.1s-3.2,7.1-7.1,7.1-7.1-3.2-7.1-7.1,3.2-7.1,7.1-7.1Z"/>
    <path class="cls-1" d="M190.7,117.5c10.7,0,19.3-8.7,19.3-19.3s-8.7-19.3-19.3-19.3-19.3,8.7-19.3,19.3,8.7,19.3,19.3,19.3ZM190.7,91c3.9,0,7.1,3.2,7.1,7.1s-3.2,7.1-7.1,7.1-7.1-3.2-7.1-7.1,3.2-7.1,7.1-7.1Z"/>
  </g>
</svg>