<?xml version="1.0" encoding="UTF-8"?>
<svg id="Capa_1" data-name="Capa 1" xmlns="http://www.w3.org/2000/svg" version="1.1" viewBox="0 0 512 512">
  <defs>
    <style>
      .cls-1 {
        fill: #2d4739;
      }

      .cls-1, .cls-2 {
        stroke-width: 0px;
      }

      .cls-2 {
        fill: #b0cab0;
      }
    </style>
  </defs>
  <g>
    <path class="cls-2" d="M428.9,152.4v-.2c-.2-.1-.2-.2-.3-.3,0,.1.1.2.2.4,0,.1.1.3.1.2,0,0,0,0,0,0,0,0,0,0,0,0,0,0,0,0,0,0Z"/>
    <path class="cls-2" d="M428.9,152.4s0,0,0,0c0,0,0,0,0,0Z"/>
    <path class="cls-2" d="M226.3,136.8c-.1,0-.2,0-.4,0,.1,0,.2,0,.4,0Z"/>
    <path class="cls-2" d="M310.4,293.4c0,0,.1,0,.2,0,0,0-.1,0-.2,0Z"/>
    <path class="cls-2" d="M386.1,284.3c0,0-.1,0-.2,0,0,0,.1,0,.2,0Z"/>
    <path class="cls-2" d="M226,134.8c0,0-.2.2-.2.3.1-.1.2-.2.2-.3Z"/>
    <path class="cls-2" d="M487.5,170.8c.2-2,.3-4-.2-2.5-.9-6.7-.9-13.7-1.4-20.7-.5-6.9-1.7-13.7-4-18.4-.8.1-4.4,0-9.5.7-5.1.7-11.5,2.2-17.7,4.9-6.2,2.6-12.1,6.2-16.5,9.5-4.4,3.3-7.4,6.2-8.1,6.9,0,0,0,0,0,0h0s0,0,0,0h0c-.1-.4-.2-.8-.3-1-.2-.6-.3-1.1-.3-1.4-.3.5-.2,1.5.1,2.5.2.7,0,.4.1.5,0,0,0,0,.2,0l1.6-1.4c.8.2-.9.9-.6,1.3-1.4.9-1.8.8-2,.7,0,.4-1,1.1.5.2-.3.3-.7.5-1.1.8-.4.2-.9.5-1.2.7.2-.1.7-.3,1-.4.3,0,.5,0,0,.1h-.3c-.8.3-.2.1.4.3.3,0,.6.2.7.3.1.1,0,.2-.3.2l-.5-.2c-.5-.1-.4,0-.3,0,0,0,0,.2-.4,0,.3.2,1.4.8,1.5,1-.5-.2-.5-.1-.6,0,0,0-.2,0-.6-.5.4.5.7,1,1,1.6,0,0-.1,0-.2.1,0,0,0,0,0,0h-.1c-.1.3-.3.5-.4.7-.2.2-.3.4-.5.6-.2.2-.4.5-.5.7-.4.5-.8,1-1.2,1.6-.4.6-.9,1.2-1.4,1.8-1.1,1.4-2.3,2.9-3.5,4.4-5,6.3-10.3,12.9-15,17.8-2.4,2.5-4.6,4.5-6.6,6.1-2,1.6-3.7,2.8-5.4,3.7-3.3,1.8-7.1,2.8-9.5,3.2l.3-.4c-3.5.8-8.6,1.3-15.2,1.6-6.8.3-14.2.6-21.4.8-7.2.2-14.3.3-20.8.4-3.2,0-6.2,0-9.1,0-1.4,0-2.7,0-4,0-1.2,0-2.4,0-3.4,0-2.4-2.6-5.6-2.7-7.6-4,1,1.3.5,2.7-.4,2.3-1.6-.6-2.3-.8-2.7-.8-.4,0-.5.2-.6.4,0,.2-.2.5-.6.6-.2,0-.5,0-.9,0-.4,0-.9-.2-1.5-.4-1.5-.3-3.5-1.5-4.9-3.2-.7-1-1.6-2-2.3-3.7-.7-1.6-1.5-3.5-2.1-5.8-.6-2.3-1.1-4.8-1.4-7.4-.3-2.6-.4-5.2-.4-7.5,0-1.2,0-2.3,0-3.4.1-1,.2-2,.3-2.9.1-.9.2-1.7.3-2.3.1-.8.3-1.5.4-2-.1-.3-.2-.7-.3-1,0-.3-.1-.7-.2-1,0-.4,0-.7,0-1.1v-.5s0-.3,0-.3h0c0-.2,0-.2,0-.4.2-1.9.5-3.8.8-5.7l.2-1.4c0-.5.1-.9.3-1.5l.8-3,.8-3c.3-1,.5-2,.8-3,.7-2,1.3-4.1,1.9-6,.2-.5.3-1,.4-1.5.2-.5.4-1,.5-1.5.3-1,.7-2,1-3,.7-2,1.2-3.8,1.8-5.6v1.4c.7-2,1.9-5.2,3.5-9.3.7-2,1.5-4.3,2.4-6.7.9-2.5,1.7-5,2.6-7.7.4-1.3.9-2.8,1.4-4.1.4-1.3.7-2.7,1.1-4,.4-1.4.8-2.8,1.1-4.2.2-1.2.4-2.5.6-3.8.1-.6.2-1.3.3-1.9l.2-1v-.5c0,0,0-.4,0-.4,0-1.1,0-2.1,0-3.2v-1.6c0-.3,0-.6,0-.8v-.6c-.3-.8-.5-1.7-.6-2.5l-.3-1.2c-.1-.3-.3-.6-.4-.9-.3-.6-.6-1.2-.9-1.8-.3-.7-.7-1-1.1-1.4-.4-.4-.8-.8-1.1-1.1-.2-.2-.4-.3-.6-.4-.2-.1-.4-.2-.6-.4-.4-.2-.8-.5-1.2-.7h-.1c0-.2,0-.3,0-.4v-.6c0-.4-.1-.8-.2-1.2-.1-.8-.3-1.5-.4-2.2-.5-2.2-1.2-4-2-5.4l7.6-14.4-41.4-11.1c-4.6-1.2-9.7-1.8-14.8-1-2.6.4-5.1,1.2-7.6,2.2-2.5,1.1-4.9,2.5-7,4.3-3.2-.2-6.5,0-9.8.6-.4.5-.7,1-1,1.5,0,0,.5,4.5,1.9,11,.5,2.4,1.1,5,1.9,7.8-1.6,3.4-3.1,6.9-4.7,10.4l-.4.8-.2.4-.3.7-.4.9c-.5,1.3-.9,2.4-1.3,3.6-.4,1.2-.8,2.4-1.1,3.6-.4,1.2-.7,2.5-1,3.8-.3,1.3-.6,2.7-.9,4.1-.6,3-1,6-1.4,10.1,0,1-.1,2-.2,3,0,1.2,0,2.4,0,3.6v1.8c0,.6,0,1.4,0,2.2,0,1.5.2,2.9.3,4.4v1.3c.1,0,.3,1.3.3,1.3.1.9.2,1.8.4,2.6s.3,1.7.4,2.6c.2,1,.4,2.1.6,3.1.2,1,.5,2.1.8,3.1l.4,1.5c.2.5.3.9.5,1.5.7,2.3,1.6,4.5,2.5,6.6.2.5.5,1,.7,1.6.1.3.2.4.2.5l.2.3.7,1.3.8,1.3.2.4c0,0,0,.1-.1.2,0,0,0-.1.1-.2h0s0,0,0,0c0,0,0,0,0,0,0,0,.1-.2.2-.3,0,0,0,0,.1-.1.3-.3.6-.5,1-.8-.7.9-1.9,2.1-2.6,2.9.4-.4.7-.7,1-.9.2-.2.3-.2.3-.1,0,.1-.1.5-.3.6l2.8-1.4c0,.3-.9.7-1.6,1-.7.3-1.3.6-1,.6,1.8-.6,1.7-.2,1.3,0-.4.3-.9.4,0,.5-.2,0-.4.2-1.1.1,1.3.2,0,.5.4,1,.5.3.5,0,1.1,0v.3c.1,0,.2,0,.2.2v1s-.1,3.8-.1,3.8c-.9,2.8-2,3.3-1.9,0,0,.6-.2,1.3-.3,2.1,0,.8-.2,1.6-.3,2.5,0,.9-.2,1.9-.3,2.9-.1,1-.2,2.1-.3,3.4-.4,4.9-.7,10.8-.6,17.3,0,1.6,0,3.3,0,5,0,1.7.1,3.5.2,5.2.1,3.6.5,7.2.9,11,.9,7.5,2.1,15.4,3.9,23.2,1.9,7.8,4.1,15.5,7,22.8,2.9,7.2,6.1,13.9,9.7,19.6,3.5,5.7,7.2,10.3,10.4,13.9.8.9,1.6,1.7,2.3,2.4.7.7,1.5,1.4,2.1,2,1.3,1.2,2.5,2.1,3.5,2.9-.6-1.8-2.2-3.3-3.7-5.1-.7-.9-1.5-1.9-2-2.9-.6-1-.9-2.1-1-3.3.6.3,1.1.7,1.5,1.1.5.3.9.7,1.2,1,.7.7,1.3,1.4,1.9,2,1.1,1.2,1.9,2.1,3.1,2,0,2.8,2,4.8,4.3,6.8,1.1.9,2.3,1.9,3.3,3,1,1.1,1.8,2.3,2.3,3.9.6-.6,1.2-1.3,1.7-2l1.6,2.6c4.4,1.4,6.6,1.7,8,2,1.3.2,1.7.3,2.1.4.3.1.6.4,1.6.9.5.2,1.2.6,2.2,1,1,.4,2.2.8,3.9,1.3,3.8.7,6.4,0,8.6-.5,1.1-.3,2.1-.5,3-.5.9,0,1.7,0,2.5.5-.6-.4-1.6-1.9,0-2.4.2,2.5,4.4-1.3,5.1,1.3,1.6-.1,6.7.6,5-2.9.8,1.7,5.3,2.7,2.6,4,1.5.2,3,.8,4.1.1l-1.9-1c5.1-.2,7.8,2.5,11.2-.4l-1.8-1.4c3-.1,5.5-.3,6.7,3l-3.1.9c5,0,8-.2,12-1.9h-1.5c2.6-1.7,10.7-3.3,18.4-5,3.9-.9,8-1.7,11.5-2.8,3.5-1,6.4-2.2,7.7-3.4-.9-.8-1.7-1.5-2.6-2.3,1.5-.8,3-1.7,4.5-2.6-.5,0-1.6,7.1-2.2,7.7,2.6-.3,7.7-1,14.7-3.1,3.5-1.1,7.6-2.6,11.7-4.8,4.2-2.1,8.3-4.8,12.2-7.7,3.9-2.9,7.5-6.1,10.7-9.2,3.2-3.1,6.2-6.1,8.7-8.8,5.1-5.4,8.7-9.5,10.5-11.1,3.2-2,2.1,2.6,2.2,3,2.8-4.6.3-3.8,3-6.8.9-.5.7,1.8.4,2.5.3-.4.5-.8.8-1.1.3-.3.6-.6.8-.9.5-.5.8-1,.6-1.5-1.9,1.2-2.6-2.1-4-2.9l1.9-2.1,1.9-2.2.7,1.8c.4-.5.4-2.3.8-4.4.2-1,.5-2.2,1-3.4.1-.3.3-.6.4-.9.2-.4.4-.7.6-1,.5-.8,1.1-1.6,1.8-2.4,4.4-5.7,8.5-12.6,11.6-20.2,3.2-7.6,5.6-16,7-24.4.8.5.6,4.2.3,8,.3-1.1.5-2.6.8-4,.1-.7.3-1.4.5-2.1.2-.7.3-1.3.5-1.8-1,1.9-.9,0-.8-2ZM298.2,48.1c.1,0,.3.1.4.2.2.1.2.3-.4.4-.2,0-.4,0-.8,0,0,0,0,0-.1-.1,0,0,0,0,0,0l.5-.7c.2,0,.3.1.5.2ZM294.1,43.3c0-.2.2-.3.3-.5.1-.1.2-.3.4-.4,0-.2.3-.3.6-.4-1,1.3-1.7,2.3-1.9,3.2,0-.4.2-.9.5-1.4,0-.2.1-.3.2-.5ZM293.3,45.6c0-.1,0-.3,0-.5-.1.5-.1,1,.1,1.5.2.4.5.7.9,1-.3-.2-.5-.3-.7-.5-.2-.3-.3-.4-.4-.7,0-.2-.1-.6,0-.8Z"/>
  </g>
  <g>
    <path class="cls-1" d="M283.9,153.1c-2.9-2.9-7.7-2.9-10.6,0l-8.2,8.2c-2.9,2.9-2.9,7.7,0,10.6,1.5,1.5,3.4,2.2,5.3,2.2s3.8-.7,5.3-2.2l8.2-8.2c3-2.9,3-7.7,0-10.6Z"/>
    <path class="cls-1" d="M290.8,194.6c1.9,0,3.8-.7,5.3-2.2l8.2-8.2c2.9-2.9,2.9-7.7,0-10.6-2.9-2.9-7.7-2.9-10.6,0l-8.2,8.2c-2.9,2.9-2.9,7.7,0,10.6,1.5,1.4,3.4,2.2,5.3,2.2Z"/>
    <path class="cls-1" d="M314.2,194l-8.2,8.2c-2.9,2.9-2.9,7.7,0,10.6,1.5,1.5,3.4,2.2,5.3,2.2s3.8-.7,5.3-2.2l8.2-8.2c2.9-2.9,2.9-7.7,0-10.6-2.9-2.9-7.6-2.9-10.6,0Z"/>
    <path class="cls-1" d="M326.4,233.3c1.5,1.5,3.4,2.2,5.3,2.2s3.8-.7,5.3-2.2l8.2-8.2c2.9-2.9,2.9-7.7,0-10.6-2.9-2.9-7.7-2.9-10.6,0l-8.2,8.2c-2.9,2.9-2.9,7.7,0,10.6h0Z"/>
    <path class="cls-1" d="M61.9,425.9l-13.8,13.8c-2.9,2.9-2.9,7.7,0,10.6s7.7,2.9,10.6,0l13.8-13.8c2.9-2.9,2.9-7.7,0-10.6-2.9-3-7.7-3-10.6,0Z"/>
    <path class="cls-1" d="M348.8,369.6l-44.8-25.8c-5-2.9-11.3-2.9-16.3,0l-44.8,25.9c-5,2.9-8.1,8.3-8.1,14.1v51.7c0,5.8,3.1,11.2,8.1,14.1l44.8,25.9c2.5,1.4,5.3,2.2,8.1,2.2s5.6-.7,8.1-2.2l44.8-25.9c5-2.9,8.1-8.3,8.1-14.1v-51.7c0-5.9-3-11.3-8-14.2ZM341.9,435.5c0,.5-.2.9-.6,1.1l-44.8,25.9c-.4.2-.9.2-1.3,0l-44.8-25.9c-.4-.2-.6-.6-.6-1.1v-51.7c0-.5.2-.9.6-1.1l44.8-25.9c.2-.1.4-.2.6-.2s.4.1.6.2l44.8,25.9c.4.2.6.6.6,1.1v51.7h0Z"/>
    <path class="cls-1" d="M295.8,381.9c-15.3,0-27.7,12.4-27.7,27.7s12.4,27.7,27.7,27.7,27.7-12.4,27.7-27.7-12.4-27.7-27.7-27.7ZM295.8,422.3c-7,0-12.7-5.7-12.7-12.7s5.7-12.7,12.7-12.7,12.7,5.7,12.7,12.7-5.7,12.7-12.7,12.7Z"/>
    <path class="cls-1" d="M423.2,349.1c0,15.3,12.4,27.7,27.7,27.7s27.7-12.4,27.7-27.7-12.4-27.7-27.7-27.7-27.7,12.4-27.7,27.7ZM463.6,349.1c0,7-5.7,12.7-12.7,12.7s-12.7-5.7-12.7-12.7,5.7-12.7,12.7-12.7,12.7,5.7,12.7,12.7Z"/>
    <path class="cls-1" d="M503.9,309.1l-44.8-25.9c-5-2.9-11.3-2.9-16.3,0l-44.8,25.9c-5,2.9-8.1,8.3-8.1,14.1v51.8c0,5.8,3.1,11.2,8.1,14.1l44.8,25.9c2.5,1.4,5.3,2.2,8.1,2.2s5.6-.7,8.1-2.2l16.1-9.3c3.6-2.1,4.8-6.7,2.7-10.2-2.1-3.6-6.7-4.8-10.2-2.7l-16.1,9.3c-.4.2-.9.2-1.3,0l-44.8-25.9c-.4-.2-.6-.6-.6-1.1v-51.7c0-.5.2-.9.6-1.1l44.8-25.9c.4-.2.9-.2,1.3,0l44.8,25.9c.4.2.6.6.6,1.1v51.6c0,.5-.2.9-.6,1.1l-2.7,1.6c-3.6,2.1-4.8,6.7-2.7,10.2,2.1,3.6,6.7,4.8,10.2,2.7l2.7-1.6c5-2.9,8.1-8.3,8.1-14.1v-51.7c.1-5.8-3-11.2-8-14.1h0Z"/>
    <path class="cls-1" d="M322.6,280.1c44.4,9.2,90.3-4.3,122.6-36.6,38-38,48.7-93.4,31.3-141.3-.9-2.4-2.9-4.2-5.4-4.8-2.5-.6-5.1.2-6.9,2l-61.6,61.6-51.4-13.8-13.8-51.4,7.4-7.4c2.9-2.9,2.9-7.7,0-10.6s-7.7-2.9-10.6,0l-10.4,10.4c-1.9,1.9-2.6,4.7-1.9,7.2l16,59.8c.7,2.6,2.7,4.6,5.3,5.3l59.8,16c2.6.7,5.4,0,7.2-1.9l55.9-55.9c10.2,40.5-1.5,84.1-31.3,114-28.6,28.6-69.3,40.7-108.9,32.5-21.8-4.5-44.4,2.9-59,19.4l-159.6,180.5s0,.1,0,.1c-5,5.8-11,10.3-17.8,13.5-3.8,1.7-5.4,6.2-3.7,9.9,1.7,3.8,6.2,5.4,9.9,3.7,8.8-4.1,16.5-9.9,22.9-17.3l159.3-180.2c11.1-12.5,28.2-18.1,44.8-14.7Z"/>
    <path class="cls-1" d="M63.1,483.2c-12.4-1-24-6.4-32.8-15.2-21.5-21.5-20.4-56.8,2.9-76.9,0,0,0,0,0-.1l180.2-159.3c16.5-14.6,23.9-37.2,19.4-59-8.2-39.6,3.9-80.4,32.5-108.9,29.9-29.9,73.5-41.6,114-31.3l-24.2,24.2c-2.9,2.9-2.9,7.7,0,10.6s7.7,2.9,10.6,0l33-33c1.8-1.8,2.6-4.4,2-6.9s-2.3-4.5-4.8-5.4c-47.9-17.5-103.3-6.7-141.3,31.3-32.2,32.2-45.8,78-36.6,122.6,3.4,16.6-2.2,33.7-14.7,44.8L23.4,379.8c-29.7,25.6-31.4,71.1-3.7,98.8,11.3,11.3,26.3,18.3,42.2,19.6,4.1.3,7.7-2.7,8.1-6.9.4-4.1-2.7-7.8-6.9-8.1h0Z"/>
  </g>
</svg>